{
copyright = "Copyright 2014-2022 Indian Type Foundry. All rights reserved.";
designer = "Manushi Parikh, Jonny Pinhorn";
designerURL = "https://www.indiantypefoundry.com/designers";
familyName = Teko;
customParameters = (
{
name = glyphOrder;
value = (
.notdef,
NULL,
CR,
space,
ITF,
circledotted,
indianrupee,
exclam,
quotedbl,
numbersign,
dollar,
percent,
ampersand,
quotesingle,
parenleft,
parenright,
asterisk,
plus,
comma,
hyphen,
period,
slash,
zero,
one,
two,
three,
four,
five,
six,
seven,
eight,
nine,
colon,
semicolon,
less,
equal,
greater,
question,
at,
A,
B,
C,
D,
E,
F,
G,
H,
I,
J,
K,
L,
M,
N,
O,
P,
Q,
R,
S,
T,
U,
V,
W,
X,
Y,
Z,
bracketleft,
backslash,
bracketright,
asciicircum,
underscore,
grave,
a,
b,
c,
d,
e,
f,
g,
h,
i,
j,
k,
l,
m,
n,
o,
p,
q,
r,
s,
t,
u,
v,
w,
x,
y,
z,
braceleft,
bar,
braceright,
asciitilde,
nbspace,
exclamdown,
cent,
sterling,
currency,
yen,
brokenbar,
section,
dieresis,
copyright,
ordfeminine,
guillemotleft,
logicalnot,
softhyphen,
registered,
macron,
degree,
plusminus,
twosuperior,
threesuperior,
acute,
micro,
paragraph,
periodcentered,
cedilla,
onesuperior,
ordmasculine,
guillemotright,
questiondown,
Agrave,
Aacute,
Acircumflex,
circumflex,
Atilde,
tilde,
Adieresis,
Aring,
ring,
AE,
Ccedilla,
Egrave,
Eacute,
Ecircumflex,
Edieresis,
Igrave,
Iacute,
Icircumflex,
Idieresis,
Eth,
Ntilde,
Ograve,
Oacute,
Ocircumflex,
Otilde,
Odieresis,
multiply,
Oslash,
Ugrave,
Uacute,
Ucircumflex,
Udieresis,
Yacute,
Thorn,
germandbls,
agrave,
aacute,
acircumflex,
atilde,
adieresis,
aring,
ae,
ccedilla,
egrave,
eacute,
ecircumflex,
edieresis,
igrave,
iacute,
icircumflex,
idieresis,
eth,
ntilde,
ograve,
oacute,
ocircumflex,
otilde,
odieresis,
divide,
oslash,
ugrave,
uacute,
ucircumflex,
udieresis,
yacute,
thorn,
ydieresis,
Amacron,
amacron,
Abreve,
breve,
abreve,
Aogonek,
ogonek,
aogonek,
Cacute,
cacute,
Ccaron,
caron,
ccaron,
Dcaron,
dcaron,
Dcroat,
dcroat,
Emacron,
emacron,
Edotaccent,
dotaccent,
edotaccent,
Eogonek,
eogonek,
Ecaron,
ecaron,
Gbreve,

glyphs = (
{
glyphname = .notdef;
layers = (
{
layerId = "DEF7E4D1-2777-4333-B76D-D32E6812EDA5";
paths = (
{
closed = 1;
nodes = (
"160 0 LINE",
"596 0 LINE",
"596 701 LINE",
"160 701 LINE"
);
},
{
closed = 1;
nodes = (
"241 625 LINE",
"516 625 LINE",
"516 76 LINE",
"241 76 LINE"
);
}
);
width = 756;
},
{
layerId = "D7ED940C-AEED-448E-AD50-67D9ABA5AFA7";
paths = (
{
closed = 1;
nodes = (
"180 0 LINE",
"570 0 LINE",
"570 701 LINE",
"180 701 LINE"
);
},
{
closed = 1;
nodes = (
"234 651 LINE",
"516 651 LINE",
"516 50 LINE",
"234 50 LINE"
);
}
);
width = 750;
}
);
},
{
glyphname = ITF;
layers = (
{
layerId = "DEF7E4D1-2777-4333-B76D-D32E6812EDA5";
paths = (
{
closed = 1;
nodes = (
"147 0 LINE",
"343 0 LINE",
"343 634 LINE",
"147 634 LINE"
);
},
{
closed = 1;
nodes = (
"383 449 LINE",
"579 449 LINE",
"579 634 LINE",
"383 634 LINE"
);
},
{
closed = 1;
nodes = (
"619 0 LINE",
"815 0 LINE",
"815 634 LINE",
"619 634 LINE"
);
},
{
closed = 1;
nodes = (
"855 449 LINE",
"1051 449 LINE",
"1051 634 LINE",
"855 634 LINE"
);
},
{
closed = 1;
nodes = (
"1091 0 LINE",
"1287 0 LINE",
"1287 634 LINE",
"1091 634 LINE"
);
},
{
closed = 1;
nodes = (
"1327 449 LINE",
"1523 449 LINE",
"1523 634 LINE",
"1327 634 LINE"
);
},
{
closed = 1;
nodes = (
"1327 224 LINE",
"1523 224 LINE",
"1523 409 LINE",
"1327 409 LINE"
);
}
);
width = 1648;
},
{
layerId = "D7ED940C-AEED-448E-AD50-67D9ABA5AFA7";
paths = (
{
closed = 1;
nodes = (
"147 0 LINE",
"343 0 LINE",
"343 634 LINE",
"147 634 LINE"
);
},
{
closed = 1;
nodes = (
"383 449 LINE",
"579 449 LINE",
"579 634 LINE",
"383 634 LINE"
);
},
{
closed = 1;
nodes = (
"619 0 LINE",
"815 0 LINE",
"815 634 LINE",
"619 634 LINE"
);
},
{
closed = 1;
nodes = (
"855 449 LINE",
"1051 449 LINE",
"1051 634 LINE",
"855 634 LINE"
);
},
{
closed = 1;
nodes = (
"1091 0 LINE",
"1287 0 LINE",
"1287 634 LINE",
"1091 634 LINE"
);
},
{
closed = 1;
nodes = (
"1327 449 LINE",
"1523 449 LINE",
"1523 634 LINE",
"1327 634 LINE"
);
},
{
closed = 1;
nodes = (
"1327 224 LINE",
"1523 224 LINE",
"1523 409 LINE",
"1327 409 LINE"
);
}
);
width = 1648;
}
);
},
{
glyphname = circledotted;
layers = (
{
layerId = "DEF7E4D1-2777-4333-B76D-D32E6812EDA5";
paths = (
{
closed = 1;
nodes = (
"139 491 OFFCURVE",
"157 472 OFFCURVE",
"183 472 CURVE SMOOTH",
"209 472 OFFCURVE",
"227 491 OFFCURVE",
"227 517 CURVE SMOOTH",
"227 542 OFFCURVE",
"209 561 OFFCURVE",
"183 561 CURVE SMOOTH",
"157 561 OFFCURVE",
"139 542 OFFCURVE",
"139 517 CURVE SMOOTH"
);
},
{
closed = 1;
nodes = (
"57 382 OFFCURVE",
"77 363 OFFCURVE",
"103 363 CURVE SMOOTH",
"127 363 OFFCURVE",
"147 382 OFFCURVE",
"147 407 CURVE SMOOTH",
"147 432 OFFCURVE",
"127 451 OFFCURVE",
"103 451 CURVE SMOOTH",
"77 451 OFFCURVE",
"57 432 OFFCURVE",
"57 407 CURVE SMOOTH"
);
},
{
closed = 1;
nodes = (
"44 256 OFFCURVE",
"63 238 OFFCURVE",
"88 238 CURVE SMOOTH",
"114 238 OFFCURVE",
"132 256 OFFCURVE",
"132 281 CURVE SMOOTH",
"132 307 OFFCURVE",
"114 326 OFFCURVE",
"88 326 CURVE SMOOTH",
"63 326 OFFCURVE",
"44 307 OFFCURVE",
"44 281 CURVE SMOOTH"
);
},
{
closed = 1;
nodes = (
"96 139 OFFCURVE",
"114 121 OFFCURVE",
"140 121 CURVE SMOOTH",
"165 121 OFFCURVE",
"184 139 OFFCURVE",
"184 165 CURVE SMOOTH",
"184 190 OFFCURVE",
"165 209 OFFCURVE",
"140 209 CURVE SMOOTH",
"114 209 OFFCURVE",
"96 190 OFFCURVE",
"96 165 CURVE SMOOTH"
);
},
{
closed = 1;
nodes = (
"197 64 OFFCURVE",
"216 44 OFFCURVE",
"242 44 CURVE SMOOTH",
"267 44 OFFCURVE",
"286 64 OFFCURVE",
"286 90 CURVE SMOOTH",
"286 114 OFFCURVE",
"267 134 OFFCURVE",
"242 134 CURVE SMOOTH",
"216 134 OFFCURVE",
"197 114 OFFCURVE",
"197 90 CURVE SMOOTH"
);
},
{
closed = 1;
nodes = (
"324 48 OFFCURVE",
"342 30 OFFCURVE",
"368 30 CURVE SMOOTH",
"394 30 OFFCURVE",
"413 48 OFFCURVE",
"413 74 CURVE SMOOTH",
"413 100 OFFCURVE",
"394 118 OFFCURVE",
"368 118 CURVE SMOOTH",
"342 118 OFFCURVE",
"324 100 OFFCURVE",
"324 74 CURVE SMOOTH"
);
},
{
closed = 1;
nodes = (
"445 101 OFFCURVE",
"464 83 OFFCURVE",
"489 83 CURVE SMOOTH",
"514 83 OFFCURVE",
"534 101 OFFCURVE",
"534 127 CURVE SMOOTH",
"534 152 OFFCURVE",
"514 171 OFFCURVE",
"489 171 CURVE SMOOTH",
"464 171 OFFCURVE",
"445 152 OFFCURVE",
"445 127 CURVE SMOOTH"
);
},
{
closed = 1;
nodes = (
"518 200 OFFCURVE",
"537 181 OFFCURVE",
"563 181 CURVE SMOOTH",
"587 181 OFFCURVE",
"606 200 OFFCURVE",
"606 225 CURVE SMOOTH",
"606 251 OFFCURVE",
"587 270 OFFCURVE",
"563 270 CURVE SMOOTH",
"537 270 OFFCURVE",
"518 251 OFFCURVE",
"518 225 CURVE SMOOTH"
);
},
{
closed = 1;
nodes = (
"528 333 OFFCURVE",
"546 315 OFFCURVE",
"572 315 CURVE SMOOTH",
"597 315 OFFCURVE",
"616 333 OFFCURVE",
"616 359 CURVE SMOOTH",
"616 385 OFFCURVE",
"597 403 OFFCURVE",
"572 403 CURVE SMOOTH",
"546 403 OFFCURVE",
"528 385 OFFCURVE",
"528 359 CURVE SMOOTH"
);
},
{
closed = 1;
nodes = (
"478 452 OFFCURVE",
"497 433 OFFCURVE",
"522 433 CURVE SMOOTH",
"548 433 OFFCURVE",
"566 452 OFFCURVE",
"566 477 CURVE SMOOTH",
"566 503 OFFCURVE",
"548 522 OFFCURVE",
"522 522 CURVE SMOOTH",
"497 522 OFFCURVE",
"478 503 OFFCURVE",
"478 477 CURVE SMOOTH"
);
},
{
closed = 1;
nodes = (
"383 521 OFFCURVE",
"402 501 OFFCURVE",
"428 501 CURVE SMOOTH",
"453 501 OFFCURVE",
"471 521 OFFCURVE",
"471 545 CURVE SMOOTH",
"471 571 OFFCURVE",
"453 590 OFFCURVE",
"428 590 CURVE SMOOTH",
"402 590 OFFCURVE",
"383 571 OFFCURVE",
"383 545 CURVE SMOOTH"
);
},
{
closed = 1;
nodes = (
"257 534 OFFCURVE",
"275 516 OFFCURVE",
"301 516 CURVE SMOOTH",
"327 516 OFFCURVE",
"345 534 OFFCURVE",
"345 560 CURVE SMOOTH",
"345 586 OFFCURVE",
"327 604 OFFCURVE",
"301 604 CURVE SMOOTH",
"275 604 OFFCURVE",
"257 586 OFFCURVE",
"257 560 CURVE SMOOTH"
);
}
);
width = 660;
},
{
layerId = "D7ED940C-AEED-448E-AD50-67D9ABA5AFA7";
paths = (
{
closed = 1;
nodes = (
"139 491 OFFCURVE",
"157 472 OFFCURVE",
"183 472 CURVE SMOOTH",
"209 472 OFFCURVE",
"227 491 OFFCURVE",
"227 517 CURVE SMOOTH",
"227 542 OFFCURVE",
"209 561 OFFCURVE",
"183 561 CURVE SMOOTH",
"157 561 OFFCURVE",
"139 542 OFFCURVE",
"139 517 CURVE SMOOTH"
);
},
{
closed = 1;
nodes = (
"57 382 OFFCURVE",
"77 363 OFFCURVE",
"103 363 CURVE SMOOTH",
"127 363 OFFCURVE",
"147 382 OFFCURVE",
"147 407 CURVE SMOOTH",
"147 432 OFFCURVE",
"127 451 OFFCURVE",
"103 451 CURVE SMOOTH",
"77 451 OFFCURVE",
"57 432 OFFCURVE",
"57 407 CURVE SMOOTH"
);
},
{
closed = 1;
nodes = (
"44 256 OFFCURVE",
"63 238 OFFCURVE",
"88 238 CURVE SMOOTH",
"114 238 OFFCURVE",
"132 256 OFFCURVE",
"132 281 CURVE SMOOTH",
"132 307 OFFCURVE",
"114 326 OFFCURVE",
"88 326 CURVE SMOOTH",
"63 326 OFFCURVE",
"44 307 OFFCURVE",
"44 281 CURVE SMOOTH"
);
},
{
closed = 1;
nodes = (
"96 139 OFFCURVE",
"114 121 OFFCURVE",
"140 121 CURVE SMOOTH",
"165 121 OFFCURVE",
"184 139 OFFCURVE",
"184 165 CURVE SMOOTH",
"184 190 OFFCURVE",
"165 209 OFFCURVE",
"140 209 CURVE SMOOTH",
"114 209 OFFCURVE",
"96 190 OFFCURVE",
"96 165 CURVE SMOOTH"
);
},
{
closed = 1;
nodes = (
"197 64 OFFCURVE",
"216 44 OFFCURVE",
"242 44 CURVE SMOOTH",
"267 44 OFFCURVE",
"286 64 OFFCURVE",
"286 90 CURVE SMOOTH",
"286 114 OFFCURVE",
"267 134 OFFCURVE",
"242 134 CURVE SMOOTH",
"216 134 OFFCURVE",
"197 114 OFFCURVE",
"197 90 CURVE SMOOTH"
);
},
{
closed = 1;
nodes = (
"324 48 OFFCURVE",
"342 30 OFFCURVE",
"368 30 CURVE SMOOTH",
"394 30 OFFCURVE",
"413 48 OFFCURVE",
"413 74 CURVE SMOOTH",
"413 100 OFFCURVE",
"394 118 OFFCURVE",
"368 118 CURVE SMOOTH",
"342 118 OFFCURVE",
"324 100 OFFCURVE",
"324 74 CURVE SMOOTH"
);
},
{
closed = 1;
nodes = (
"445 101 OFFCURVE",
"464 83 OFFCURVE",
"489 83 CURVE SMOOTH",
"514 83 OFFCURVE",
"534 101 OFFCURVE",
"534 127 CURVE SMOOTH",
"534 152 OFFCURVE",
"514 171 OFFCURVE",
"489 171 CURVE SMOOTH",
"464 171 OFFCURVE",
"445 152 OFFCURVE",
"445 127 CURVE SMOOTH"
);
},
{
closed = 1;
nodes = (
"518 200 OFFCURVE",
"537 181 OFFCURVE",
"563 181 CURVE SMOOTH",
"587 181 OFFCURVE",
"606 200 OFFCURVE",
"606 225 CURVE SMOOTH",
"606 251 OFFCURVE",
"587 270 OFFCURVE",
"563 270 CURVE SMOOTH",
"537 270 OFFCURVE",
"518 251 OFFCURVE",
"518 225 CURVE SMOOTH"
);
},
{
closed = 1;
nodes = (
"528 333 OFFCURVE",
"546 315 OFFCURVE",
"572 315 CURVE SMOOTH",
"597 315 OFFCURVE",
"616 333 OFFCURVE",
"616 359 CURVE SMOOTH",
"616 385 OFFCURVE",
"597 403 OFFCURVE",
"572 403 CURVE SMOOTH",
"546 403 OFFCURVE",
"528 385 OFFCURVE",
"528 359 CURVE SMOOTH"
);
},
{
closed = 1;
nodes = (
"478 452 OFFCURVE",
"497 433 OFFCURVE",
"522 433 CURVE SMOOTH",
"548 433 OFFCURVE",
"566 452 OFFCURVE",
"566 477 CURVE SMOOTH",
"566 503 OFFCURVE",
"548 522 OFFCURVE",
"522 522 CURVE SMOOTH",
"497 522 OFFCURVE",
"478 503 OFFCURVE",
"478 477 CURVE SMOOTH"
);
},
{
closed = 1;
nodes = (
"383 521 OFFCURVE",
"402 501 OFFCURVE",
"428 501 CURVE SMOOTH",
"453 501 OFFCURVE",
"471 521 OFFCURVE",
"471 545 CURVE SMOOTH",
"471 571 OFFCURVE",
"453 590 OFFCURVE",
"428 590 CURVE SMOOTH",
"402 590 OFFCURVE",
"383 571 OFFCURVE",
"383 545 CURVE SMOOTH"
);
},
{
closed = 1;
nodes = (
"257 534 OFFCURVE",
"275 516 OFFCURVE",
"301 516 CURVE SMOOTH",
"327 516 OFFCURVE",
"345 534 OFFCURVE",
"345 560 CURVE SMOOTH",
"345 586 OFFCURVE",
"327 604 OFFCURVE",
"301 604 CURVE SMOOTH",
"275 604 OFFCURVE",
"257 586 OFFCURVE",
"257 560 CURVE SMOOTH"
);
}
);
width = 660;
}
);
unicode = 25CC;
},
{
glyphname = indianrupee;
layers = (
{
layerId = "DEF7E4D1-2777-4333-B76D-D32E6812EDA5";
paths = (
{
closed = 1;
nodes = (
"416 484 LINE",
"40 484 LINE",
"40 385 LINE",
"416 385 LINE"
);
},
{
closed = 1;
nodes = (
"416 642 LINE",
"40 642 LINE",
"40 543 LINE",
"416 543 LINE"
);
},
{
closed = 1;
nodes = (
"148 543 LINE",
"165 543 OFFCURVE",
"173 536 OFFCURVE",
"173 521 CURVE SMOOTH",
"173 350 LINE SMOOTH",
"173 331 OFFCURVE",
"165 326 OFFCURVE",
"150 326 CURVE SMOOTH",
"40 326 LINE",
"40 213 LINE",
"183 0 LINE",
"363 0 LINE",
"193 252 LINE",
"153 213 LINE",
"174 213 LINE",
"300 211 OFFCURVE",
"343 245 OFFCURVE",
"343 340 CURVE SMOOTH",
"343 488 LINE SMOOTH",
"343 553 OFFCURVE",
"334 562 OFFCURVE",
"277 562 CURVE"
);
}
);
width = 456;
},
{
layerId = "D7ED940C-AEED-448E-AD50-67D9ABA5AFA7";
paths = (
{
closed = 1;
nodes = (
"293 471 LINE",
"40 471 LINE",
"40 412 LINE",
"293 412 LINE"
);
},
{
closed = 1;
nodes = (
"293 622 LINE",
"40 622 LINE",
"40 563 LINE",
"293 563 LINE"
);
},
{
closed = 1;
nodes = (
"140 563 LINE",
"166 563 OFFCURVE",
"171 558 OFFCURVE",
"171 532 CURVE SMOOTH",
"171 351 LINE SMOOTH",
"171 325 OFFCURVE",
"166 320 OFFCURVE",
"140 320 CURVE SMOOTH",
"40 320 LINE",
"40 261 LINE",
"187 0 LINE",
"261 0 LINE",
"89 300 LINE",
"66 261 LINE",
"161 261 LINE SMOOTH",
"214 261 OFFCURVE",
"240 287 OFFCURVE",
"240 340 CURVE SMOOTH",
"240 523 LINE SMOOTH",
"240 572 OFFCURVE",
"219 585 OFFCURVE",
"140 585 CURVE"
);
}
);
width = 343;
}
);
unicode = 20B9;
},
{
glyphname = exclam;
layers = (
{
layerId = "DEF7E4D1-2777-4333-B76D-D32E6812EDA5";
paths = (
{
closed = 1;
nodes = (
"50 642 LINE",
"80 233 LINE",
"217 233 LINE",
"247 642 LINE"
);
},
{
closed = 1;
nodes = (
"62 0 LINE",
"234 0 LINE",
"234 164 LINE",
"62 164 LINE"
);
}
);
width = 297;
},
{
layerId = "D7ED940C-AEED-448E-AD50-67D9ABA5AFA7";
paths = (
{
closed = 1;
nodes = (
"50 622 LINE",
"63 196 LINE",
"122 196 LINE",
"135 622 LINE"
);
},
{
closed = 1;
nodes = (
"51 0 LINE",
"133 0 LINE",
"133 112 LINE",
"51 112 LINE"
);
}
);
width = 185;
}
);
unicode = 0021;
},
{
glyphname = quotedbl;
layers = (
{
layerId = "DEF7E4D1-2777-4333-B76D-D32E6812EDA5";
paths = (
{
closed = 1;
nodes = (
"40 642 LINE",
"40 376 LINE",
"193 376 LINE",
"193 642 LINE"
);
},
{
closed = 1;
nodes = (
"241 642 LINE",
"241 376 LINE",
"394 376 LINE",
"394 642 LINE"
);
}
);
width = 434;
},
{
layerId = "D7ED940C-AEED-448E-AD50-67D9ABA5AFA7";
paths = (
{
closed = 1;
nodes = (
"35 622 LINE",
"35 410 LINE",
"99 410 LINE",
"99 622 LINE"
);
},
{
closed = 1;
nodes = (
"155 622 LINE",
"155 410 LINE",
"219 410 LINE",
"219 622 LINE"
);
}
);
width = 254;
}
);
unicode = 0022;
},
{
glyphname = numbersign;
layers = (
{
layerId = "DEF7E4D1-2777-4333-B76D-D32E6812EDA5";
paths = (
{
closed = 1;
nodes = (
"216 641 LINE",
"71 0 LINE",
"217 0 LINE",
"361 641 LINE"
);
},
{
closed = 1;
nodes = (
"648 499 LINE",
"77 499 LINE",
"77 389 LINE",
"648 389 LINE"
);
},
{
closed = 1;
nodes = (
"462 0 LINE",
"607 641 LINE",
"461 641 LINE",
"317 0 LINE"
);
},
{
closed = 1;
nodes = (
"30 142 LINE",
"601 142 LINE",
"601 252 LINE",
"30 252 LINE"
);
}
);
width = 678;
},
{
layerId = "D7ED940C-AEED-448E-AD50-67D9ABA5AFA7";
paths = (
{
closed = 1;
nodes = (
"154 622 LINE",
"51 0 LINE",
"114 0 LINE",
"217 622 LINE"
);
},
{
closed = 1;
nodes = (
"418 456 LINE",
"60 456 LINE",
"60 398 LINE",
"418 398 LINE"
);
},
{
closed = 1;
nodes = (
"294 0 LINE",
"397 622 LINE",
"334 622 LINE",
"231 0 LINE"
);
},
{
closed = 1;
nodes = (
"30 166 LINE",
"388 166 LINE",
"388 224 LINE",
"30 224 LINE"
);
}
);
width = 448;
}
);
unicode = 0023;
},
{
glyphname = dollar;
layers = (
{
layerId = "DEF7E4D1-2777-4333-B76D-D32E6812EDA5";
paths = (
{
closed = 1;
nodes = (
"328 576 LINE",
"328 727 LINE",
"162 727 LINE",
"162 576 LINE"
);
},
{
closed = 1;
nodes = (
"328 -84 LINE",
"328 67 LINE",
"162 67 LINE",
"162 -84 LINE"
);
},
{
closed = 1;
nodes = (
"286 147 LINE SMOOTH",
"286 132 OFFCURVE",
"278 125 OFFCURVE",
"261 125 CURVE SMOOTH",
"232 125 LINE SMOOTH",
"215 125 OFFCURVE",
"207 132 OFFCURVE",
"207 147 CURVE SMOOTH",
"207 201 LINE",
"32 201 LINE",
"32 124 LINE SMOOTH",
"32 49 OFFCURVE",
"72 0 OFFCURVE",
"179 0 CURVE SMOOTH",
"315 0 LINE SMOOTH",
"422 0 OFFCURVE",
"461 49 OFFCURVE",
"461 124 CURVE SMOOTH",
"461 256 LINE SMOOTH",
"461 331 OFFCURVE",
"428 378 OFFCURVE",
"324 378 CURVE SMOOTH",
"230 378 LINE SMOOTH",
"213 378 OFFCURVE",
"205 385 OFFCURVE",
"205 400 CURVE SMOOTH",
"205 495 LINE SMOOTH",
"205 510 OFFCURVE",
"213 517 OFFCURVE",
"230 517 CURVE SMOOTH",
"259 517 LINE SMOOTH",
"276 517 OFFCURVE",
"284 510 OFFCURVE",
"284 495 CURVE SMOOTH",
"284 441 LINE",
"459 441 LINE",
"459 518 LINE SMOOTH",
"459 593 OFFCURVE",
"420 642 OFFCURVE",
"313 642 CURVE SMOOTH",
"176 642 LINE SMOOTH",
"69 642 OFFCURVE",
"30 593 OFFCURVE",
"30 518 CURVE SMOOTH",
"30 386 LINE SMOOTH",
"30 311 OFFCURVE",
"61 260 OFFCURVE",
"165 260 CURVE SMOOTH",
"261 260 LINE SMOOTH",
"278 260 OFFCURVE",
"286 253 OFFCURVE",
"286 238 CURVE SMOOTH"
);
}
);
width = 491;
},
{
layerId = "D7ED940C-AEED-448E-AD50-67D9ABA5AFA7";
paths = (
{
closed = 1;
nodes = (
"196 612 LINE",
"196 697 LINE",
"131 697 LINE",
"131 612 LINE"
);
},
{
closed = 1;
nodes = (
"196 -75 LINE",
"196 10 LINE",
"131 10 LINE",
"131 -75 LINE"
);
},
{
closed = 1;
nodes = (
"218 90 LINE",
"218 64 OFFCURVE",
"213 59 OFFCURVE",
"187 59 CURVE",
"142 59 LINE SMOOTH",
"116 59 OFFCURVE",
"111 64 OFFCURVE",
"111 90 CURVE SMOOTH",
"111 175 LINE",
"42 175 LINE",
"42 79 LINE SMOOTH",
"42 26 OFFCURVE",
"68 0 OFFCURVE",
"121 0 CURVE SMOOTH",
"208 0 LINE SMOOTH",
"261 0 OFFCURVE",
"287 26 OFFCURVE",
"287 79 CURVE SMOOTH",
"287 271 LINE SMOOTH",
"287 324 OFFCURVE",
"261 350 OFFCURVE",
"208 350 CURVE SMOOTH",
"140 350 LINE SMOOTH",
"114 350 OFFCURVE",
"109 355 OFFCURVE",
"109 381 CURVE SMOOTH",
"109 532 LINE SMOOTH",
"109 558 OFFCURVE",
"114 563 OFFCURVE",
"140 563 CURVE SMOOTH",
"186 563 LINE SMOOTH",
"212 563 OFFCURVE",
"217 558 OFFCURVE",
"217 532 CURVE SMOOTH",
"217 447 LINE",
"286 447 LINE",
"286 543 LINE SMOOTH",
"286 596 OFFCURVE",
"260 622 OFFCURVE",
"207 622 CURVE SMOOTH",
"119 622 LINE SMOOTH",
"66 622 OFFCURVE",
"40 596 OFFCURVE",
"40 543 CURVE SMOOTH",
"40 370 LINE SMOOTH",
"40 317 OFFCURVE",
"66 291 OFFCURVE",
"119 291 CURVE SMOOTH",
"187 291 LINE SMOOTH",
"213 291 OFFCURVE",
"218 286 OFFCURVE",
"218 260 CURVE SMOOTH"
);
}
);
width = 327;
}
);
unicode = 0024;
},
{
glyphname = percent;
layers = (
{
layerId = "DEF7E4D1-2777-4333-B76D-D32E6812EDA5";
paths = (
{
closed = 1;
nodes = (
"363 542 LINE SMOOTH",
"363 603 OFFCURVE",
"331 642 OFFCURVE",
"245 642 CURVE SMOOTH",
"143 642 LINE SMOOTH",
"57 642 OFFCURVE",
"25 603 OFFCURVE",
"25 542 CURVE SMOOTH",
"25 359 LINE SMOOTH",
"25 299 OFFCURVE",
"57 259 OFFCURVE",
"143 259 CURVE SMOOTH",
"245 259 LINE SMOOTH",
"331 259 OFFCURVE",
"363 299 OFFCURVE",
"363 359 CURVE SMOOTH"
);
},
{
closed = 1;
nodes = (
"873 283 LINE SMOOTH",
"873 344 OFFCURVE",
"841 383 OFFCURVE",
"755 383 CURVE SMOOTH",
"653 383 LINE SMOOTH",
"567 383 OFFCURVE",
"535 344 OFFCURVE",
"535 283 CURVE SMOOTH",
"535 100 LINE SMOOTH",
"535 40 OFFCURVE",
"567 0 OFFCURVE",
"653 0 CURVE SMOOTH",
"755 0 LINE SMOOTH",
"841 0 OFFCURVE",
"873 40 OFFCURVE",
"873 100 CURVE SMOOTH"
);
},
{
closed = 1;
nodes = (
"222 379 LINE SMOOTH",
"222 367 OFFCURVE",
"216 362 OFFCURVE",
"202 362 CURVE SMOOTH",
"186 362 LINE SMOOTH",
"172 362 OFFCURVE",
"166 367 OFFCURVE",
"166 379 CURVE SMOOTH",
"166 522 LINE SMOOTH",
"166 534 OFFCURVE",
"172 540 OFFCURVE",
"186 540 CURVE SMOOTH",
"202 540 LINE SMOOTH",
"216 540 OFFCURVE",
"222 534 OFFCURVE",
"222 522 CURVE SMOOTH"
);
},
{
closed = 1;
nodes = (
"732 120 LINE SMOOTH",
"732 108 OFFCURVE",
"726 103 OFFCURVE",
"712 103 CURVE SMOOTH",
"696 103 LINE SMOOTH",
"682 103 OFFCURVE",
"676 108 OFFCURVE",
"676 120 CURVE SMOOTH",
"676 263 LINE SMOOTH",
"676 275 OFFCURVE",
"682 281 OFFCURVE",
"696 281 CURVE SMOOTH",
"712 281 LINE SMOOTH",
"726 281 OFFCURVE",
"732 275 OFFCURVE",
"732 263 CURVE SMOOTH"
);
},
{
closed = 1;
nodes = (
"568 642 LINE",
"207 0 LINE",
"332 0 LINE",
"695 642 LINE"
);
}
);
width = 898;
},
{
layerId = "D7ED940C-AEED-448E-AD50-67D9ABA5AFA7";
paths = (
{
closed = 1;
nodes = (
"221 551 LINE",
"221 600 OFFCURVE",
"200 622 OFFCURVE",
"154 622 CURVE SMOOTH",
"97 622 LINE SMOOTH",
"51 622 OFFCURVE",
"30 600 OFFCURVE",
"30 551 CURVE SMOOTH",
"30 367 LINE SMOOTH",
"30 318 OFFCURVE",
"51 296 OFFCURVE",
"97 296 CURVE",
"154 296 LINE SMOOTH",
"200 296 OFFCURVE",
"221 318 OFFCURVE",
"221 367 CURVE SMOOTH"
);
},
{
closed = 1;
nodes = (
"543 255 LINE",
"543 304 OFFCURVE",
"522 326 OFFCURVE",
"476 326 CURVE",
"419 326 LINE",
"373 326 OFFCURVE",
"352 304 OFFCURVE",
"352 255 CURVE SMOOTH",
"352 71 LINE SMOOTH",
"352 22 OFFCURVE",
"373 0 OFFCURVE",
"419 0 CURVE SMOOTH",
"476 0 LINE SMOOTH",
"522 0 OFFCURVE",
"543 22 OFFCURVE",
"543 71 CURVE SMOOTH"
);
},
{
closed = 1;
nodes = (
"165 376 LINE",
"165 351 OFFCURVE",
"162 346 OFFCURVE",
"137 346 CURVE SMOOTH",
"114 346 LINE SMOOTH",
"89 346 OFFCURVE",
"86 351 OFFCURVE",
"86 376 CURVE SMOOTH",
"86 542 LINE SMOOTH",
"86 567 OFFCURVE",
"89 572 OFFCURVE",
"114 572 CURVE",
"137 572 LINE SMOOTH",
"162 572 OFFCURVE",
"165 567 OFFCURVE",
"165 542 CURVE SMOOTH"
);
},
{
closed = 1;
nodes = (
"487 80 LINE",
"487 55 OFFCURVE",
"484 50 OFFCURVE",
"459 50 CURVE",
"436 50 LINE",
"411 50 OFFCURVE",
"408 55 OFFCURVE",
"408 80 CURVE SMOOTH",
"408 246 LINE SMOOTH",
"408 271 OFFCURVE",
"411 276 OFFCURVE",
"436 276 CURVE SMOOTH",
"459 276 LINE SMOOTH",
"484 276 OFFCURVE",
"487 271 OFFCURVE",
"487 246 CURVE SMOOTH"
);
},
{
closed = 1;
nodes = (
"392 622 LINE",
"120 0 LINE",
"180 0 LINE",
"453 622 LINE"
);
}
);
width = 573;
}
);
unicode = 0025;
},
{
glyphname = ampersand;
layers = (
{
layerId = "DEF7E4D1-2777-4333-B76D-D32E6812EDA5";
paths = (
{
closed = 1;
nodes = (
"662 -36 LINE",
"305 345 LINE SMOOTH",
"247 407 OFFCURVE",
"236 408 OFFCURVE",
"236 443 CURVE SMOOTH",
"236 508 LINE SMOOTH",
"236 523 OFFCURVE",
"244 530 OFFCURVE",
"261 530 CURVE SMOOTH",
"284 530 LINE SMOOTH",
"301 530 OFFCURVE",
"309 523 OFFCURVE",
"309 508 CURVE SMOOTH",
"309 447 LINE SMOOTH",
"309 420 OFFCURVE",
"291 411 OFFCURVE",
"253 389 CURVE SMOOTH",
"124 316 LINE SMOOTH",
"54 277 OFFCURVE",
"30 251 OFFCURVE",
"30 182 CURVE SMOOTH",
"30 124 LINE SMOOTH",
"30 49 OFFCURVE",
"70 0 OFFCURVE",
"177 0 CURVE SMOOTH",
"442 0 LINE SMOOTH",
"549 0 OFFCURVE",
"597 49 OFFCURVE",
"597 124 CURVE SMOOTH",
"597 251 LINE",
"459 251 LINE",
"459 137 LINE SMOOTH",
"459 122 OFFCURVE",
"451 115 OFFCURVE",
"434 115 CURVE SMOOTH",
"220 115 LINE SMOOTH",
"203 115 OFFCURVE",
"195 122 OFFCURVE",
"195 137 CURVE SMOOTH",
"195 179 LINE SMOOTH",
"195 199 OFFCURVE",
"203 208 OFFCURVE",
"218 217 CURVE SMOOTH",
"369 303 LINE",
"437 344 OFFCURVE",
"474 371 OFFCURVE",
"474 450 CURVE SMOOTH",
"474 518 LINE SMOOTH",
"474 593 OFFCURVE",
"437 642 OFFCURVE",
"330 642 CURVE SMOOTH",
"213 642 LINE SMOOTH",
"106 642 OFFCURVE",
"66 593 OFFCURVE",
"66 518 CURVE SMOOTH",
"66 450 LINE SMOOTH",
"66 409 OFFCURVE",
"85 383 OFFCURVE",
"136 330 CURVE SMOOTH",
"488 -36 LINE"
);
}
);
width = 625;
},
{
layerId = "D7ED940C-AEED-448E-AD50-67D9ABA5AFA7";
paths = (
{
closed = 1;
nodes = (
"475 -35 LINE",
"195 322 LINE SMOOTH",
"171 353 OFFCURVE",
"128 395 OFFCURVE",
"128 434 CURVE SMOOTH",
"128 532 LINE",
"128 558 OFFCURVE",
"133 563 OFFCURVE",
"159 563 CURVE SMOOTH",
"211 563 LINE SMOOTH",
"237 563 OFFCURVE",
"242 558 OFFCURVE",
"242 532 CURVE SMOOTH",
"242 444 LINE SMOOTH",
"242 400 OFFCURVE",
"224 380 OFFCURVE",
"185 353 CURVE",
"92 281 LINE",
"53 254 OFFCURVE",
"40 233 OFFCURVE",
"40 195 CURVE SMOOTH",
"40 79 LINE SMOOTH",
"40 26 OFFCURVE",
"66 0 OFFCURVE",
"119 0 CURVE SMOOTH",
"311 0 LINE SMOOTH",
"364 0 OFFCURVE",
"390 26 OFFCURVE",
"390 79 CURVE SMOOTH",
"390 224 LINE",
"334 224 LINE",
"334 90 LINE SMOOTH",
"334 64 OFFCURVE",
"329 59 OFFCURVE",
"303 59 CURVE SMOOTH",
"139 59 LINE SMOOTH",
"113 59 OFFCURVE",
"108 64 OFFCURVE",
"108 90 CURVE SMOOTH",
"108 177 LINE SMOOTH",
"108 212 OFFCURVE",
"117 223 OFFCURVE",
"139 238 CURVE SMOOTH",
"241 311 LINE",
"286 340 OFFCURVE",
"310 374 OFFCURVE",
"310 444 CURVE SMOOTH",
"310 543 LINE SMOOTH",
"310 596 OFFCURVE",
"284 622 OFFCURVE",
"231 622 CURVE SMOOTH",
"139 622 LINE",
"86 622 OFFCURVE",
"60 596 OFFCURVE",
"60 543 CURVE SMOOTH",
"60 440 LINE SMOOTH",
"60 384 OFFCURVE",
"104 337 OFFCURVE",
"142 287 CURVE SMOOTH",
"400 -35 LINE"
);
}
);
width = 418;
}
);
unicode = 0026;
},
{
glyphname = quotesingle;
layers = (
{
layerId = "DEF7E4D1-2777-4333-B76D-D32E6812EDA5";
paths = (
{
closed = 1;
nodes = (
"40 642 LINE",
"40 376 LINE",
"203 376 LINE",
"203 642 LINE"
);
}
);
width = 243;
},
{
layerId = "D7ED940C-AEED-448E-AD50-67D9ABA5AFA7";
paths = (
{
closed = 1;
nodes = (
"35 622 LINE",
"35 410 LINE",
"104 410 LINE",
"104 622 LINE"
);
}
);
width = 139;
}
);
unicode = 0027;
},
{
glyphname = parenleft;
layers = (
{
layerId = "DEF7E4D1-2777-4333-B76D-D32E6812EDA5";
paths = (
{
closed = 1;
nodes = (
"40 141 LINE SMOOTH",
"40 -60 OFFCURVE",
"143 -166 OFFCURVE",
"318 -166 CURVE SMOOTH",
"327 -166 LINE",
"327 -21 LINE",
"318 -21 LINE SMOOTH",
"263 -21 OFFCURVE",
"215 14 OFFCURVE",
"215 138 CURVE SMOOTH",
"215 500 LINE SMOOTH",
"215 624 OFFCURVE",
"263 659 OFFCURVE",
"318 659 CURVE SMOOTH",
"327 659 LINE",
"327 804 LINE",
"318 804 LINE SMOOTH",
"143 804 OFFCURVE",
"40 698 OFFCURVE",
"40 497 CURVE SMOOTH"
);
}
);
width = 337;
},
{
layerId = "D7ED940C-AEED-448E-AD50-67D9ABA5AFA7";
paths = (
{
closed = 1;
nodes = (
"49 271 LINE",
"49 -14 OFFCURVE",
"112 -178 OFFCURVE",
"255 -178 CURVE SMOOTH",
"271 -178 LINE",
"271 -121 LINE",
"257 -120 LINE SMOOTH",
"146 -112 OFFCURVE",
"116 52 OFFCURVE",
"116 270 CURVE SMOOTH",
"116 343 LINE SMOOTH",
"116 561 OFFCURVE",
"146 725 OFFCURVE",
"257 733 CURVE SMOOTH",
"271 734 LINE",
"271 791 LINE",
"255 791 LINE SMOOTH",
"112 791 OFFCURVE",
"49 627 OFFCURVE",
"49 342 CURVE"
);
}
);
width = 245;
}
);
unicode = 0028;
},
{
glyphname = parenright;
layers = (
{
layerId = "DEF7E4D1-2777-4333-B76D-D32E6812EDA5";
paths = (
{
closed = 1;
nodes = (
"297 497 LINE SMOOTH",
"297 698 OFFCURVE",
"194 804 OFFCURVE",
"19 804 CURVE SMOOTH",
"10 804 LINE",
"10 659 LINE",
"19 659 LINE SMOOTH",
"74 659 OFFCURVE",
"122 624 OFFCURVE",
"122 500 CURVE SMOOTH",
"122 138 LINE SMOOTH",
"122 14 OFFCURVE",
"74 -21 OFFCURVE",
"19 -21 CURVE SMOOTH",
"10 -21 LINE",
"10 -166 LINE",
"19 -166 LINE SMOOTH",
"194 -166 OFFCURVE",
"297 -60 OFFCURVE",
"297 141 CURVE SMOOTH"
);
}
);
width = 337;
},
{
layerId = "D7ED940C-AEED-448E-AD50-67D9ABA5AFA7";
paths = (
{
closed = 1;
nodes = (
"193 342 LINE",
"193 627 OFFCURVE",
"130 791 OFFCURVE",
"-13 791 CURVE SMOOTH",
"-29 791 LINE",
"-29 734 LINE",
"-15 733 LINE SMOOTH",
"96 725 OFFCURVE",
"126 561 OFFCURVE",
"126 343 CURVE SMOOTH",
"126 270 LINE SMOOTH",
"126 52 OFFCURVE",
"96 -112 OFFCURVE",
"-15 -120 CURVE SMOOTH",
"-29 -121 LINE",
"-29 -178 LINE",
"-13 -178 LINE SMOOTH",
"130 -178 OFFCURVE",
"193 -14 OFFCURVE",
"193 271 CURVE"
);
}
);
width = 245;
}
);
unicode = 0029;
},
{
glyphname = asterisk;
layers = (
{
layerId = "DEF7E4D1-2777-4333-B76D-D32E6812EDA5";
paths = (
{
closed = 1;
nodes = (
"211 476 LINE",
"211 476 OFFCURVE",
"258 526 OFFCURVE",
"258 625 CURVE SMOOTH",
"258 642 LINE",
"133 642 LINE",
"133 626 LINE SMOOTH",
"133 526 OFFCURVE",
"180 476 OFFCURVE",
"180 476 CURVE"
);
},
{
closed = 1;
nodes = (
"200 491 LINE",
"200 491 OFFCURVE",
"167 551 OFFCURVE",
"73 581 CURVE SMOOTH",
"57 586 LINE",
"18 468 LINE",
"33 463 LINE SMOOTH",
"129 431 OFFCURVE",
"191 461 OFFCURVE",
"191 461 CURVE"
);
},
{
closed = 1;
nodes = (
"183 485 LINE",
"183 485 OFFCURVE",
"115 471 OFFCURVE",
"58 392 CURVE SMOOTH",
"47 377 LINE",
"148 304 LINE",
"158 317 LINE SMOOTH",
"217 398 OFFCURVE",
"208 467 OFFCURVE",
"208 467 CURVE"
);
},
{
closed = 1;
nodes = (
"183 467 LINE",
"183 467 OFFCURVE",
"176 398 OFFCURVE",
"233 319 CURVE",
"244 305 LINE",
"345 378 LINE",
"335 391 LINE",
"277 472 OFFCURVE",
"208 485 OFFCURVE",
"208 485 CURVE"
);
},
{
closed = 1;
nodes = (
"200 461 LINE",
"200 461 OFFCURVE",
"264 432 OFFCURVE",
"357 463 CURVE",
"373 469 LINE",
"335 587 LINE",
"319 582 LINE SMOOTH",
"224 552 OFFCURVE",
"191 491 OFFCURVE",
"191 491 CURVE"
);
}
);
width = 390;
},
{
layerId = "D7ED940C-AEED-448E-AD50-67D9ABA5AFA7";
paths = (
{
closed = 1;
nodes = (
"166 489 LINE",
"166 489 OFFCURVE",
"182 521 OFFCURVE",
"182 581 CURVE SMOOTH",
"182 622 LINE",
"120 622 LINE",
"120 581 LINE SMOOTH",
"120 521 OFFCURVE",
"136 489 OFFCURVE",
"136 489 CURVE"
);
},
{
closed = 1;
nodes = (
"156 503 LINE",
"156 503 OFFCURVE",
"130 528 OFFCURVE",
"73 547 CURVE SMOOTH",
"34 560 LINE",
"15 501 LINE",
"54 488 LINE SMOOTH",
"111 469 OFFCURVE",
"146 475 OFFCURVE",
"146 475 CURVE"
);
},
{
closed = 1;
nodes = (
"139 498 LINE",
"139 498 OFFCURVE",
"107 481 OFFCURVE",
"72 433 CURVE SMOOTH",
"47 400 LINE",
"98 363 LINE",
"122 396 LINE SMOOTH",
"158 445 OFFCURVE",
"163 480 OFFCURVE",
"163 480 CURVE"
);
},
{
closed = 1;
nodes = (
"139 480 LINE",
"139 480 OFFCURVE",
"145 445 OFFCURVE",
"180 397 CURVE SMOOTH",
"204 363 LINE",
"254 400 LINE",
"230 433 LINE SMOOTH",
"195 482 OFFCURVE",
"163 498 OFFCURVE",
"163 498 CURVE"
);
},
{
closed = 1;
nodes = (
"156 475 LINE",
"156 475 OFFCURVE",
"191 470 OFFCURVE",
"247 488 CURVE SMOOTH",
"287 500 LINE",
"267 559 LINE",
"229 547 LINE SMOOTH",
"171 529 OFFCURVE",
"146 503 OFFCURVE",
"146 503 CURVE"
);
}
);
width = 302;
}
);
unicode = 002A;
},
{
glyphname = plus;
layers = (
{
layerId = "DEF7E4D1-2777-4333-B76D-D32E6812EDA5";
paths = (
{
closed = 1;
nodes = (
"15 257 LINE",
"498 257 LINE",
"498 382 LINE",
"15 382 LINE"
);
},
{
closed = 1;
nodes = (
"175 537 LINE",
"175 102 LINE",
"338 102 LINE",
"338 537 LINE"
);
}
);
width = 513;
},
{
layerId = "D7ED940C-AEED-448E-AD50-67D9ABA5AFA7";
paths = (
{
closed = 1;
nodes = (
"25 281 LINE",
"355 281 LINE",
"355 341 LINE",
"25 341 LINE"
);
},
{
closed = 1;
nodes = (
"155 491 LINE",
"155 131 LINE",
"225 131 LINE",
"225 491 LINE"
);
}
);
width = 380;
}
);
unicode = 002B;
},
{
glyphname = comma;
layers = (
{
layerId = "DEF7E4D1-2777-4333-B76D-D32E6812EDA5";
paths = (
{
closed = 1;
nodes = (
"40 164 LINE",
"40 -149 LINE",
"92 -149 LINE",
"212 74 LINE",
"212 164 LINE"
);
}
);
width = 252;
},
{
layerId = "D7ED940C-AEED-448E-AD50-67D9ABA5AFA7";
paths = (
{
closed = 1;
nodes = (
"30 112 LINE",
"30 -137 LINE",
"57 -137 LINE",
"112 54 LINE",
"112 112 LINE"
);
}
);
width = 142;
}
);
unicode = 002C;
},
{
glyphname = hyphen;
layers = (
{
layerId = "DEF7E4D1-2777-4333-B76D-D32E6812EDA5";
paths = (
{
closed = 1;
nodes = (
"20 245 LINE",
"323 245 LINE",
"323 360 LINE",
"20 360 LINE"
);
}
);
width = 343;
},
{
layerId = "D7ED940C-AEED-448E-AD50-67D9ABA5AFA7";
paths = (
{
closed = 1;
nodes = (
"55 263 LINE",
"251 263 LINE",
"251 321 LINE",
"55 321 LINE"
);
}
);
width = 307;
}
);
unicode = 002D;
},
{
glyphname = period;
layers = (
{
layerId = "DEF7E4D1-2777-4333-B76D-D32E6812EDA5";
paths = (
{
closed = 1;
nodes = (
"40 0 LINE",
"212 0 LINE",
"212 164 LINE",
"40 164 LINE"
);
}
);
width = 252;
},
{
layerId = "D7ED940C-AEED-448E-AD50-67D9ABA5AFA7";
paths = (
{
closed = 1;
nodes = (
"30 0 LINE",
"112 0 LINE",
"112 112 LINE",
"30 112 LINE"
);
}
);
width = 142;
}
);
unicode = 002E;
},
{
glyphname = slash;
layers = (
{
layerId = "DEF7E4D1-2777-4333-B76D-D32E6812EDA5";
paths = (
{
closed = 1;
nodes = (
"287 702 LINE",
"-20 -60 LINE",
"124 -60 LINE",
"431 702 LINE"
);
}
);
width = 411;
},
{
layerId = "D7ED940C-AEED-448E-AD50-67D9ABA5AFA7";
paths = (
{
closed = 1;
nodes = (
"272 699 LINE",
"8 -136 LINE",
"76 -136 LINE",
"340 699 LINE"
);
}
);
width = 384;
}
);
unicode = 002F;
},
{
glyphname = zero;
layers = (
{
layerId = "DEF7E4D1-2777-4333-B76D-D32E6812EDA5";
paths = (
{
closed = 1;
nodes = (
"464 518 LINE SMOOTH",
"464 593 OFFCURVE",
"424 642 OFFCURVE",
"317 642 CURVE SMOOTH",
"184 642 LINE SMOOTH",
"77 642 OFFCURVE",
"37 593 OFFCURVE",
"37 518 CURVE SMOOTH",
"37 124 LINE SMOOTH",
"37 49 OFFCURVE",
"77 0 OFFCURVE",
"184 0 CURVE SMOOTH",
"317 0 LINE SMOOTH",
"424 0 OFFCURVE",
"464 49 OFFCURVE",
"464 124 CURVE SMOOTH"
);
},
{
closed = 1;
nodes = (
"289 147 LINE SMOOTH",
"289 132 OFFCURVE",
"281 125 OFFCURVE",
"264 125 CURVE SMOOTH",
"237 125 LINE SMOOTH",
"220 125 OFFCURVE",
"212 132 OFFCURVE",
"212 147 CURVE SMOOTH",
"212 495 LINE SMOOTH",
"212 510 OFFCURVE",
"220 517 OFFCURVE",
"237 517 CURVE SMOOTH",
"264 517 LINE SMOOTH",
"281 517 OFFCURVE",
"289 510 OFFCURVE",
"289 495 CURVE SMOOTH"
);
}
);
width = 501;
},
{
layerId = "D7ED940C-AEED-448E-AD50-67D9ABA5AFA7";
paths = (
{
closed = 1;
nodes = (
"311 543 LINE",
"311 596 OFFCURVE",
"285 622 OFFCURVE",
"232 622 CURVE SMOOTH",
"129 622 LINE SMOOTH",
"76 622 OFFCURVE",
"50 596 OFFCURVE",
"50 543 CURVE SMOOTH",
"50 79 LINE SMOOTH",
"50 26 OFFCURVE",
"76 0 OFFCURVE",
"129 0 CURVE",
"232 0 LINE SMOOTH",
"285 0 OFFCURVE",
"311 26 OFFCURVE",
"311 79 CURVE SMOOTH"
);
},
{
closed = 1;
nodes = (
"242 90 LINE",
"242 64 OFFCURVE",
"237 59 OFFCURVE",
"211 59 CURVE SMOOTH",
"150 59 LINE SMOOTH",
"124 59 OFFCURVE",
"119 64 OFFCURVE",
"119 90 CURVE",
"119 532 LINE SMOOTH",
"119 558 OFFCURVE",
"124 563 OFFCURVE",
"150 563 CURVE SMOOTH",
"211 563 LINE SMOOTH",
"237 563 OFFCURVE",
"242 558 OFFCURVE",
"242 532 CURVE SMOOTH"
);
}
);
width = 361;
}
);
unicode = 0030;
},
{
glyphname = one;
layers = (
{
layerId = "DEF7E4D1-2777-4333-B76D-D32E6812EDA5";
paths = (
{
closed = 1;
nodes = (
"224 642 LINE",
"18 642 LINE",
"18 517 LINE",
"224 517 LINE"
);
},
{
closed = 1;
nodes = (
"108 642 LINE",
"108 0 LINE",
"283 0 LINE",
"283 642 LINE"
);
}
);
width = 323;
},
{
layerId = "D7ED940C-AEED-448E-AD50-67D9ABA5AFA7";
paths = (
{
closed = 1;
nodes = (
"115 622 LINE",
"20 622 LINE",
"20 563 LINE",
"115 563 LINE"
);
},
{
closed = 1;
nodes = (
"88 622 LINE",
"88 0 LINE",
"156 0 LINE",
"156 622 LINE"
);
}
);
width = 211;
}
);
unicode = 0031;
},
{
glyphname = two;
layers = (
{
layerId = "DEF7E4D1-2777-4333-B76D-D32E6812EDA5";
paths = (
{
closed = 1;
nodes = (
"198 495 LINE SMOOTH",
"198 510 OFFCURVE",
"206 517 OFFCURVE",
"223 517 CURVE SMOOTH",
"243 517 LINE SMOOTH",
"260 517 OFFCURVE",
"268 510 OFFCURVE",
"268 495 CURVE SMOOTH",
"268 427 LINE SMOOTH",
"268 383 OFFCURVE",
"258 360 OFFCURVE",
"218 318 CURVE SMOOTH",
"28 114 LINE",
"28 0 LINE",
"440 0 LINE",
"440 125 LINE",
"246 125 LINE",
"370 264 LINE SMOOTH",
"416 315 OFFCURVE",
"440 356 OFFCURVE",
"440 426 CURVE SMOOTH",
"440 518 LINE SMOOTH",
"440 593 OFFCURVE",
"398 642 OFFCURVE",
"291 642 CURVE SMOOTH",
"170 642 LINE SMOOTH",
"63 642 OFFCURVE",
"23 593 OFFCURVE",
"23 518 CURVE SMOOTH",
"23 422 LINE",
"198 422 LINE"
);
}
);
width = 469;
},
{
layerId = "D7ED940C-AEED-448E-AD50-67D9ABA5AFA7";
paths = (
{
closed = 1;
nodes = (
"93 532 LINE",
"93 558 OFFCURVE",
"98 563 OFFCURVE",
"124 563 CURVE",
"160 563 LINE SMOOTH",
"186 563 OFFCURVE",
"191 558 OFFCURVE",
"191 532 CURVE SMOOTH",
"191 492 LINE SMOOTH",
"191 444 OFFCURVE",
"186 411 OFFCURVE",
"168 369 CURVE",
"26 58 LINE",
"26 0 LINE",
"265 0 LINE",
"265 59 LINE",
"97 59 LINE",
"234 358 LINE",
"254 405 OFFCURVE",
"260 439 OFFCURVE",
"260 488 CURVE SMOOTH",
"260 543 LINE SMOOTH",
"260 596 OFFCURVE",
"234 622 OFFCURVE",
"181 622 CURVE SMOOTH",
"104 622 LINE SMOOTH",
"51 622 OFFCURVE",
"25 596 OFFCURVE",
"25 543 CURVE SMOOTH",
"25 422 LINE",
"93 422 LINE"
);
}
);
width = 290;
}
);
unicode = 0032;
},
{
glyphname = three;
layers = (
{
layerId = "DEF7E4D1-2777-4333-B76D-D32E6812EDA5";
paths = (
{
closed = 1;
nodes = (
"200 495 LINE SMOOTH",
"200 510 OFFCURVE",
"208 517 OFFCURVE",
"225 517 CURVE SMOOTH",
"245 517 LINE SMOOTH",
"262 517 OFFCURVE",
"270 510 OFFCURVE",
"270 495 CURVE SMOOTH",
"270 405 LINE SMOOTH",
"270 390 OFFCURVE",
"262 383 OFFCURVE",
"245 383 CURVE SMOOTH",
"164 383 LINE",
"164 268 LINE",
"245 268 LINE SMOOTH",
"262 268 OFFCURVE",
"270 261 OFFCURVE",
"270 246 CURVE SMOOTH",
"270 147 LINE SMOOTH",
"270 132 OFFCURVE",
"262 125 OFFCURVE",
"245 125 CURVE SMOOTH",
"225 125 LINE SMOOTH",
"208 125 OFFCURVE",
"200 132 OFFCURVE",
"200 147 CURVE SMOOTH",
"200 210 LINE",
"25 210 LINE",
"25 124 LINE SMOOTH",
"25 49 OFFCURVE",
"65 0 OFFCURVE",
"172 0 CURVE SMOOTH",
"295 0 LINE SMOOTH",
"402 0 OFFCURVE",
"442 49 OFFCURVE",
"442 124 CURVE SMOOTH",
"442 224 LINE SMOOTH",
"442 275 OFFCURVE",
"433 310 OFFCURVE",
"394 327 CURVE",
"433 348 OFFCURVE",
"442 388 OFFCURVE",
"442 440 CURVE SMOOTH",
"442 518 LINE SMOOTH",
"442 593 OFFCURVE",
"402 642 OFFCURVE",
"295 642 CURVE SMOOTH",
"172 642 LINE SMOOTH",
"65 642 OFFCURVE",
"25 593 OFFCURVE",
"25 518 CURVE SMOOTH",
"25 432 LINE",
"200 432 LINE"
);
}
);
width = 477;
},
{
layerId = "D7ED940C-AEED-448E-AD50-67D9ABA5AFA7";
paths = (
{
closed = 1;
nodes = (
"98 532 LINE",
"98 558 OFFCURVE",
"103 563 OFFCURVE",
"129 563 CURVE SMOOTH",
"173 563 LINE SMOOTH",
"199 563 OFFCURVE",
"204 558 OFFCURVE",
"204 532 CURVE SMOOTH",
"204 376 LINE SMOOTH",
"204 350 OFFCURVE",
"199 345 OFFCURVE",
"173 345 CURVE SMOOTH",
"100 345 LINE",
"100 285 LINE",
"173 285 LINE SMOOTH",
"199 285 OFFCURVE",
"204 280 OFFCURVE",
"204 254 CURVE SMOOTH",
"204 90 LINE SMOOTH",
"204 64 OFFCURVE",
"199 59 OFFCURVE",
"173 59 CURVE SMOOTH",
"129 59 LINE SMOOTH",
"103 59 OFFCURVE",
"98 64 OFFCURVE",
"98 90 CURVE SMOOTH",
"98 191 LINE",
"30 191 LINE",
"30 79 LINE SMOOTH",
"30 26 OFFCURVE",
"56 0 OFFCURVE",
"109 0 CURVE SMOOTH",
"193 0 LINE SMOOTH",
"246 0 OFFCURVE",
"272 26 OFFCURVE",
"272 79 CURVE SMOOTH",
"272 269 LINE SMOOTH",
"272 298 OFFCURVE",
"258 312 OFFCURVE",
"235 316 CURVE",
"258 318 OFFCURVE",
"272 335 OFFCURVE",
"272 364 CURVE SMOOTH",
"272 543 LINE SMOOTH",
"272 596 OFFCURVE",
"246 622 OFFCURVE",
"193 622 CURVE",
"109 622 LINE SMOOTH",
"56 622 OFFCURVE",
"30 596 OFFCURVE",
"30 543 CURVE SMOOTH",
"30 430 LINE",
"98 430 LINE"
);
}
);
width = 322;
}
);
unicode = 0033;
},
{
glyphname = four;
layers = (
{
layerId = "DEF7E4D1-2777-4333-B76D-D32E6812EDA5";
paths = (
{
closed = 1;
nodes = (
"57 115 LINE",
"507 115 LINE",
"507 242 LINE",
"57 242 LINE"
);
},
{
closed = 1;
nodes = (
"10 115 LINE",
"87 115 LINE",
"427 642 LINE",
"251 642 LINE",
"10 270 LINE"
);
},
{
closed = 1;
nodes = (
"275 369 LINE",
"275 0 LINE",
"439 0 LINE",
"439 369 LINE"
);
}
);
width = 507;
},
{
layerId = "D7ED940C-AEED-448E-AD50-67D9ABA5AFA7";
paths = (
{
closed = 1;
nodes = (
"38 127 LINE",
"325 127 LINE",
"325 186 LINE",
"38 186 LINE"
);
},
{
closed = 1;
nodes = (
"5 127 LINE",
"53 127 LINE",
"236 622 LINE",
"169 622 LINE",
"5 180 LINE"
);
},
{
closed = 1;
nodes = (
"206 304 LINE",
"206 0 LINE",
"272 0 LINE",
"272 304 LINE"
);
}
);
width = 325;
}
);
unicode = 0034;
},
{
glyphname = five;
layers = (
{
layerId = "DEF7E4D1-2777-4333-B76D-D32E6812EDA5";
paths = (
{
closed = 1;
nodes = (
"215 225 LINE",
"40 225 LINE",
"40 124 LINE SMOOTH",
"40 49 OFFCURVE",
"80 0 OFFCURVE",
"187 0 CURVE SMOOTH",
"321 0 LINE SMOOTH",
"428 0 OFFCURVE",
"468 49 OFFCURVE",
"468 124 CURVE SMOOTH",
"468 299 LINE SMOOTH",
"468 374 OFFCURVE",
"428 423 OFFCURVE",
"321 423 CURVE SMOOTH",
"151 423 LINE",
"151 298 LINE",
"271 298 LINE SMOOTH",
"288 298 OFFCURVE",
"296 291 OFFCURVE",
"296 276 CURVE SMOOTH",
"296 147 LINE SMOOTH",
"296 132 OFFCURVE",
"288 125 OFFCURVE",
"271 125 CURVE SMOOTH",
"240 125 LINE SMOOTH",
"223 125 OFFCURVE",
"215 132 OFFCURVE",
"215 147 CURVE SMOOTH"
);
},
{
closed = 1;
nodes = (
"220 298 LINE",
"220 517 LINE",
"458 517 LINE",
"458 642 LINE",
"48 642 LINE",
"48 298 LINE"
);
}
);
width = 498;
},
{
layerId = "D7ED940C-AEED-448E-AD50-67D9ABA5AFA7";
paths = (
{
closed = 1;
nodes = (
"109 192 LINE",
"40 192 LINE",
"40 79 LINE SMOOTH",
"40 26 OFFCURVE",
"66 0 OFFCURVE",
"119 0 CURVE SMOOTH",
"205 0 LINE SMOOTH",
"258 0 OFFCURVE",
"284 26 OFFCURVE",
"284 79 CURVE SMOOTH",
"284 304 LINE SMOOTH",
"284 357 OFFCURVE",
"258 383 OFFCURVE",
"205 383 CURVE SMOOTH",
"83 383 LINE",
"83 324 LINE",
"184 324 LINE SMOOTH",
"210 324 OFFCURVE",
"215 319 OFFCURVE",
"215 293 CURVE SMOOTH",
"215 90 LINE SMOOTH",
"215 64 OFFCURVE",
"210 59 OFFCURVE",
"184 59 CURVE SMOOTH",
"140 59 LINE SMOOTH",
"114 59 OFFCURVE",
"109 64 OFFCURVE",
"109 90 CURVE SMOOTH"
);
},
{
closed = 1;
nodes = (
"109 324 LINE",
"109 563 LINE",
"284 563 LINE",
"284 622 LINE",
"40 622 LINE",
"40 324 LINE"
);
}
);
width = 321;
}
);
unicode = 0035;
},
{
glyphname = six;
layers = (
{
layerId = "DEF7E4D1-2777-4333-B76D-D32E6812EDA5";
paths = (
{
closed = 1;
nodes = (
"294 147 LINE SMOOTH",
"294 132 OFFCURVE",
"286 125 OFFCURVE",
"269 125 CURVE SMOOTH",
"246 125 LINE",
"246 0 LINE",
"317 0 LINE SMOOTH",
"424 0 OFFCURVE",
"464 49 OFFCURVE",
"464 124 CURVE SMOOTH",
"464 261 LINE SMOOTH",
"464 336 OFFCURVE",
"424 385 OFFCURVE",
"317 385 CURVE SMOOTH",
"164 385 LINE",
"164 265 LINE",
"269 265 LINE SMOOTH",
"286 265 OFFCURVE",
"294 258 OFFCURVE",
"294 243 CURVE SMOOTH"
);
},
{
closed = 1;
nodes = (
"207 495 LINE SMOOTH",
"207 510 OFFCURVE",
"215 517 OFFCURVE",
"232 517 CURVE SMOOTH",
"255 517 LINE",
"255 642 LINE",
"184 642 LINE SMOOTH",
"77 642 OFFCURVE",
"37 593 OFFCURVE",
"37 518 CURVE SMOOTH",
"37 124 LINE SMOOTH",
"37 49 OFFCURVE",
"77 0 OFFCURVE",
"184 0 CURVE SMOOTH",
"255 0 LINE",
"255 125 LINE",
"232 125 LINE SMOOTH",
"215 125 OFFCURVE",
"207 132 OFFCURVE",
"207 147 CURVE SMOOTH"
);
},
{
closed = 1;
nodes = (
"284 446 LINE",
"454 446 LINE",
"454 518 LINE SMOOTH",
"454 593 OFFCURVE",
"414 642 OFFCURVE",
"307 642 CURVE SMOOTH",
"240 642 LINE",
"240 517 LINE",
"259 517 LINE SMOOTH",
"276 517 OFFCURVE",
"284 510 OFFCURVE",
"284 495 CURVE SMOOTH"
);
}
);
width = 494;
},
{
layerId = "D7ED940C-AEED-448E-AD50-67D9ABA5AFA7";
paths = (
{
closed = 1;
nodes = (
"238 90 LINE",
"238 64 OFFCURVE",
"233 59 OFFCURVE",
"207 59 CURVE SMOOTH",
"174 59 LINE",
"174 0 LINE",
"228 0 LINE SMOOTH",
"281 0 OFFCURVE",
"307 26 OFFCURVE",
"307 79 CURVE SMOOTH",
"307 274 LINE SMOOTH",
"307 327 OFFCURVE",
"281 353 OFFCURVE",
"228 353 CURVE SMOOTH",
"94 353 LINE",
"94 294 LINE",
"207 294 LINE SMOOTH",
"233 294 OFFCURVE",
"238 289 OFFCURVE",
"238 263 CURVE SMOOTH"
);
},
{
closed = 1;
nodes = (
"119 532 LINE",
"119 558 OFFCURVE",
"124 563 OFFCURVE",
"150 563 CURVE SMOOTH",
"182 563 LINE",
"182 622 LINE",
"129 622 LINE SMOOTH",
"76 622 OFFCURVE",
"50 596 OFFCURVE",
"50 543 CURVE SMOOTH",
"50 79 LINE SMOOTH",
"50 26 OFFCURVE",
"76 0 OFFCURVE",
"129 0 CURVE SMOOTH",
"183 0 LINE",
"183 59 LINE",
"150 59 LINE SMOOTH",
"124 59 OFFCURVE",
"119 64 OFFCURVE",
"119 90 CURVE SMOOTH"
);
},
{
closed = 1;
nodes = (
"238 426 LINE",
"306 426 LINE",
"306 543 LINE SMOOTH",
"306 596 OFFCURVE",
"280 622 OFFCURVE",
"227 622 CURVE SMOOTH",
"171 622 LINE",
"171 563 LINE",
"207 563 LINE SMOOTH",
"233 563 OFFCURVE",
"238 558 OFFCURVE",
"238 532 CURVE SMOOTH"
);
}
);
width = 352;
}
);
unicode = 0036;
},
{
glyphname = seven;
layers = (
{
layerId = "DEF7E4D1-2777-4333-B76D-D32E6812EDA5";
paths = (
{
closed = 1;
nodes = (
"379 642 LINE",
"10 642 LINE",
"10 507 LINE",
"379 507 LINE"
);
},
{
closed = 1;
nodes = (
"417 642 LINE",
"280 642 LINE",
"41 0 LINE",
"222 0 LINE",
"417 547 LINE"
);
}
);
width = 422;
},
{
layerId = "D7ED940C-AEED-448E-AD50-67D9ABA5AFA7";
paths = (
{
closed = 1;
nodes = (
"224 622 LINE",
"5 622 LINE",
"5 563 LINE",
"224 563 LINE"
);
},
{
closed = 1;
nodes = (
"251 622 LINE",
"193 622 LINE",
"22 0 LINE",
"90 0 LINE",
"251 576 LINE"
);
}
);
width = 256;
}
);
unicode = 0037;
},
{
glyphname = eight;
layers = (
{
layerId = "DEF7E4D1-2777-4333-B76D-D32E6812EDA5";
paths = (
{
closed = 1;
nodes = (
"202 251 LINE SMOOTH",
"202 266 OFFCURVE",
"210 273 OFFCURVE",
"227 273 CURVE SMOOTH",
"251 273 LINE",
"251 378 LINE",
"227 378 LINE SMOOTH",
"210 378 OFFCURVE",
"202 385 OFFCURVE",
"202 400 CURVE SMOOTH",
"202 497 LINE SMOOTH",
"202 512 OFFCURVE",
"210 519 OFFCURVE",
"227 519 CURVE SMOOTH",
"255 519 LINE",
"255 642 LINE",
"182 642 LINE SMOOTH",
"75 642 OFFCURVE",
"35 593 OFFCURVE",
"35 518 CURVE SMOOTH",
"35 440 LINE SMOOTH",
"35 388 OFFCURVE",
"44 348 OFFCURVE",
"82 327 CURVE",
"44 310 OFFCURVE",
"35 275 OFFCURVE",
"35 224 CURVE SMOOTH",
"35 124 LINE SMOOTH",
"35 49 OFFCURVE",
"75 0 OFFCURVE",
"182 0 CURVE SMOOTH",
"258 0 LINE",
"258 123 LINE",
"227 123 LINE SMOOTH",
"210 123 OFFCURVE",
"202 130 OFFCURVE",
"202 145 CURVE SMOOTH"
);
},
{
closed = 1;
nodes = (
"296 400 LINE SMOOTH",
"296 385 OFFCURVE",
"288 378 OFFCURVE",
"271 378 CURVE SMOOTH",
"246 378 LINE",
"246 273 LINE",
"271 273 LINE SMOOTH",
"288 273 OFFCURVE",
"296 266 OFFCURVE",
"296 251 CURVE SMOOTH",
"296 145 LINE SMOOTH",
"296 130 OFFCURVE",
"288 123 OFFCURVE",
"271 123 CURVE SMOOTH",
"253 123 LINE",
"253 0 LINE",
"316 0 LINE SMOOTH",
"423 0 OFFCURVE",
"463 49 OFFCURVE",
"463 124 CURVE SMOOTH",
"463 224 LINE SMOOTH",
"463 275 OFFCURVE",
"454 310 OFFCURVE",
"415 327 CURVE",
"454 348 OFFCURVE",
"463 388 OFFCURVE",
"463 440 CURVE SMOOTH",
"463 518 LINE SMOOTH",
"463 593 OFFCURVE",
"423 642 OFFCURVE",
"316 642 CURVE SMOOTH",
"250 642 LINE",
"250 519 LINE",
"271 519 LINE SMOOTH",
"288 519 OFFCURVE",
"296 512 OFFCURVE",
"296 497 CURVE SMOOTH"
);
}
);
width = 498;
},
{
layerId = "D7ED940C-AEED-448E-AD50-67D9ABA5AFA7";
paths = (
{
closed = 1;
nodes = (
"118 252 LINE",
"118 278 OFFCURVE",
"123 283 OFFCURVE",
"149 283 CURVE SMOOTH",
"186 283 LINE",
"186 343 LINE",
"149 343 LINE SMOOTH",
"123 343 OFFCURVE",
"118 348 OFFCURVE",
"118 374 CURVE SMOOTH",
"118 532 LINE SMOOTH",
"118 558 OFFCURVE",
"123 563 OFFCURVE",
"149 563 CURVE SMOOTH",
"183 563 LINE",
"183 622 LINE",
"129 622 LINE SMOOTH",
"76 622 OFFCURVE",
"50 596 OFFCURVE",
"50 543 CURVE SMOOTH",
"50 360 LINE SMOOTH",
"50 331 OFFCURVE",
"64 314 OFFCURVE",
"87 312 CURVE",
"64 308 OFFCURVE",
"50 294 OFFCURVE",
"50 265 CURVE SMOOTH",
"50 79 LINE SMOOTH",
"50 26 OFFCURVE",
"76 0 OFFCURVE",
"129 0 CURVE SMOOTH",
"180 0 LINE",
"180 59 LINE",
"149 59 LINE SMOOTH",
"123 59 OFFCURVE",
"118 64 OFFCURVE",
"118 90 CURVE SMOOTH"
);
},
{
closed = 1;
nodes = (
"242 374 LINE",
"242 348 OFFCURVE",
"237 343 OFFCURVE",
"211 343 CURVE SMOOTH",
"174 343 LINE",
"174 283 LINE",
"211 283 LINE SMOOTH",
"237 283 OFFCURVE",
"242 278 OFFCURVE",
"242 252 CURVE SMOOTH",
"242 90 LINE SMOOTH",
"242 64 OFFCURVE",
"237 59 OFFCURVE",
"211 59 CURVE SMOOTH",
"170 59 LINE",
"170 0 LINE",
"231 0 LINE SMOOTH",
"284 0 OFFCURVE",
"310 26 OFFCURVE",
"310 79 CURVE SMOOTH",
"310 265 LINE SMOOTH",
"310 294 OFFCURVE",
"296 308 OFFCURVE",
"273 312 CURVE",
"296 314 OFFCURVE",
"310 331 OFFCURVE",
"310 360 CURVE SMOOTH",
"310 543 LINE SMOOTH",
"310 596 OFFCURVE",
"284 622 OFFCURVE",
"231 622 CURVE SMOOTH",
"177 622 LINE",
"177 563 LINE",
"211 563 LINE SMOOTH",
"237 563 OFFCURVE",
"242 558 OFFCURVE",
"242 532 CURVE SMOOTH"
);
}
);
width = 360;
}
);
unicode = 0038;
},
{
glyphname = nine;
layers = (
{
layerId = "DEF7E4D1-2777-4333-B76D-D32E6812EDA5";
paths = (
{
closed = 1;
nodes = (
"200 495 LINE SMOOTH",
"200 510 OFFCURVE",
"208 517 OFFCURVE",
"225 517 CURVE SMOOTH",
"248 517 LINE",
"248 642 LINE",
"177 642 LINE SMOOTH",
"70 642 OFFCURVE",
"30 593 OFFCURVE",
"30 518 CURVE SMOOTH",
"30 371 LINE SMOOTH",
"30 296 OFFCURVE",
"70 247 OFFCURVE",
"177 247 CURVE SMOOTH",
"330 247 LINE",
"330 362 LINE",
"225 362 LINE SMOOTH",
"208 362 OFFCURVE",
"200 369 OFFCURVE",
"200 384 CURVE SMOOTH"
);
},
{
closed = 1;
nodes = (
"287 147 LINE SMOOTH",
"287 132 OFFCURVE",
"279 125 OFFCURVE",
"262 125 CURVE SMOOTH",
"239 125 LINE",
"239 0 LINE",
"310 0 LINE SMOOTH",
"417 0 OFFCURVE",
"457 49 OFFCURVE",
"457 124 CURVE SMOOTH",
"457 518 LINE SMOOTH",
"457 593 OFFCURVE",
"417 642 OFFCURVE",
"310 642 CURVE SMOOTH",
"239 642 LINE",
"239 517 LINE",
"262 517 LINE SMOOTH",
"279 517 OFFCURVE",
"287 510 OFFCURVE",
"287 495 CURVE SMOOTH"
);
},
{
closed = 1;
nodes = (
"208 191 LINE",
"38 191 LINE",
"38 124 LINE SMOOTH",
"38 49 OFFCURVE",
"78 0 OFFCURVE",
"185 0 CURVE SMOOTH",
"254 0 LINE",
"254 125 LINE",
"233 125 LINE SMOOTH",
"216 125 OFFCURVE",
"208 132 OFFCURVE",
"208 147 CURVE SMOOTH"
);
}
);
width = 494;
},
{
layerId = "D7ED940C-AEED-448E-AD50-67D9ABA5AFA7";
paths = (
{
closed = 1;
nodes = (
"109 532 LINE",
"109 558 OFFCURVE",
"114 563 OFFCURVE",
"140 563 CURVE SMOOTH",
"173 563 LINE",
"173 622 LINE",
"119 622 LINE SMOOTH",
"66 622 OFFCURVE",
"40 596 OFFCURVE",
"40 543 CURVE SMOOTH",
"40 338 LINE SMOOTH",
"40 285 OFFCURVE",
"66 259 OFFCURVE",
"119 259 CURVE SMOOTH",
"253 259 LINE",
"253 318 LINE",
"140 318 LINE SMOOTH",
"114 318 OFFCURVE",
"109 323 OFFCURVE",
"109 349 CURVE SMOOTH"
);
},
{
closed = 1;
nodes = (
"228 90 LINE",
"228 64 OFFCURVE",
"223 59 OFFCURVE",
"197 59 CURVE SMOOTH",
"165 59 LINE",
"165 0 LINE",
"218 0 LINE SMOOTH",
"271 0 OFFCURVE",
"297 26 OFFCURVE",
"297 79 CURVE SMOOTH",
"297 543 LINE SMOOTH",
"297 596 OFFCURVE",
"271 622 OFFCURVE",
"218 622 CURVE SMOOTH",
"164 622 LINE",
"164 563 LINE",
"197 563 LINE SMOOTH",
"223 563 OFFCURVE",
"228 558 OFFCURVE",
"228 532 CURVE SMOOTH"
);
},
{
closed = 1;
nodes = (
"109 196 LINE",
"41 196 LINE",
"41 79 LINE SMOOTH",
"41 26 OFFCURVE",
"67 0 OFFCURVE",
"120 0 CURVE SMOOTH",
"176 0 LINE",
"176 59 LINE",
"140 59 LINE SMOOTH",
"114 59 OFFCURVE",
"109 64 OFFCURVE",
"109 90 CURVE SMOOTH"
);
}
);
width = 347;
}
);
unicode = 0039;
},
{
glyphname = colon;
layers = (
{
layerId = "DEF7E4D1-2777-4333-B76D-D32E6812EDA5";
paths = (
{
closed = 1;
nodes = (
"40 0 LINE",
"212 0 LINE",
"212 164 LINE",
"40 164 LINE"
);
},
{
closed = 1;
nodes = (
"40 335 LINE",
"212 335 LINE",
"212 499 LINE",
"40 499 LINE"
);
}
);
width = 252;
},
{
layerId = "D7ED940C-AEED-448E-AD50-67D9ABA5AFA7";
paths = (
{
closed = 1;
nodes = (
"30 0 LINE",
"112 0 LINE",
"112 112 LINE",
"30 112 LINE"
);
},
{
closed = 1;
nodes = (
"30 373 LINE",
"112 373 LINE",
"112 485 LINE",
"30 485 LINE"
);
}
);
width = 142;
}
);
unicode = 003A;
},
{
glyphname = semicolon;
layers = (
{
layerId = "DEF7E4D1-2777-4333-B76D-D32E6812EDA5";
paths = (
{
closed = 1;
nodes = (
"40 164 LINE",
"40 -149 LINE",
"92 -149 LINE",
"212 74 LINE",
"212 164 LINE"
);
},
{
closed = 1;
nodes = (
"40 335 LINE",
"212 335 LINE",
"212 499 LINE",
"40 499 LINE"
);
}
);
width = 252;
},
{
layerId = "D7ED940C-AEED-448E-AD50-67D9ABA5AFA7";
paths = (
{
closed = 1;
nodes = (
"30 112 LINE",
"30 -137 LINE",
"57 -137 LINE",
"112 54 LINE",
"112 112 LINE"
);
},
{
closed = 1;
nodes = (
"30 373 LINE",
"112 373 LINE",
"112 485 LINE",
"30 485 LINE"
);
}
);
width = 142;
}
);
unicode = 003B;
},
{
glyphname = less;
layers = (
{
layerId = "DEF7E4D1-2777-4333-B76D-D32E6812EDA5";
paths = (
{
closed = 1;
nodes = (
"508 402 LINE",
"508 536 LINE",
"25 398 LINE",
"25 252 LINE",
"508 106 LINE",
"508 242 LINE",
"193 323 LINE"
);
}
);
width = 533;
},
{
layerId = "D7ED940C-AEED-448E-AD50-67D9ABA5AFA7";
paths = (
{
closed = 1;
nodes = (
"360 399 LINE",
"360 465 LINE",
"30 350 LINE",
"30 272 LINE",
"360 157 LINE",
"360 223 LINE",
"93 311 LINE"
);
}
);
width = 390;
}
);
unicode = 003C;
},
{
glyphname = equal;
layers = (
{
layerId = "DEF7E4D1-2777-4333-B76D-D32E6812EDA5";
paths = (
{
closed = 1;
nodes = (
"25 361 LINE",
"508 361 LINE",
"508 490 LINE",
"25 490 LINE"
);
},
{
closed = 1;
nodes = (
"25 149 LINE",
"508 149 LINE",
"508 278 LINE",
"25 278 LINE"
);
}
);
width = 533;
},
{
layerId = "D7ED940C-AEED-448E-AD50-67D9ABA5AFA7";
paths = (
{
closed = 1;
nodes = (
"30 366 LINE",
"360 366 LINE",
"360 428 LINE",
"30 428 LINE"
);
},
{
closed = 1;
nodes = (
"30 194 LINE",
"360 194 LINE",
"360 256 LINE",
"30 256 LINE"
);
}
);
width = 390;
}
);
unicode = 003D;
},
{
glyphname = greater;
layers = (
{
layerId = "DEF7E4D1-2777-4333-B76D-D32E6812EDA5";
paths = (
{
closed = 1;
nodes = (
"340 323 LINE",
"25 242 LINE",
"25 106 LINE",
"508 252 LINE",
"508 398 LINE",
"25 536 LINE",
"25 402 LINE"
);
}
);
width = 533;
},
{
layerId = "D7ED940C-AEED-448E-AD50-67D9ABA5AFA7";
paths = (
{
closed = 1;
nodes = (
"297 311 LINE",
"30 223 LINE",
"30 157 LINE",
"360 272 LINE",
"360 350 LINE",
"30 465 LINE",
"30 399 LINE"
);
}
);
width = 390;
}
);
unicode = 003E;
},
{
glyphname = question;
layers = (
{
layerId = "DEF7E4D1-2777-4333-B76D-D32E6812EDA5";
paths = (
{
closed = 1;
nodes = (
"274 408 LINE SMOOTH",
"274 393 OFFCURVE",
"266 386 OFFCURVE",
"249 386 CURVE SMOOTH",
"194 386 LINE",
"194 294 LINE",
"302 294 LINE SMOOTH",
"409 294 OFFCURVE",
"449 343 OFFCURVE",
"449 418 CURVE SMOOTH",
"449 518 LINE SMOOTH",
"449 593 OFFCURVE",
"409 642 OFFCURVE",
"302 642 CURVE SMOOTH",
"227 642 LINE",
"227 527 LINE",
"249 527 LINE SMOOTH",
"266 527 OFFCURVE",
"274 520 OFFCURVE",
"274 505 CURVE SMOOTH"
);
},
{
closed = 1;
nodes = (
"139 386 LINE",
"154 233 LINE",
"300 233 LINE",
"316 386 LINE"
);
},
{
closed = 1;
nodes = (
"139 0 LINE",
"311 0 LINE",
"311 164 LINE",
"139 164 LINE"
);
},
{
closed = 1;
nodes = (
"195 505 LINE SMOOTH",
"195 520 OFFCURVE",
"203 527 OFFCURVE",
"220 527 CURVE SMOOTH",
"230 527 LINE",
"230 642 LINE",
"167 642 LINE SMOOTH",
"60 642 OFFCURVE",
"20 593 OFFCURVE",
"20 518 CURVE SMOOTH",
"20 437 LINE",
"195 437 LINE"
);
}
);
width = 469;
},
{
layerId = "D7ED940C-AEED-448E-AD50-67D9ABA5AFA7";
paths = (
{
closed = 1;
nodes = (
"194 354 LINE",
"194 330 OFFCURVE",
"191 322 OFFCURVE",
"166 322 CURVE SMOOTH",
"135 322 LINE",
"135 263 LINE",
"184 263 LINE SMOOTH",
"240 263 OFFCURVE",
"263 294 OFFCURVE",
"263 341 CURVE SMOOTH",
"263 545 LINE SMOOTH",
"263 592 OFFCURVE",
"240 622 OFFCURVE",
"184 622 CURVE SMOOTH",
"126 622 LINE",
"126 564 LINE",
"166 564 LINE SMOOTH",
"191 564 OFFCURVE",
"194 555 OFFCURVE",
"194 531 CURVE SMOOTH"
);
},
{
closed = 1;
nodes = (
"100 322 LINE",
"106 196 LINE",
"163 196 LINE",
"169 322 LINE"
);
},
{
closed = 1;
nodes = (
"93 0 LINE",
"175 0 LINE",
"175 112 LINE",
"93 112 LINE"
);
},
{
closed = 1;
nodes = (
"89 531 LINE",
"89 555 OFFCURVE",
"92 564 OFFCURVE",
"118 564 CURVE SMOOTH",
"157 564 LINE",
"157 622 LINE",
"99 622 LINE SMOOTH",
"43 622 OFFCURVE",
"20 592 OFFCURVE",
"20 545 CURVE SMOOTH",
"20 459 LINE",
"89 459 LINE"
);
}
);
width = 308;
}
);
unicode = 003F;
},
{
glyphname = at;
layers = (
{
layerId = "DEF7E4D1-2777-4333-B76D-D32E6812EDA5";
paths = (
{
closed = 1;
nodes = (
"247 193 LINE SMOOTH",
"247 125 OFFCURVE",
"282 80 OFFCURVE",
"368 80 CURVE SMOOTH",
"384 80 LINE SMOOTH",
"433 80 OFFCURVE",
"460 103 OFFCURVE",
"468 141 CURVE",
"468 80 LINE",
"684 80 LINE SMOOTH",
"779 80 OFFCURVE",
"817 129 OFFCURVE",
"817 204 CURVE SMOOTH",
"817 494 LINE SMOOTH",
"817 569 OFFCURVE",
"781 618 OFFCURVE",
"686 618 CURVE SMOOTH",
"173 618 LINE SMOOTH",
"78 618 OFFCURVE",
"40 569 OFFCURVE",
"40 494 CURVE SMOOTH",
"40 20 LINE SMOOTH",
"40 -55 OFFCURVE",
"78 -104 OFFCURVE",
"173 -104 CURVE SMOOTH",
"603 -104 LINE",
"603 11 LINE",
"215 11 LINE SMOOTH",
"198 11 OFFCURVE",
"190 18 OFFCURVE",
"190 33 CURVE SMOOTH",
"190 481 LINE SMOOTH",
"190 496 OFFCURVE",
"198 503 OFFCURVE",
"215 503 CURVE SMOOTH",
"646 503 LINE SMOOTH",
"663 503 OFFCURVE",
"671 496 OFFCURVE",
"671 481 CURVE SMOOTH",
"671 206 LINE SMOOTH",
"671 191 OFFCURVE",
"663 184 OFFCURVE",
"646 184 CURVE SMOOTH",
"602 184 LINE",
"602 437 LINE",
"467 437 LINE",
"467 379 LINE",
"458 415 OFFCURVE",
"431 437 OFFCURVE",
"384 437 CURVE SMOOTH",
"368 437 LINE SMOOTH",
"282 437 OFFCURVE",
"247 392 OFFCURVE",
"247 324 CURVE SMOOTH"
);
},
{
closed = 1;
nodes = (
"393 312 LINE SMOOTH",
"393 326 OFFCURVE",
"400 332 OFFCURVE",
"415 332 CURVE SMOOTH",
"440 332 LINE SMOOTH",
"456 332 OFFCURVE",
"464 324 OFFCURVE",
"464 305 CURVE SMOOTH",
"464 212 LINE SMOOTH",
"464 193 OFFCURVE",
"456 185 OFFCURVE",
"440 185 CURVE SMOOTH",
"415 185 LINE SMOOTH",
"400 185 OFFCURVE",
"393 191 OFFCURVE",
"393 205 CURVE SMOOTH"
);
}
);
width = 863;
},
{
layerId = "D7ED940C-AEED-448E-AD50-67D9ABA5AFA7";
paths = (
{
closed = 1;
nodes = (
"229 160 LINE SMOOTH",
"229 107 OFFCURVE",
"255 81 OFFCURVE",
"308 81 CURVE SMOOTH",
"338 81 LINE SMOOTH",
"369 81 OFFCURVE",
"396 94 OFFCURVE",
"400 130 CURVE",
"400 81 LINE",
"526 81 LINE SMOOTH",
"579 81 OFFCURVE",
"605 107 OFFCURVE",
"605 160 CURVE SMOOTH",
"605 485 LINE SMOOTH",
"605 538 OFFCURVE",
"579 564 OFFCURVE",
"526 564 CURVE SMOOTH",
"164 564 LINE SMOOTH",
"111 564 OFFCURVE",
"85 538 OFFCURVE",
"85 485 CURVE SMOOTH",
"85 18 LINE SMOOTH",
"85 -35 OFFCURVE",
"111 -61 OFFCURVE",
"164 -61 CURVE SMOOTH",
"462 -61 LINE",
"462 0 LINE",
"185 0 LINE SMOOTH",
"159 0 OFFCURVE",
"154 5 OFFCURVE",
"154 31 CURVE SMOOTH",
"154 471 LINE SMOOTH",
"154 497 OFFCURVE",
"159 503 OFFCURVE",
"185 503 CURVE SMOOTH",
"506 503 LINE SMOOTH",
"532 503 OFFCURVE",
"537 497 OFFCURVE",
"537 471 CURVE SMOOTH",
"537 171 LINE SMOOTH",
"537 145 OFFCURVE",
"532 140 OFFCURVE",
"506 140 CURVE SMOOTH",
"461 140 LINE",
"461 427 LINE",
"393 427 LINE",
"393 393 LINE",
"385 417 OFFCURVE",
"364 427 OFFCURVE",
"338 427 CURVE SMOOTH",
"308 427 LINE SMOOTH",
"255 427 OFFCURVE",
"229 401 OFFCURVE",
"229 348 CURVE"
);
},
{
closed = 1;
nodes = (
"298 337 LINE",
"298 363 OFFCURVE",
"303 368 OFFCURVE",
"329 368 CURVE SMOOTH",
"359 368 LINE SMOOTH",
"383 368 OFFCURVE",
"393 359 OFFCURVE",
"393 332 CURVE SMOOTH",
"393 176 LINE SMOOTH",
"393 149 OFFCURVE",
"383 140 OFFCURVE",
"359 140 CURVE SMOOTH",
"329 140 LINE SMOOTH",
"303 140 OFFCURVE",
"298 145 OFFCURVE",
"298 171 CURVE SMOOTH"
);
}
);
width = 651;
}
);
unicode = 0040;
},
{
glyphname = A;
layers = (
{
layerId = "DEF7E4D1-2777-4333-B76D-D32E6812EDA5";
paths = (
{
closed = 1;
nodes = (
"433 220 LINE",
"112 220 LINE",
"112 96 LINE",
"433 96 LINE"
);
},
{
closed = 1;
nodes = (
"543 0 LINE",
"378 642 LINE",
"165 642 LINE",
"0 0 LINE",
"172 0 LINE",
"271 451 LINE",
"367 0 LINE"
);
}
);
width = 543;
},
{
layerId = "D7ED940C-AEED-448E-AD50-67D9ABA5AFA7";
paths = (
{
closed = 1;
nodes = (
"257 217 LINE",
"83 217 LINE",
"83 158 LINE",
"257 158 LINE"
);
},
{
closed = 1;
nodes = (
"328 0 LINE",
"221 622 LINE",
"112 622 LINE",
"15 0 LINE",
"84 0 LINE",
"166 574 LINE",
"259 0 LINE"
);
}
);
width = 343;
}
);
unicode = 0041;
},
{
glyphname = B;
layers = (
{
layerId = "DEF7E4D1-2777-4333-B76D-D32E6812EDA5";
paths = (
{
closed = 1;
nodes = (
"40 642 LINE",
"40 0 LINE",
"334 0 LINE SMOOTH",
"441 0 OFFCURVE",
"481 49 OFFCURVE",
"481 124 CURVE SMOOTH",
"481 220 LINE SMOOTH",
"481 271 OFFCURVE",
"472 306 OFFCURVE",
"433 323 CURVE",
"472 344 OFFCURVE",
"481 384 OFFCURVE",
"481 436 CURVE SMOOTH",
"481 518 LINE SMOOTH",
"481 593 OFFCURVE",
"441 642 OFFCURVE",
"334 642 CURVE SMOOTH"
);
},
{
closed = 1;
nodes = (
"309 137 LINE SMOOTH",
"309 122 OFFCURVE",
"301 115 OFFCURVE",
"284 115 CURVE SMOOTH",
"212 115 LINE",
"212 264 LINE",
"284 264 LINE SMOOTH",
"301 264 OFFCURVE",
"309 257 OFFCURVE",
"309 242 CURVE SMOOTH"
);
},
{
closed = 1;
nodes = (
"309 401 LINE SMOOTH",
"309 386 OFFCURVE",
"301 379 OFFCURVE",
"284 379 CURVE SMOOTH",
"212 379 LINE",
"212 527 LINE",
"284 527 LINE SMOOTH",
"301 527 OFFCURVE",
"309 520 OFFCURVE",
"309 505 CURVE SMOOTH"
);
}
);
width = 516;
},
{
layerId = "D7ED940C-AEED-448E-AD50-67D9ABA5AFA7";
paths = (
{
closed = 1;
nodes = (
"55 622 LINE",
"55 0 LINE",
"252 0 LINE SMOOTH",
"305 0 OFFCURVE",
"331 26 OFFCURVE",
"331 79 CURVE",
"331 269 LINE SMOOTH",
"331 298 OFFCURVE",
"317 311 OFFCURVE",
"294 315 CURVE",
"317 317 OFFCURVE",
"331 335 OFFCURVE",
"331 364 CURVE SMOOTH",
"331 543 LINE SMOOTH",
"331 596 OFFCURVE",
"305 622 OFFCURVE",
"252 622 CURVE SMOOTH"
);
},
{
closed = 1;
nodes = (
"262 90 LINE",
"262 64 OFFCURVE",
"257 59 OFFCURVE",
"231 59 CURVE SMOOTH",
"124 59 LINE",
"124 288 LINE",
"231 288 LINE SMOOTH",
"257 288 OFFCURVE",
"262 283 OFFCURVE",
"262 257 CURVE"
);
},
{
closed = 1;
nodes = (
"262 378 LINE",
"262 352 OFFCURVE",
"257 347 OFFCURVE",
"231 347 CURVE SMOOTH",
"124 347 LINE",
"124 563 LINE",
"231 563 LINE SMOOTH",
"257 563 OFFCURVE",
"262 558 OFFCURVE",
"262 532 CURVE SMOOTH"
);
}
);
width = 381;
}
);
unicode = 0042;
},
{
glyphname = C;
layers = (
{
layerId = "DEF7E4D1-2777-4333-B76D-D32E6812EDA5";
paths = (
{
closed = 1;
nodes = (
"210 505 LINE SMOOTH",
"210 520 OFFCURVE",
"218 527 OFFCURVE",
"235 527 CURVE SMOOTH",
"261 527 LINE",
"261 642 LINE",
"182 642 LINE SMOOTH",
"75 642 OFFCURVE",
"35 593 OFFCURVE",
"35 518 CURVE SMOOTH",
"35 124 LINE SMOOTH",
"35 49 OFFCURVE",
"75 0 OFFCURVE",
"182 0 CURVE SMOOTH",
"261 0 LINE",
"261 115 LINE",
"235 115 LINE SMOOTH",
"218 115 OFFCURVE",
"210 122 OFFCURVE",
"210 137 CURVE SMOOTH"
);
},
{
closed = 1;
nodes = (
"295 402 LINE",
"470 402 LINE",
"470 518 LINE SMOOTH",
"470 593 OFFCURVE",
"430 642 OFFCURVE",
"323 642 CURVE SMOOTH",
"244 642 LINE",
"244 527 LINE",
"270 527 LINE SMOOTH",
"287 527 OFFCURVE",
"295 520 OFFCURVE",
"295 505 CURVE SMOOTH"
);
},
{
closed = 1;
nodes = (
"295 137 LINE SMOOTH",
"295 122 OFFCURVE",
"287 115 OFFCURVE",
"270 115 CURVE SMOOTH",
"244 115 LINE",
"244 0 LINE",
"323 0 LINE SMOOTH",
"430 0 OFFCURVE",
"470 49 OFFCURVE",
"470 124 CURVE SMOOTH",
"470 236 LINE",
"295 236 LINE"
);
}
);
width = 495;
},
{
layerId = "D7ED940C-AEED-448E-AD50-67D9ABA5AFA7";
paths = (
{
closed = 1;
nodes = (
"119 532 LINE",
"119 558 OFFCURVE",
"124 563 OFFCURVE",
"150 563 CURVE SMOOTH",
"186 563 LINE",
"186 622 LINE",
"129 622 LINE SMOOTH",
"76 622 OFFCURVE",
"50 596 OFFCURVE",
"50 543 CURVE SMOOTH",
"50 78 LINE SMOOTH",
"50 25 OFFCURVE",
"76 -1 OFFCURVE",
"129 -1 CURVE",
"179 -1 LINE",
"179 58 LINE",
"150 58 LINE SMOOTH",
"124 58 OFFCURVE",
"119 63 OFFCURVE",
"119 89 CURVE SMOOTH"
);
},
{
closed = 1;
nodes = (
"236 438 LINE",
"305 438 LINE",
"305 543 LINE SMOOTH",
"305 596 OFFCURVE",
"279 622 OFFCURVE",
"226 622 CURVE SMOOTH",
"171 622 LINE",
"171 563 LINE",
"205 563 LINE SMOOTH",
"231 563 OFFCURVE",
"236 558 OFFCURVE",
"236 532 CURVE SMOOTH"
);
},
{
closed = 1;
nodes = (
"236 89 LINE",
"236 63 OFFCURVE",
"231 58 OFFCURVE",
"205 58 CURVE SMOOTH",
"171 58 LINE",
"171 -1 LINE",
"226 -1 LINE SMOOTH",
"279 -1 OFFCURVE",
"305 25 OFFCURVE",
"305 78 CURVE SMOOTH",
"305 183 LINE",
"236 183 LINE"
);
}
);
width = 345;
}
);
unicode = 0043;
},
{
glyphname = D;
layers = (
{
layerId = "DEF7E4D1-2777-4333-B76D-D32E6812EDA5";
paths = (
{
closed = 1;
nodes = (
"317 374 LINE",
"492 374 LINE",
"492 518 LINE SMOOTH",
"492 593 OFFCURVE",
"452 642 OFFCURVE",
"345 642 CURVE SMOOTH",
"108 642 LINE",
"108 527 LINE",
"292 527 LINE SMOOTH",
"309 527 OFFCURVE",
"317 520 OFFCURVE",
"317 505 CURVE SMOOTH"
);
},
{
closed = 1;
nodes = (
"317 137 LINE SMOOTH",
"317 122 OFFCURVE",
"309 115 OFFCURVE",
"292 115 CURVE SMOOTH",
"108 115 LINE",
"108 0 LINE",
"345 0 LINE SMOOTH",
"452 0 OFFCURVE",
"492 49 OFFCURVE",
"492 124 CURVE SMOOTH",
"492 387 LINE",
"317 387 LINE"
);
},
{
closed = 1;
nodes = (
"50 642 LINE",
"50 0 LINE",
"225 0 LINE",
"225 642 LINE"
);
}
);
width = 529;
},
{
layerId = "D7ED940C-AEED-448E-AD50-67D9ABA5AFA7";
paths = (
{
closed = 1;
nodes = (
"262 397 LINE",
"331 397 LINE",
"331 543 LINE SMOOTH",
"331 596 OFFCURVE",
"305 622 OFFCURVE",
"252 622 CURVE SMOOTH",
"94 622 LINE",
"94 563 LINE",
"231 563 LINE SMOOTH",
"257 563 OFFCURVE",
"262 558 OFFCURVE",
"262 532 CURVE SMOOTH"
);
},
{
closed = 1;
nodes = (
"262 90 LINE",
"262 64 OFFCURVE",
"257 59 OFFCURVE",
"231 59 CURVE SMOOTH",
"94 59 LINE",
"94 0 LINE",
"252 0 LINE SMOOTH",
"305 0 OFFCURVE",
"331 26 OFFCURVE",
"331 79 CURVE SMOOTH",
"331 422 LINE",
"262 422 LINE"
);
},
{
closed = 1;
nodes = (
"55 622 LINE",
"55 0 LINE",
"124 0 LINE",
"124 622 LINE"
);
}
);
width = 381;
}
);
unicode = 0044;
},
{
glyphname = E;
layers = (
{
layerId = "DEF7E4D1-2777-4333-B76D-D32E6812EDA5";
paths = (
{
closed = 1;
nodes = (
"40 642 LINE",
"40 0 LINE",
"215 0 LINE",
"215 642 LINE"
);
},
{
closed = 1;
nodes = (
"396 386 LINE",
"115 386 LINE",
"115 261 LINE",
"396 261 LINE"
);
},
{
closed = 1;
nodes = (
"425 642 LINE",
"102 642 LINE",
"102 517 LINE",
"425 517 LINE"
);
},
{
closed = 1;
nodes = (
"434 125 LINE",
"102 125 LINE",
"102 0 LINE",
"434 0 LINE"
);
}
);
width = 449;
},
{
layerId = "D7ED940C-AEED-448E-AD50-67D9ABA5AFA7";
paths = (
{
closed = 1;
nodes = (
"55 622 LINE",
"55 0 LINE",
"124 0 LINE",
"124 622 LINE"
);
},
{
closed = 1;
nodes = (
"258 353 LINE",
"99 353 LINE",
"99 294 LINE",
"258 294 LINE"
);
},
{
closed = 1;
nodes = (
"288 622 LINE",
"99 622 LINE",
"99 563 LINE",
"288 563 LINE"
);
},
{
closed = 1;
nodes = (
"295 59 LINE",
"99 59 LINE",
"99 0 LINE",
"295 0 LINE"
);
}
);
width = 315;
}
);
unicode = 0045;
},
{
glyphname = F;
layers = (
{
layerId = "DEF7E4D1-2777-4333-B76D-D32E6812EDA5";
paths = (
{
closed = 1;
nodes = (
"40 642 LINE",
"40 0 LINE",
"215 0 LINE",
"215 642 LINE"
);
},
{
closed = 1;
nodes = (
"397 361 LINE",
"116 361 LINE",
"116 246 LINE",
"397 246 LINE"
);
},
{
closed = 1;
nodes = (
"425 642 LINE",
"102 642 LINE",
"102 517 LINE",
"425 517 LINE"
);
}
);
width = 440;
},
{
layerId = "D7ED940C-AEED-448E-AD50-67D9ABA5AFA7";
paths = (
{
closed = 1;
nodes = (
"55 622 LINE",
"55 0 LINE",
"124 0 LINE",
"124 622 LINE"
);
},
{
closed = 1;
nodes = (
"258 343 LINE",
"99 343 LINE",
"99 284 LINE",
"258 284 LINE"
);
},
{
closed = 1;
nodes = (
"298 622 LINE",
"99 622 LINE",
"99 563 LINE",
"298 563 LINE"
);
}
);
width = 303;
}
);
unicode = 0046;
},
{
glyphname = G;
layers = (
{
layerId = "DEF7E4D1-2777-4333-B76D-D32E6812EDA5";
paths = (
{
closed = 1;
nodes = (
"210 505 LINE SMOOTH",
"210 520 OFFCURVE",
"218 527 OFFCURVE",
"235 527 CURVE SMOOTH",
"262 527 LINE",
"262 642 LINE",
"182 642 LINE SMOOTH",
"75 642 OFFCURVE",
"35 593 OFFCURVE",
"35 518 CURVE SMOOTH",
"35 124 LINE SMOOTH",
"35 49 OFFCURVE",
"75 0 OFFCURVE",
"182 0 CURVE SMOOTH",
"258 0 LINE",
"258 115 LINE",
"235 115 LINE SMOOTH",
"218 115 OFFCURVE",
"210 122 OFFCURVE",
"210 137 CURVE SMOOTH"
);
},
{
closed = 1;
nodes = (
"471 355 LINE",
"246 355 LINE",
"246 244 LINE",
"471 244 LINE"
);
},
{
closed = 1;
nodes = (
"296 422 LINE",
"471 422 LINE",
"471 518 LINE SMOOTH",
"471 593 OFFCURVE",
"431 642 OFFCURVE",
"324 642 CURVE SMOOTH",
"244 642 LINE",
"244 527 LINE",
"271 527 LINE SMOOTH",
"288 527 OFFCURVE",
"296 520 OFFCURVE",
"296 505 CURVE SMOOTH"
);
},
{
closed = 1;
nodes = (
"296 137 LINE SMOOTH",
"296 122 OFFCURVE",
"288 115 OFFCURVE",
"271 115 CURVE SMOOTH",
"248 115 LINE",
"248 0 LINE",
"324 0 LINE SMOOTH",
"431 0 OFFCURVE",
"471 49 OFFCURVE",
"471 124 CURVE SMOOTH",
"471 278 LINE",
"296 278 LINE"
);
}
);
width = 501;
},
{
layerId = "D7ED940C-AEED-448E-AD50-67D9ABA5AFA7";
paths = (
{
closed = 1;
nodes = (
"119 532 LINE",
"119 558 OFFCURVE",
"124 563 OFFCURVE",
"150 563 CURVE SMOOTH",
"186 563 LINE",
"186 622 LINE",
"129 622 LINE SMOOTH",
"76 622 OFFCURVE",
"50 596 OFFCURVE",
"50 543 CURVE SMOOTH",
"50 78 LINE SMOOTH",
"50 25 OFFCURVE",
"76 -1 OFFCURVE",
"129 -1 CURVE",
"179 -1 LINE",
"179 58 LINE",
"150 58 LINE SMOOTH",
"124 58 OFFCURVE",
"119 63 OFFCURVE",
"119 89 CURVE SMOOTH"
);
},
{
closed = 1;
nodes = (
"305 313 LINE",
"186 313 LINE",
"186 254 LINE",
"305 254 LINE"
);
},
{
closed = 1;
nodes = (
"236 448 LINE",
"305 448 LINE",
"305 543 LINE SMOOTH",
"305 596 OFFCURVE",
"279 622 OFFCURVE",
"226 622 CURVE SMOOTH",
"171 622 LINE",
"171 563 LINE",
"205 563 LINE SMOOTH",
"231 563 OFFCURVE",
"236 558 OFFCURVE",
"236 532 CURVE SMOOTH"
);
},
{
closed = 1;
nodes = (
"236 89 LINE",
"236 63 OFFCURVE",
"231 58 OFFCURVE",
"205 58 CURVE SMOOTH",
"171 58 LINE",
"171 -1 LINE",
"226 -1 LINE SMOOTH",
"279 -1 OFFCURVE",
"305 25 OFFCURVE",
"305 78 CURVE SMOOTH",
"305 273 LINE",
"236 273 LINE"
);
}
);
width = 350;
}
);
unicode = 0047;
},
{
glyphname = H;
layers = (
{
layerId = "DEF7E4D1-2777-4333-B76D-D32E6812EDA5";
paths = (
{
closed = 1;
nodes = (
"360 379 LINE",
"180 379 LINE",
"180 254 LINE",
"360 254 LINE"
);
},
{
closed = 1;
nodes = (
"40 642 LINE",
"40 0 LINE",
"212 0 LINE",
"212 642 LINE"
);
},
{
closed = 1;
nodes = (
"338 642 LINE",
"338 0 LINE",
"510 0 LINE",
"510 642 LINE"
);
}
);
width = 550;
},
{
layerId = "D7ED940C-AEED-448E-AD50-67D9ABA5AFA7";
paths = (
{
closed = 1;
nodes = (
"288 340 LINE",
"99 340 LINE",
"99 281 LINE",
"288 281 LINE"
);
},
{
closed = 1;
nodes = (
"55 622 LINE",
"55 0 LINE",
"124 0 LINE",
"124 622 LINE"
);
},
{
closed = 1;
nodes = (
"258 622 LINE",
"258 0 LINE",
"327 0 LINE",
"327 622 LINE"
);
}
);
width = 382;
}
);
unicode = 0048;
},
{
glyphname = I;
layers = (
{
layerId = "DEF7E4D1-2777-4333-B76D-D32E6812EDA5";
paths = (
{
closed = 1;
nodes = (
"40 642 LINE",
"40 0 LINE",
"215 0 LINE",
"215 642 LINE"
);
}
);
width = 255;
},
{
layerId = "D7ED940C-AEED-448E-AD50-67D9ABA5AFA7";
paths = (
{
closed = 1;
nodes = (
"65 622 LINE",
"65 0 LINE",
"133 0 LINE",
"133 622 LINE"
);
}
);
width = 198;
}
);
unicode = 0049;
},
{
glyphname = J;
layers = (
{
layerId = "DEF7E4D1-2777-4333-B76D-D32E6812EDA5";
paths = (
{
closed = 1;
nodes = (
"10 257 LINE",
"10 124 LINE SMOOTH",
"10 49 OFFCURVE",
"50 0 OFFCURVE",
"157 0 CURVE SMOOTH",
"274 0 LINE SMOOTH",
"381 0 OFFCURVE",
"421 49 OFFCURVE",
"421 124 CURVE SMOOTH",
"421 642 LINE",
"246 642 LINE",
"246 147 LINE SMOOTH",
"246 132 OFFCURVE",
"238 125 OFFCURVE",
"221 125 CURVE SMOOTH",
"210 125 LINE SMOOTH",
"193 125 OFFCURVE",
"185 132 OFFCURVE",
"185 147 CURVE SMOOTH",
"185 257 LINE"
);
}
);
width = 457;
},
{
layerId = "D7ED940C-AEED-448E-AD50-67D9ABA5AFA7";
paths = (
{
closed = 1;
nodes = (
"15 192 LINE",
"15 79 LINE SMOOTH",
"15 26 OFFCURVE",
"41 0 OFFCURVE",
"94 0 CURVE SMOOTH",
"170 0 LINE SMOOTH",
"223 0 OFFCURVE",
"249 26 OFFCURVE",
"249 79 CURVE SMOOTH",
"249 622 LINE",
"180 622 LINE",
"180 90 LINE SMOOTH",
"180 64 OFFCURVE",
"175 59 OFFCURVE",
"149 59 CURVE SMOOTH",
"115 59 LINE SMOOTH",
"89 59 OFFCURVE",
"84 64 OFFCURVE",
"84 90 CURVE SMOOTH",
"84 192 LINE"
);
}
);
width = 301;
}
);
unicode = 004A;
},
{
glyphname = K;
layers = (
{
layerId = "DEF7E4D1-2777-4333-B76D-D32E6812EDA5";
paths = (
{
closed = 1;
nodes = (
"216 328 LINE",
"336 0 LINE",
"524 0 LINE",
"398 328 LINE"
);
},
{
closed = 1;
nodes = (
"398 328 LINE",
"523 642 LINE",
"335 642 LINE",
"216 328 LINE"
);
},
{
closed = 1;
nodes = (
"40 642 LINE",
"40 0 LINE",
"215 0 LINE",
"215 642 LINE"
);
}
);
width = 530;
},
{
layerId = "D7ED940C-AEED-448E-AD50-67D9ABA5AFA7";
paths = (
{
closed = 1;
nodes = (
"130 308 LINE",
"259 0 LINE",
"333 0 LINE",
"201 308 LINE"
);
},
{
closed = 1;
nodes = (
"201 308 LINE",
"335 622 LINE",
"261 622 LINE",
"130 308 LINE"
);
},
{
closed = 1;
nodes = (
"55 622 LINE",
"55 0 LINE",
"123 0 LINE",
"123 622 LINE"
);
}
);
width = 345;
}
);
unicode = 004B;
},
{
glyphname = L;
layers = (
{
layerId = "DEF7E4D1-2777-4333-B76D-D32E6812EDA5";
paths = (
{
closed = 1;
nodes = (
"40 642 LINE",
"40 0 LINE",
"215 0 LINE",
"215 642 LINE"
);
},
{
closed = 1;
nodes = (
"98 0 LINE",
"414 0 LINE",
"414 125 LINE",
"98 125 LINE"
);
}
);
width = 414;
},
{
layerId = "D7ED940C-AEED-448E-AD50-67D9ABA5AFA7";
paths = (
{
closed = 1;
nodes = (
"55 622 LINE",
"55 0 LINE",
"123 0 LINE",
"123 622 LINE"
);
},
{
closed = 1;
nodes = (
"96 0 LINE",
"266 0 LINE",
"266 59 LINE",
"96 59 LINE"
);
}
);
width = 271;
}
);
unicode = 004C;
},
{
glyphname = M;
layers = (
{
layerId = "DEF7E4D1-2777-4333-B76D-D32E6812EDA5";
paths = (
{
closed = 1;
nodes = (
"395 139 LINE",
"475 408 LINE",
"475 0 LINE",
"630 0 LINE",
"630 642 LINE",
"439 642 LINE",
"335 299 LINE",
"231 642 LINE",
"40 642 LINE",
"40 0 LINE",
"196 0 LINE",
"196 406 LINE",
"275 139 LINE"
);
}
);
width = 670;
},
{
layerId = "D7ED940C-AEED-448E-AD50-67D9ABA5AFA7";
paths = (
{
closed = 1;
nodes = (
"274 135 LINE",
"361 471 LINE",
"361 0 LINE",
"420 0 LINE",
"420 622 LINE",
"345 622 LINE",
"237 222 LINE",
"130 622 LINE",
"55 622 LINE",
"55 0 LINE",
"114 0 LINE",
"114 471 LINE",
"201 135 LINE"
);
}
);
width = 475;
}
);
unicode = 004D;
},
{
glyphname = N;
layers = (
{
layerId = "DEF7E4D1-2777-4333-B76D-D32E6812EDA5";
paths = (
{
closed = 1;
nodes = (
"333 642 LINE",
"333 299 LINE",
"190 642 LINE",
"40 642 LINE",
"40 0 LINE",
"200 0 LINE",
"200 337 LINE",
"343 0 LINE",
"493 0 LINE",
"493 642 LINE"
);
}
);
width = 533;
},
{
layerId = "D7ED940C-AEED-448E-AD50-67D9ABA5AFA7";
paths = (
{
closed = 1;
nodes = (
"259 622 LINE",
"259 157 LINE",
"135 622 LINE",
"55 622 LINE",
"55 0 LINE",
"118 0 LINE",
"118 482 LINE",
"247 0 LINE",
"322 0 LINE",
"322 622 LINE"
);
}
);
width = 377;
}
);
unicode = 004E;
},
{
glyphname = O;
layers = (
{
layerId = "DEF7E4D1-2777-4333-B76D-D32E6812EDA5";
paths = (
{
closed = 1;
nodes = (
"304 374 LINE",
"479 374 LINE",
"479 518 LINE SMOOTH",
"479 593 OFFCURVE",
"439 642 OFFCURVE",
"332 642 CURVE SMOOTH",
"246 642 LINE",
"246 517 LINE",
"279 517 LINE SMOOTH",
"296 517 OFFCURVE",
"304 510 OFFCURVE",
"304 495 CURVE SMOOTH"
);
},
{
closed = 1;
nodes = (
"304 147 LINE SMOOTH",
"304 132 OFFCURVE",
"296 125 OFFCURVE",
"279 125 CURVE SMOOTH",
"246 125 LINE",
"246 0 LINE",
"332 0 LINE SMOOTH",
"439 0 OFFCURVE",
"479 49 OFFCURVE",
"479 124 CURVE SMOOTH",
"479 387 LINE",
"304 387 LINE"
);
},
{
closed = 1;
nodes = (
"212 495 LINE SMOOTH",
"212 510 OFFCURVE",
"220 517 OFFCURVE",
"237 517 CURVE SMOOTH",
"270 517 LINE",
"270 642 LINE",
"184 642 LINE SMOOTH",
"77 642 OFFCURVE",
"37 593 OFFCURVE",
"37 518 CURVE SMOOTH",
"37 374 LINE",
"212 374 LINE"
);
},
{
closed = 1;
nodes = (
"212 387 LINE",
"37 387 LINE",
"37 124 LINE SMOOTH",
"37 49 OFFCURVE",
"77 0 OFFCURVE",
"184 0 CURVE SMOOTH",
"270 0 LINE",
"270 125 LINE",
"237 125 LINE SMOOTH",
"220 125 OFFCURVE",
"212 132 OFFCURVE",
"212 147 CURVE SMOOTH"
);
}
);
width = 516;
},
{
layerId = "D7ED940C-AEED-448E-AD50-67D9ABA5AFA7";
paths = (
{
closed = 1;
nodes = (
"242 141 LINE",
"310 141 LINE",
"310 543 LINE SMOOTH",
"310 596 OFFCURVE",
"284 622 OFFCURVE",
"231 622 CURVE SMOOTH",
"177 622 LINE",
"177 563 LINE",
"211 563 LINE SMOOTH",
"237 563 OFFCURVE",
"242 558 OFFCURVE",
"242 532 CURVE SMOOTH"
);
},
{
closed = 1;
nodes = (
"242 90 LINE",
"242 64 OFFCURVE",
"237 59 OFFCURVE",
"211 59 CURVE SMOOTH",
"170 59 LINE",
"170 0 LINE",
"231 0 LINE SMOOTH",
"284 0 OFFCURVE",
"310 26 OFFCURVE",
"310 79 CURVE SMOOTH",
"310 191 LINE",
"242 191 LINE"
);
},
{
closed = 1;
nodes = (
"118 532 LINE",
"118 558 OFFCURVE",
"123 563 OFFCURVE",
"149 563 CURVE SMOOTH",
"183 563 LINE",
"183 622 LINE",
"129 622 LINE SMOOTH",
"76 622 OFFCURVE",
"50 596 OFFCURVE",
"50 543 CURVE SMOOTH",
"50 140 LINE",
"118 140 LINE"
);
},
{
closed = 1;
nodes = (
"118 199 LINE",
"50 199 LINE",
"50 79 LINE SMOOTH",
"50 26 OFFCURVE",
"76 0 OFFCURVE",
"129 0 CURVE SMOOTH",
"180 0 LINE",
"180 59 LINE",
"149 59 LINE SMOOTH",
"123 59 OFFCURVE",
"118 64 OFFCURVE",
"118 90 CURVE SMOOTH"
);
}
);
width = 360;
}
);
unicode = 004F;
},
{
glyphname = P;
layers = (
{
layerId = "DEF7E4D1-2777-4333-B76D-D32E6812EDA5";
paths = (
{
closed = 1;
nodes = (
"309 357 LINE SMOOTH",
"309 342 OFFCURVE",
"301 335 OFFCURVE",
"284 335 CURVE SMOOTH",
"98 335 LINE",
"98 210 LINE",
"337 210 LINE SMOOTH",
"444 210 OFFCURVE",
"484 259 OFFCURVE",
"484 334 CURVE SMOOTH",
"484 518 LINE SMOOTH",
"484 593 OFFCURVE",
"444 642 OFFCURVE",
"337 642 CURVE SMOOTH",
"98 642 LINE",
"98 517 LINE",
"284 517 LINE SMOOTH",
"301 517 OFFCURVE",
"309 510 OFFCURVE",
"309 495 CURVE SMOOTH"
);
},
{
closed = 1;
nodes = (
"40 642 LINE",
"40 0 LINE",
"215 0 LINE",
"215 642 LINE"
);
}
);
width = 504;
},
{
layerId = "D7ED940C-AEED-448E-AD50-67D9ABA5AFA7";
paths = (
{
closed = 1;
nodes = (
"247 340 LINE",
"247 314 OFFCURVE",
"242 309 OFFCURVE",
"216 309 CURVE SMOOTH",
"96 309 LINE",
"96 250 LINE",
"236 250 LINE SMOOTH",
"289 250 OFFCURVE",
"315 276 OFFCURVE",
"315 329 CURVE SMOOTH",
"315 543 LINE SMOOTH",
"315 596 OFFCURVE",
"289 622 OFFCURVE",
"236 622 CURVE SMOOTH",
"55 622 LINE",
"55 563 LINE",
"216 563 LINE SMOOTH",
"242 563 OFFCURVE",
"247 558 OFFCURVE",
"247 532 CURVE SMOOTH"
);
},
{
closed = 1;
nodes = (
"55 622 LINE",
"55 0 LINE",
"123 0 LINE",
"123 622 LINE"
);
}
);
width = 345;
}
);
unicode = 0050;
},
{
glyphname = Q;
layers = (
{
layerId = "DEF7E4D1-2777-4333-B76D-D32E6812EDA5";
paths = (
{
closed = 1;
nodes = (
"304 374 LINE",
"479 374 LINE",
"479 518 LINE SMOOTH",
"479 593 OFFCURVE",
"439 642 OFFCURVE",
"332 642 CURVE SMOOTH",
"246 642 LINE",
"246 517 LINE",
"279 517 LINE SMOOTH",
"296 517 OFFCURVE",
"304 510 OFFCURVE",
"304 495 CURVE SMOOTH"
);
},
{
closed = 1;
nodes = (
"304 147 LINE SMOOTH",
"304 132 OFFCURVE",
"296 125 OFFCURVE",
"279 125 CURVE SMOOTH",
"246 125 LINE",
"246 0 LINE",
"332 0 LINE SMOOTH",
"439 0 OFFCURVE",
"479 49 OFFCURVE",
"479 124 CURVE SMOOTH",
"479 387 LINE",
"304 387 LINE"
);
},
{
closed = 1;
nodes = (
"212 495 LINE SMOOTH",
"212 510 OFFCURVE",
"220 517 OFFCURVE",
"237 517 CURVE SMOOTH",
"270 517 LINE",
"270 642 LINE",
"184 642 LINE SMOOTH",
"77 642 OFFCURVE",
"37 593 OFFCURVE",
"37 518 CURVE SMOOTH",
"37 374 LINE",
"212 374 LINE"
);
},
{
closed = 1;
nodes = (
"212 387 LINE",
"37 387 LINE",
"37 124 LINE SMOOTH",
"37 49 OFFCURVE",
"77 0 OFFCURVE",
"184 0 CURVE SMOOTH",
"270 0 LINE",
"270 125 LINE",
"237 125 LINE SMOOTH",
"220 125 OFFCURVE",
"212 132 OFFCURVE",
"212 147 CURVE SMOOTH"
);
},
{
closed = 1;
nodes = (
"158 125 LINE",
"336 -68 LINE",
"535 -68 LINE",
"354 125 LINE"
);
}
);
width = 516;
},
{
layerId = "D7ED940C-AEED-448E-AD50-67D9ABA5AFA7";
paths = (
{
closed = 1;
nodes = (
"242 141 LINE",
"310 141 LINE",
"310 543 LINE SMOOTH",
"310 596 OFFCURVE",
"284 622 OFFCURVE",
"231 622 CURVE SMOOTH",
"177 622 LINE",
"177 563 LINE",
"211 563 LINE SMOOTH",
"237 563 OFFCURVE",
"242 558 OFFCURVE",
"242 532 CURVE SMOOTH"
);
},
{
closed = 1;
nodes = (
"242 90 LINE",
"242 64 OFFCURVE",
"237 59 OFFCURVE",
"211 59 CURVE SMOOTH",
"170 59 LINE",
"170 0 LINE",
"231 0 LINE SMOOTH",
"284 0 OFFCURVE",
"310 26 OFFCURVE",
"310 79 CURVE SMOOTH",
"310 191 LINE",
"242 191 LINE"
);
},
{
closed = 1;
nodes = (
"118 532 LINE",
"118 558 OFFCURVE",
"123 563 OFFCURVE",
"149 563 CURVE SMOOTH",
"183 563 LINE",
"183 622 LINE",
"129 622 LINE SMOOTH",
"76 622 OFFCURVE",
"50 596 OFFCURVE",
"50 543 CURVE SMOOTH",
"50 140 LINE",
"118 140 LINE"
);
},
{
closed = 1;
nodes = (
"118 199 LINE",
"50 199 LINE",
"50 79 LINE SMOOTH",
"50 26 OFFCURVE",
"76 0 OFFCURVE",
"129 0 CURVE SMOOTH",
"180 0 LINE",
"180 59 LINE",
"149 59 LINE SMOOTH",
"123 59 OFFCURVE",
"118 64 OFFCURVE",
"118 90 CURVE SMOOTH"
);
},
{
closed = 1;
nodes = (
"158 36 LINE",
"245 -97 LINE",
"313 -97 LINE",
"225 36 LINE"
);
}
);
width = 360;
}
);
unicode = 0051;
},
{
glyphname = R;
layers = (
{
layerId = "DEF7E4D1-2777-4333-B76D-D32E6812EDA5";
paths = (
{
closed = 1;
nodes = (
"309 369 LINE SMOOTH",
"309 354 OFFCURVE",
"301 347 OFFCURVE",
"284 347 CURVE SMOOTH",
"98 347 LINE",
"98 228 LINE",
"337 228 LINE SMOOTH",
"444 228 OFFCURVE",
"484 277 OFFCURVE",
"484 352 CURVE SMOOTH",
"484 518 LINE SMOOTH",
"484 593 OFFCURVE",
"444 642 OFFCURVE",
"337 642 CURVE SMOOTH",
"98 642 LINE",
"98 517 LINE",
"284 517 LINE SMOOTH",
"301 517 OFFCURVE",
"309 510 OFFCURVE",
"309 495 CURVE SMOOTH"
);
},
{
closed = 1;
nodes = (
"40 642 LINE",
"40 0 LINE",
"215 0 LINE",
"215 642 LINE"
);
},
{
closed = 1;
nodes = (
"195 298 LINE",
"328 0 LINE",
"516 0 LINE",
"366 298 LINE"
);
}
);
width = 514;
},
{
layerId = "D7ED940C-AEED-448E-AD50-67D9ABA5AFA7";
paths = (
{
closed = 1;
nodes = (
"247 350 LINE",
"247 324 OFFCURVE",
"242 319 OFFCURVE",
"216 319 CURVE SMOOTH",
"96 319 LINE",
"96 260 LINE",
"236 260 LINE SMOOTH",
"289 260 OFFCURVE",
"315 286 OFFCURVE",
"315 339 CURVE SMOOTH",
"315 543 LINE SMOOTH",
"315 596 OFFCURVE",
"289 622 OFFCURVE",
"236 622 CURVE SMOOTH",
"55 622 LINE",
"55 563 LINE",
"216 563 LINE SMOOTH",
"242 563 OFFCURVE",
"247 558 OFFCURVE",
"247 532 CURVE SMOOTH"
);
},
{
closed = 1;
nodes = (
"55 622 LINE",
"55 0 LINE",
"123 0 LINE",
"123 622 LINE"
);
},
{
closed = 1;
nodes = (
"173 286 LINE",
"273 0 LINE",
"347 0 LINE",
"244 286 LINE"
);
}
);
width = 364;
}
);
unicode = 0052;
},
{
glyphname = S;
layers = (
{
layerId = "DEF7E4D1-2777-4333-B76D-D32E6812EDA5";
paths = (
{
closed = 1;
nodes = (
"286 147 LINE SMOOTH",
"286 132 OFFCURVE",
"278 125 OFFCURVE",
"261 125 CURVE SMOOTH",
"232 125 LINE SMOOTH",
"215 125 OFFCURVE",
"207 132 OFFCURVE",
"207 147 CURVE SMOOTH",
"207 201 LINE",
"32 201 LINE",
"32 124 LINE SMOOTH",
"32 49 OFFCURVE",
"72 0 OFFCURVE",
"179 0 CURVE SMOOTH",
"315 0 LINE SMOOTH",
"422 0 OFFCURVE",
"461 49 OFFCURVE",
"461 124 CURVE SMOOTH",
"461 256 LINE SMOOTH",
"461 331 OFFCURVE",
"428 378 OFFCURVE",
"324 378 CURVE SMOOTH",
"230 378 LINE SMOOTH",
"213 378 OFFCURVE",
"205 385 OFFCURVE",
"205 400 CURVE SMOOTH",
"205 495 LINE SMOOTH",
"205 510 OFFCURVE",
"213 517 OFFCURVE",
"230 517 CURVE SMOOTH",
"259 517 LINE SMOOTH",
"276 517 OFFCURVE",
"284 510 OFFCURVE",
"284 495 CURVE SMOOTH",
"284 441 LINE",
"459 441 LINE",
"459 518 LINE SMOOTH",
"459 593 OFFCURVE",
"420 642 OFFCURVE",
"313 642 CURVE SMOOTH",
"176 642 LINE SMOOTH",
"69 642 OFFCURVE",
"30 593 OFFCURVE",
"30 518 CURVE SMOOTH",
"30 386 LINE SMOOTH",
"30 311 OFFCURVE",
"61 260 OFFCURVE",
"165 260 CURVE SMOOTH",
"261 260 LINE SMOOTH",
"278 260 OFFCURVE",
"286 253 OFFCURVE",
"286 238 CURVE SMOOTH"
);
}
);
width = 491;
},
{
layerId = "D7ED940C-AEED-448E-AD50-67D9ABA5AFA7";
paths = (
{
closed = 1;
nodes = (
"218 90 LINE",
"218 64 OFFCURVE",
"213 59 OFFCURVE",
"187 59 CURVE",
"142 59 LINE SMOOTH",
"116 59 OFFCURVE",
"111 64 OFFCURVE",
"111 90 CURVE SMOOTH",
"111 175 LINE",
"42 175 LINE",
"42 79 LINE SMOOTH",
"42 26 OFFCURVE",
"68 0 OFFCURVE",
"121 0 CURVE SMOOTH",
"208 0 LINE SMOOTH",
"261 0 OFFCURVE",
"287 26 OFFCURVE",
"287 79 CURVE SMOOTH",
"287 271 LINE SMOOTH",
"287 324 OFFCURVE",
"261 350 OFFCURVE",
"208 350 CURVE SMOOTH",
"140 350 LINE SMOOTH",
"114 350 OFFCURVE",
"109 355 OFFCURVE",
"109 381 CURVE SMOOTH",
"109 532 LINE SMOOTH",
"109 558 OFFCURVE",
"114 563 OFFCURVE",
"140 563 CURVE SMOOTH",
"186 563 LINE SMOOTH",
"212 563 OFFCURVE",
"217 558 OFFCURVE",
"217 532 CURVE SMOOTH",
"217 447 LINE",
"286 447 LINE",
"286 543 LINE SMOOTH",
"286 596 OFFCURVE",
"260 622 OFFCURVE",
"207 622 CURVE SMOOTH",
"119 622 LINE SMOOTH",
"66 622 OFFCURVE",
"40 596 OFFCURVE",
"40 543 CURVE SMOOTH",
"40 370 LINE SMOOTH",
"40 317 OFFCURVE",
"66 291 OFFCURVE",
"119 291 CURVE SMOOTH",
"187 291 LINE SMOOTH",
"213 291 OFFCURVE",
"218 286 OFFCURVE",
"218 260 CURVE SMOOTH"
);
}
);
width = 327;
}
);
unicode = 0053;
},
{
glyphname = T;
layers = (
{
layerId = "DEF7E4D1-2777-4333-B76D-D32E6812EDA5";
paths = (
{
closed = 1;
nodes = (
"128 582 LINE",
"128 0 LINE",
"303 0 LINE",
"303 582 LINE"
);
},
{
closed = 1;
nodes = (
"427 642 LINE",
"5 642 LINE",
"5 517 LINE",
"427 517 LINE"
);
}
);
width = 432;
},
{
layerId = "D7ED940C-AEED-448E-AD50-67D9ABA5AFA7";
paths = (
{
closed = 1;
nodes = (
"105 622 LINE",
"105 0 LINE",
"173 0 LINE",
"173 622 LINE"
);
},
{
closed = 1;
nodes = (
"273 622 LINE",
"5 622 LINE",
"5 563 LINE",
"273 563 LINE"
);
}
);
width = 278;
}
);
unicode = 0054;
},
{
glyphname = U;
layers = (
{
layerId = "DEF7E4D1-2777-4333-B76D-D32E6812EDA5";
paths = (
{
closed = 1;
nodes = (
"307 147 LINE SMOOTH",
"307 132 OFFCURVE",
"299 125 OFFCURVE",
"282 125 CURVE SMOOTH",
"249 125 LINE",
"249 0 LINE",
"335 0 LINE SMOOTH",
"442 0 OFFCURVE",
"482 49 OFFCURVE",
"482 124 CURVE SMOOTH",
"482 642 LINE",
"307 642 LINE"
);
},
{
closed = 1;
nodes = (
"215 642 LINE",
"40 642 LINE",
"40 124 LINE SMOOTH",
"40 49 OFFCURVE",
"80 0 OFFCURVE",
"187 0 CURVE SMOOTH",
"273 0 LINE",
"273 125 LINE",
"240 125 LINE SMOOTH",
"223 125 OFFCURVE",
"215 132 OFFCURVE",
"215 147 CURVE SMOOTH"
);
}
);
width = 522;
},
{
layerId = "D7ED940C-AEED-448E-AD50-67D9ABA5AFA7";
paths = (
{
closed = 1;
nodes = (
"244 90 LINE",
"244 64 OFFCURVE",
"239 59 OFFCURVE",
"213 59 CURVE SMOOTH",
"172 59 LINE",
"172 0 LINE",
"233 0 LINE SMOOTH",
"286 0 OFFCURVE",
"312 26 OFFCURVE",
"312 79 CURVE SMOOTH",
"312 622 LINE",
"244 622 LINE"
);
},
{
closed = 1;
nodes = (
"120 622 LINE",
"52 622 LINE",
"52 79 LINE SMOOTH",
"52 26 OFFCURVE",
"78 0 OFFCURVE",
"131 0 CURVE SMOOTH",
"182 0 LINE",
"182 59 LINE",
"151 59 LINE SMOOTH",
"125 59 OFFCURVE",
"120 64 OFFCURVE",
"120 90 CURVE SMOOTH"
);
}
);
width = 364;
}
);
unicode = 0055;
},
{
glyphname = V;
layers = (
{
layerId = "DEF7E4D1-2777-4333-B76D-D32E6812EDA5";
paths = (
{
closed = 1;
nodes = (
"344 642 LINE",
"266 213 LINE",
"189 642 LINE",
"7 642 LINE",
"165 0 LINE",
"368 0 LINE",
"526 642 LINE"
);
}
);
width = 533;
},
{
layerId = "D7ED940C-AEED-448E-AD50-67D9ABA5AFA7";
paths = (
{
closed = 1;
nodes = (
"245 622 LINE",
"159 48 LINE",
"74 622 LINE",
"5 622 LINE",
"105 0 LINE",
"214 0 LINE",
"314 622 LINE"
);
}
);
width = 319;
}
);
unicode = 0056;
},
{
glyphname = W;
layers = (
{
layerId = "DEF7E4D1-2777-4333-B76D-D32E6812EDA5";
paths = (
{
closed = 1;
nodes = (
"653 642 LINE",
"589 210 LINE",
"503 642 LINE",
"332 642 LINE",
"246 210 LINE",
"192 642 LINE",
"10 642 LINE",
"146 0 LINE",
"347 0 LINE",
"418 383 LINE",
"489 0 LINE",
"690 0 LINE",
"826 642 LINE"
);
}
);
width = 836;
},
{
layerId = "D7ED940C-AEED-448E-AD50-67D9ABA5AFA7";
paths = (
{
closed = 1;
nodes = (
"470 622 LINE",
"394 48 LINE",
"315 622 LINE",
"233 622 LINE",
"154 48 LINE",
"79 622 LINE",
"10 622 LINE",
"101 0 LINE",
"205 0 LINE",
"274 493 LINE",
"344 0 LINE",
"448 0 LINE",
"539 622 LINE"
);
}
);
width = 549;
}
);
unicode = 0057;
},
{
glyphname = X;
layers = (
{
layerId = "DEF7E4D1-2777-4333-B76D-D32E6812EDA5";
paths = (
{
closed = 1;
nodes = (
"354 326 LINE",
"497 642 LINE",
"309 642 LINE",
"255 478 LINE",
"202 642 LINE",
"4 642 LINE",
"157 326 LINE",
"0 0 LINE",
"186 0 LINE",
"255 180 LINE",
"324 0 LINE",
"521 0 LINE"
);
}
);
width = 521;
},
{
layerId = "D7ED940C-AEED-448E-AD50-67D9ABA5AFA7";
paths = (
{
closed = 1;
nodes = (
"203 318 LINE",
"319 622 LINE",
"245 622 LINE",
"167 380 LINE",
"89 622 LINE",
"15 622 LINE",
"131 318 LINE",
"5 0 LINE",
"79 0 LINE",
"167 253 LINE",
"255 0 LINE",
"329 0 LINE"
);
}
);
width = 334;
}
);
unicode = 0058;
},
{
glyphname = Y;
layers = (
{
layerId = "DEF7E4D1-2777-4333-B76D-D32E6812EDA5";
paths = (
{
closed = 1;
nodes = (
"340 179 LINE",
"519 642 LINE",
"341 642 LINE",
"263 371 LINE",
"179 642 LINE",
"0 642 LINE",
"189 179 LINE"
);
},
{
closed = 1;
nodes = (
"177 272 LINE",
"177 0 LINE",
"352 0 LINE",
"352 272 LINE"
);
}
);
width = 519;
},
{
layerId = "D7ED940C-AEED-448E-AD50-67D9ABA5AFA7";
paths = (
{
closed = 1;
nodes = (
"196 190 LINE",
"314 622 LINE",
"245 622 LINE",
"162 257 LINE",
"74 622 LINE",
"5 622 LINE",
"128 190 LINE"
);
},
{
closed = 1;
nodes = (
"128 229 LINE",
"128 0 LINE",
"196 0 LINE",
"196 229 LINE"
);
}
);
width = 319;
}
);
unicode = 0059;
},
{
glyphname = Z;
layers = (
{
layerId = "DEF7E4D1-2777-4333-B76D-D32E6812EDA5";
paths = (
{
closed = 1;
nodes = (
"444 642 LINE",
"33 642 LINE",
"33 517 LINE",
"444 517 LINE"
);
},
{
closed = 1;
nodes = (
"261 517 LINE",
"20 125 LINE",
"203 125 LINE",
"444 517 LINE"
);
},
{
closed = 1;
nodes = (
"437 125 LINE",
"20 125 LINE",
"20 0 LINE",
"437 0 LINE"
);
}
);
width = 464;
},
{
layerId = "D7ED940C-AEED-448E-AD50-67D9ABA5AFA7";
paths = (
{
closed = 1;
nodes = (
"268 623 LINE",
"15 623 LINE",
"15 564 LINE",
"268 564 LINE"
);
},
{
closed = 1;
nodes = (
"200 564 LINE",
"5 59 LINE",
"73 59 LINE",
"268 564 LINE"
);
},
{
closed = 1;
nodes = (
"263 59 LINE",
"5 59 LINE",
"5 0 LINE",
"263 0 LINE"
);
}
);
width = 273;
}
);
unicode = 005A;
},
{
glyphname = bracketleft;
layers = (
{
layerId = "DEF7E4D1-2777-4333-B76D-D32E6812EDA5";
paths = (
{
closed = 1;
nodes = (
"99 666 LINE",
"307 666 LINE",
"307 791 LINE",
"99 791 LINE"
);
},
{
closed = 1;
nodes = (
"40 791 LINE",
"40 -157 LINE",
"215 -157 LINE",
"215 791 LINE"
);
},
{
closed = 1;
nodes = (
"99 -157 LINE",
"307 -157 LINE",
"307 -32 LINE",
"99 -32 LINE"
);
}
);
width = 317;
},
{
layerId = "D7ED940C-AEED-448E-AD50-67D9ABA5AFA7";
paths = (
{
closed = 1;
nodes = (
"102 722 LINE",
"233 722 LINE",
"233 781 LINE",
"102 781 LINE"
);
},
{
closed = 1;
nodes = (
"63 781 LINE",
"63 -167 LINE",
"132 -167 LINE",
"132 781 LINE"
);
},
{
closed = 1;
nodes = (
"91 -167 LINE",
"233 -167 LINE",
"233 -108 LINE",
"91 -108 LINE"
);
}
);
width = 309;
}
);
unicode = 005B;
},
{
glyphname = backslash;
layers = (
{
layerId = "DEF7E4D1-2777-4333-B76D-D32E6812EDA5";
paths = (
{
closed = 1;
nodes = (
"-20 702 LINE",
"287 -60 LINE",
"431 -60 LINE",
"124 702 LINE"
);
}
);
width = 411;
},
{
layerId = "D7ED940C-AEED-448E-AD50-67D9ABA5AFA7";
paths = (
{
closed = 1;
nodes = (
"44 699 LINE",
"308 -136 LINE",
"377 -136 LINE",
"113 699 LINE"
);
}
);
width = 385;
}
);
unicode = 005C;
},
{
glyphname = bracketright;
layers = (
{
layerId = "DEF7E4D1-2777-4333-B76D-D32E6812EDA5";
paths = (
{
closed = 1;
nodes = (
"218 791 LINE",
"10 791 LINE",
"10 666 LINE",
"218 666 LINE"
);
},
{
closed = 1;
nodes = (
"102 791 LINE",
"102 -157 LINE",
"277 -157 LINE",
"277 791 LINE"
);
},
{
closed = 1;
nodes = (
"218 -32 LINE",
"10 -32 LINE",
"10 -157 LINE",
"218 -157 LINE"
);
}
);
width = 317;
},
{
layerId = "D7ED940C-AEED-448E-AD50-67D9ABA5AFA7";
paths = (
{
closed = 1;
nodes = (
"184 781 LINE",
"53 781 LINE",
"53 722 LINE",
"184 722 LINE"
);
},
{
closed = 1;
nodes = (
"154 781 LINE",
"154 -167 LINE",
"223 -167 LINE",
"223 781 LINE"
);
},
{
closed = 1;
nodes = (
"195 -108 LINE",
"53 -108 LINE",
"53 -167 LINE",
"195 -167 LINE"
);
}
);
width = 309;
}
);
unicode = 005D;
},
{
glyphname = asciicircum;
layers = (
{
layerId = "DEF7E4D1-2777-4333-B76D-D32E6812EDA5";
paths = (
{
closed = 1;
nodes = (
"214 669 LINE",
"92 280 LINE",
"269 280 LINE",
"330 525 LINE",
"391 280 LINE",
"568 280 LINE",
"446 669 LINE"
);
}
);
width = 704;
},
{
layerId = "D7ED940C-AEED-448E-AD50-67D9ABA5AFA7";
paths = (
{
closed = 1;
nodes = (
"180 671 LINE",
"45 327 LINE",
"117 327 LINE",
"221 604 LINE",
"326 327 LINE",
"398 327 LINE",
"263 671 LINE"
);
}
);
width = 443;
}
);
unicode = 005E;
},
{
glyphname = underscore;
layers = (
{
layerId = "DEF7E4D1-2777-4333-B76D-D32E6812EDA5";
paths = (
{
closed = 1;
nodes = (
"0 -155 LINE",
"474 -155 LINE",
"474 -40 LINE",
"0 -40 LINE"
);
}
);
width = 474;
},
{
layerId = "D7ED940C-AEED-448E-AD50-67D9ABA5AFA7";
paths = (
{
closed = 1;
nodes = (
"0 -103 LINE",
"474 -103 LINE",
"474 -44 LINE",
"0 -44 LINE"
);
}
);
width = 474;
}
);
unicode = 005F;
},
{
glyphname = grave;
layers = (
{
layerId = "DEF7E4D1-2777-4333-B76D-D32E6812EDA5";
paths = (
{
closed = 1;
nodes = (
"266 682 LINE",
"96 682 LINE",
"229 532 LINE",
"363 532 LINE"
);
}
);
width = 500;
},
{
layerId = "D7ED940C-AEED-448E-AD50-67D9ABA5AFA7";
paths = (
{
closed = 1;
nodes = (
"203 643 LINE",
"121 643 LINE",
"219 516 LINE",
"281 516 LINE"
);
}
);
width = 400;
}
);
unicode = 0060;
},
{
glyphname = a;
layers = (
{
layerId = "DEF7E4D1-2777-4333-B76D-D32E6812EDA5";
paths = (
{
closed = 1;
nodes = (
"200 240 LINE",
"200 352 LINE SMOOTH",
"200 367 OFFCURVE",
"208 374 OFFCURVE",
"225 374 CURVE SMOOTH",
"242 374 LINE SMOOTH",
"260 374 OFFCURVE",
"269 365 OFFCURVE",
"269 344 CURVE SMOOTH",
"269 317 LINE",
"275 317 LINE",
"275 407 LINE SMOOTH",
"275 463 OFFCURVE",
"244 499 OFFCURVE",
"181 499 CURVE SMOOTH",
"163 499 LINE SMOOTH",
"68 499 OFFCURVE",
"30 450 OFFCURVE",
"30 375 CURVE SMOOTH",
"30 240 LINE"
);
},
{
closed = 1;
nodes = (
"439 0 LINE",
"439 499 LINE",
"272 499 LINE",
"272 404 LINE",
"269 404 LINE",
"269 0 LINE"
);
},
{
closed = 1;
nodes = (
"30 259 LINE",
"30 124 LINE SMOOTH",
"30 49 OFFCURVE",
"68 0 OFFCURVE",
"163 0 CURVE SMOOTH",
"181 0 LINE SMOOTH",
"244 0 OFFCURVE",
"275 36 OFFCURVE",
"275 92 CURVE SMOOTH",
"275 182 LINE",
"269 182 LINE",
"269 155 LINE SMOOTH",
"269 134 OFFCURVE",
"260 125 OFFCURVE",
"242 125 CURVE SMOOTH",
"225 125 LINE SMOOTH",
"208 125 OFFCURVE",
"200 132 OFFCURVE",
"200 147 CURVE SMOOTH",
"200 259 LINE"
);
}
);
width = 479;
},
{
layerId = "D7ED940C-AEED-448E-AD50-67D9ABA5AFA7";
paths = (
{
closed = 1;
nodes = (
"109 224 LINE",
"109 395 LINE SMOOTH",
"109 421 OFFCURVE",
"114 426 OFFCURVE",
"140 426 CURVE SMOOTH",
"180 426 LINE SMOOTH",
"204 426 OFFCURVE",
"214 417 OFFCURVE",
"214 390 CURVE SMOOTH",
"214 362 LINE",
"218 362 LINE",
"218 424 LINE SMOOTH",
"218 469 OFFCURVE",
"194 485 OFFCURVE",
"159 485 CURVE SMOOTH",
"119 485 LINE SMOOTH",
"66 485 OFFCURVE",
"40 459 OFFCURVE",
"40 406 CURVE SMOOTH",
"40 224 LINE"
);
},
{
closed = 1;
nodes = (
"283 0 LINE",
"283 485 LINE",
"214 485 LINE",
"214 430 LINE",
"214 422 LINE",
"214 0 LINE"
);
},
{
closed = 1;
nodes = (
"40 261 LINE",
"40 79 LINE SMOOTH",
"40 26 OFFCURVE",
"66 0 OFFCURVE",
"119 0 CURVE SMOOTH",
"159 0 LINE SMOOTH",
"194 0 OFFCURVE",
"218 16 OFFCURVE",
"218 61 CURVE",
"218 121 LINE",
"214 121 LINE",
"214 95 LINE SMOOTH",
"214 68 OFFCURVE",
"204 59 OFFCURVE",
"180 59 CURVE SMOOTH",
"140 59 LINE SMOOTH",
"114 59 OFFCURVE",
"109 64 OFFCURVE",
"109 90 CURVE SMOOTH",
"109 261 LINE"
);
}
);
width = 328;
}
);
unicode = 0061;
},
{
glyphname = b;
layers = (
{
layerId = "DEF7E4D1-2777-4333-B76D-D32E6812EDA5";
paths = (
{
closed = 1;
nodes = (
"279 259 LINE",
"279 147 LINE SMOOTH",
"279 132 OFFCURVE",
"271 125 OFFCURVE",
"254 125 CURVE SMOOTH",
"237 125 LINE SMOOTH",
"219 125 OFFCURVE",
"210 134 OFFCURVE",
"210 155 CURVE SMOOTH",
"210 182 LINE",
"204 182 LINE",
"204 92 LINE SMOOTH",
"204 36 OFFCURVE",
"235 0 OFFCURVE",
"298 0 CURVE SMOOTH",
"316 0 LINE SMOOTH",
"411 0 OFFCURVE",
"449 49 OFFCURVE",
"449 124 CURVE SMOOTH",
"449 259 LINE"
);
},
{
closed = 1;
nodes = (
"449 240 LINE",
"449 375 LINE SMOOTH",
"449 450 OFFCURVE",
"411 499 OFFCURVE",
"316 499 CURVE SMOOTH",
"298 499 LINE SMOOTH",
"235 499 OFFCURVE",
"204 463 OFFCURVE",
"204 407 CURVE SMOOTH",
"204 317 LINE",
"210 317 LINE",
"210 344 LINE SMOOTH",
"210 365 OFFCURVE",
"219 374 OFFCURVE",
"237 374 CURVE SMOOTH",
"254 374 LINE SMOOTH",
"271 374 OFFCURVE",
"279 367 OFFCURVE",
"279 352 CURVE SMOOTH",
"279 240 LINE"
);
},
{
closed = 1;
nodes = (
"40 669 LINE",
"40 0 LINE",
"207 0 LINE",
"207 95 LINE",
"210 95 LINE",
"210 669 LINE"
);
}
);
width = 479;
},
{
layerId = "D7ED940C-AEED-448E-AD50-67D9ABA5AFA7";
paths = (
{
closed = 1;
nodes = (
"219 262 LINE",
"219 90 LINE SMOOTH",
"219 64 OFFCURVE",
"214 59 OFFCURVE",
"188 59 CURVE SMOOTH",
"148 59 LINE SMOOTH",
"124 59 OFFCURVE",
"114 68 OFFCURVE",
"114 95 CURVE SMOOTH",
"114 118 LINE",
"110 117 LINE",
"110 61 LINE SMOOTH",
"110 16 OFFCURVE",
"134 0 OFFCURVE",
"169 0 CURVE SMOOTH",
"209 0 LINE SMOOTH",
"262 0 OFFCURVE",
"288 26 OFFCURVE",
"288 79 CURVE SMOOTH",
"288 262 LINE"
);
},
{
closed = 1;
nodes = (
"288 225 LINE",
"288 407 LINE SMOOTH",
"288 460 OFFCURVE",
"262 486 OFFCURVE",
"209 486 CURVE SMOOTH",
"169 486 LINE SMOOTH",
"134 486 OFFCURVE",
"110 470 OFFCURVE",
"110 425 CURVE SMOOTH",
"110 357 LINE",
"114 357 LINE",
"114 391 LINE SMOOTH",
"114 418 OFFCURVE",
"124 427 OFFCURVE",
"148 427 CURVE SMOOTH",
"188 427 LINE SMOOTH",
"214 427 OFFCURVE",
"219 422 OFFCURVE",
"219 396 CURVE SMOOTH",
"219 225 LINE"
);
},
{
closed = 1;
nodes = (
"45 669 LINE",
"45 0 LINE",
"114 0 LINE",
"114 53 LINE",
"114 60 LINE",
"114 669 LINE"
);
}
);
width = 328;
}
);
unicode = 0062;
},
{
glyphname = c;
layers = (
{
layerId = "DEF7E4D1-2777-4333-B76D-D32E6812EDA5";
paths = (
{
closed = 1;
nodes = (
"200 352 LINE SMOOTH",
"200 367 OFFCURVE",
"208 374 OFFCURVE",
"225 374 CURVE SMOOTH",
"244 374 LINE",
"244 499 LINE",
"177 499 LINE SMOOTH",
"70 499 OFFCURVE",
"30 450 OFFCURVE",
"30 375 CURVE SMOOTH",
"30 124 LINE SMOOTH",
"30 49 OFFCURVE",
"70 0 OFFCURVE",
"177 0 CURVE SMOOTH",
"245 0 LINE",
"245 125 LINE",
"225 125 LINE SMOOTH",
"208 125 OFFCURVE",
"200 132 OFFCURVE",
"200 147 CURVE SMOOTH"
);
},
{
closed = 1;
nodes = (
"267 306 LINE",
"431 306 LINE",
"431 375 LINE SMOOTH",
"431 450 OFFCURVE",
"391 499 OFFCURVE",
"284 499 CURVE SMOOTH",
"230 499 LINE",
"230 374 LINE",
"242 374 LINE SMOOTH",
"259 374 OFFCURVE",
"267 367 OFFCURVE",
"267 352 CURVE SMOOTH"
);
},
{
closed = 1;
nodes = (
"267 147 LINE SMOOTH",
"267 132 OFFCURVE",
"259 125 OFFCURVE",
"242 125 CURVE SMOOTH",
"230 125 LINE",
"230 0 LINE",
"284 0 LINE SMOOTH",
"391 0 OFFCURVE",
"431 49 OFFCURVE",
"431 124 CURVE SMOOTH",
"431 193 LINE",
"267 193 LINE"
);
}
);
width = 451;
},
{
layerId = "D7ED940C-AEED-448E-AD50-67D9ABA5AFA7";
paths = (
{
closed = 1;
nodes = (
"109 395 LINE",
"109 421 OFFCURVE",
"114 426 OFFCURVE",
"140 426 CURVE SMOOTH",
"171 426 LINE",
"171 485 LINE",
"119 485 LINE SMOOTH",
"66 485 OFFCURVE",
"40 459 OFFCURVE",
"40 406 CURVE SMOOTH",
"40 79 LINE SMOOTH",
"40 26 OFFCURVE",
"66 0 OFFCURVE",
"119 0 CURVE",
"164 0 LINE",
"164 59 LINE",
"140 59 LINE SMOOTH",
"114 59 OFFCURVE",
"109 64 OFFCURVE",
"109 90 CURVE SMOOTH"
);
},
{
closed = 1;
nodes = (
"221 341 LINE",
"290 341 LINE",
"290 406 LINE SMOOTH",
"290 459 OFFCURVE",
"264 485 OFFCURVE",
"211 485 CURVE SMOOTH",
"156 485 LINE",
"156 426 LINE",
"190 426 LINE SMOOTH",
"216 426 OFFCURVE",
"221 421 OFFCURVE",
"221 395 CURVE SMOOTH"
);
},
{
closed = 1;
nodes = (
"221 90 LINE",
"221 64 OFFCURVE",
"216 59 OFFCURVE",
"190 59 CURVE SMOOTH",
"156 59 LINE",
"156 0 LINE",
"211 0 LINE SMOOTH",
"264 0 OFFCURVE",
"290 26 OFFCURVE",
"290 79 CURVE SMOOTH",
"290 144 LINE",
"221 144 LINE"
);
}
);
width = 325;
}
);
unicode = 0063;
},
{
glyphname = d;
layers = (
{
layerId = "DEF7E4D1-2777-4333-B76D-D32E6812EDA5";
paths = (
{
closed = 1;
nodes = (
"200 240 LINE",
"200 352 LINE SMOOTH",
"200 367 OFFCURVE",
"208 374 OFFCURVE",
"225 374 CURVE SMOOTH",
"242 374 LINE SMOOTH",
"260 374 OFFCURVE",
"269 365 OFFCURVE",
"269 344 CURVE SMOOTH",
"269 317 LINE",
"275 317 LINE",
"275 407 LINE SMOOTH",
"275 463 OFFCURVE",
"244 499 OFFCURVE",
"181 499 CURVE SMOOTH",
"163 499 LINE SMOOTH",
"68 499 OFFCURVE",
"30 450 OFFCURVE",
"30 375 CURVE SMOOTH",
"30 240 LINE"
);
},
{
closed = 1;
nodes = (
"269 669 LINE",
"269 95 LINE",
"272 95 LINE",
"272 0 LINE",
"439 0 LINE",
"439 669 LINE"
);
},
{
closed = 1;
nodes = (
"30 259 LINE",
"30 124 LINE SMOOTH",
"30 49 OFFCURVE",
"68 0 OFFCURVE",
"163 0 CURVE SMOOTH",
"181 0 LINE SMOOTH",
"244 0 OFFCURVE",
"275 36 OFFCURVE",
"275 92 CURVE SMOOTH",
"275 182 LINE",
"269 182 LINE",
"269 155 LINE SMOOTH",
"269 134 OFFCURVE",
"260 125 OFFCURVE",
"242 125 CURVE SMOOTH",
"225 125 LINE SMOOTH",
"208 125 OFFCURVE",
"200 132 OFFCURVE",
"200 147 CURVE SMOOTH",
"200 259 LINE"
);
}
);
width = 479;
},
{
layerId = "D7ED940C-AEED-448E-AD50-67D9ABA5AFA7";
paths = (
{
closed = 1;
nodes = (
"109 225 LINE",
"109 396 LINE SMOOTH",
"109 422 OFFCURVE",
"114 427 OFFCURVE",
"140 427 CURVE SMOOTH",
"180 427 LINE SMOOTH",
"204 427 OFFCURVE",
"214 418 OFFCURVE",
"214 391 CURVE SMOOTH",
"214 357 LINE",
"218 357 LINE",
"218 425 LINE SMOOTH",
"218 470 OFFCURVE",
"194 486 OFFCURVE",
"159 486 CURVE SMOOTH",
"119 486 LINE SMOOTH",
"66 486 OFFCURVE",
"40 460 OFFCURVE",
"40 407 CURVE SMOOTH",
"40 225 LINE"
);
},
{
closed = 1;
nodes = (
"214 669 LINE",
"214 60 LINE",
"214 53 LINE",
"214 0 LINE",
"283 0 LINE",
"283 669 LINE"
);
},
{
closed = 1;
nodes = (
"40 262 LINE",
"40 79 LINE SMOOTH",
"40 26 OFFCURVE",
"66 0 OFFCURVE",
"119 0 CURVE SMOOTH",
"159 0 LINE SMOOTH",
"194 0 OFFCURVE",
"218 16 OFFCURVE",
"218 61 CURVE SMOOTH",
"218 117 LINE",
"214 118 LINE",
"214 95 LINE SMOOTH",
"214 68 OFFCURVE",
"204 59 OFFCURVE",
"180 59 CURVE SMOOTH",
"140 59 LINE SMOOTH",
"114 59 OFFCURVE",
"109 64 OFFCURVE",
"109 90 CURVE SMOOTH",
"109 262 LINE"
);
}
);
width = 328;
}
);
unicode = 0064;
},
{
glyphname = e;
layers = (
{
layerId = "DEF7E4D1-2777-4333-B76D-D32E6812EDA5";
paths = (
{
closed = 1;
nodes = (
"191 360 LINE SMOOTH",
"191 375 OFFCURVE",
"199 382 OFFCURVE",
"216 382 CURVE SMOOTH",
"244 382 LINE",
"244 499 LINE",
"177 499 LINE SMOOTH",
"70 499 OFFCURVE",
"30 450 OFFCURVE",
"30 375 CURVE SMOOTH",
"30 124 LINE SMOOTH",
"30 49 OFFCURVE",
"70 0 OFFCURVE",
"177 0 CURVE SMOOTH",
"245 0 LINE",
"245 117 LINE",
"216 117 LINE SMOOTH",
"199 117 OFFCURVE",
"191 124 OFFCURVE",
"191 139 CURVE SMOOTH"
);
},
{
closed = 1;
nodes = (
"285 227 LINE",
"446 227 LINE",
"446 375 LINE SMOOTH",
"446 450 OFFCURVE",
"406 499 OFFCURVE",
"299 499 CURVE SMOOTH",
"239 499 LINE",
"239 382 LINE",
"260 382 LINE SMOOTH",
"277 382 OFFCURVE",
"285 375 OFFCURVE",
"285 360 CURVE SMOOTH"
);
},
{
closed = 1;
nodes = (
"285 141 LINE SMOOTH",
"285 126 OFFCURVE",
"277 117 OFFCURVE",
"260 117 CURVE SMOOTH",
"239 117 LINE",
"239 0 LINE",
"299 0 LINE SMOOTH",
"406 0 OFFCURVE",
"446 49 OFFCURVE",
"446 124 CURVE SMOOTH",
"446 169 LINE",
"285 169 LINE"
);
},
{
closed = 1;
nodes = (
"446 297 LINE",
"71 297 LINE",
"71 205 LINE",
"446 205 LINE"
);
}
);
width = 471;
},
{
layerId = "D7ED940C-AEED-448E-AD50-67D9ABA5AFA7";
paths = (
{
closed = 1;
nodes = (
"114 395 LINE",
"114 421 OFFCURVE",
"119 426 OFFCURVE",
"145 426 CURVE SMOOTH",
"176 426 LINE",
"176 485 LINE",
"124 485 LINE SMOOTH",
"71 485 OFFCURVE",
"45 459 OFFCURVE",
"45 406 CURVE SMOOTH",
"45 79 LINE SMOOTH",
"45 26 OFFCURVE",
"71 0 OFFCURVE",
"124 0 CURVE",
"169 0 LINE",
"169 59 LINE",
"145 59 LINE SMOOTH",
"119 59 OFFCURVE",
"114 64 OFFCURVE",
"114 90 CURVE SMOOTH"
);
},
{
closed = 1;
nodes = (
"226 229 LINE",
"295 229 LINE",
"295 406 LINE SMOOTH",
"295 459 OFFCURVE",
"269 485 OFFCURVE",
"216 485 CURVE SMOOTH",
"161 485 LINE",
"161 426 LINE",
"195 426 LINE SMOOTH",
"221 426 OFFCURVE",
"226 421 OFFCURVE",
"226 395 CURVE SMOOTH"
);
},
{
closed = 1;
nodes = (
"223 90 LINE",
"223 64 OFFCURVE",
"218 59 OFFCURVE",
"192 59 CURVE SMOOTH",
"161 59 LINE",
"161 0 LINE",
"213 0 LINE SMOOTH",
"266 0 OFFCURVE",
"292 26 OFFCURVE",
"292 79 CURVE SMOOTH",
"292 134 LINE",
"223 134 LINE"
);
},
{
closed = 1;
nodes = (
"295 278 LINE",
"75 278 LINE",
"75 219 LINE",
"295 219 LINE"
);
}
);
width = 330;
}
);
unicode = 0065;
},
{
glyphname = f;
layers = (
{
layerId = "DEF7E4D1-2777-4333-B76D-D32E6812EDA5";
paths = (
{
closed = 1;
nodes = (
"231 527 LINE SMOOTH",
"231 542 OFFCURVE",
"239 549 OFFCURVE",
"256 549 CURVE SMOOTH",
"309 549 LINE",
"309 669 LINE",
"208 669 LINE SMOOTH",
"101 669 OFFCURVE",
"61 620 OFFCURVE",
"61 545 CURVE SMOOTH",
"61 0 LINE",
"231 0 LINE"
);
},
{
closed = 1;
nodes = (
"309 499 LINE",
"10 499 LINE",
"10 374 LINE",
"309 374 LINE"
);
}
);
width = 314;
},
{
layerId = "D7ED940C-AEED-448E-AD50-67D9ABA5AFA7";
paths = (
{
closed = 1;
nodes = (
"122 574 LINE",
"122 600 OFFCURVE",
"127 605 OFFCURVE",
"153 605 CURVE SMOOTH",
"192 605 LINE",
"192 669 LINE",
"132 669 LINE SMOOTH",
"79 669 OFFCURVE",
"53 643 OFFCURVE",
"53 590 CURVE SMOOTH",
"53 0 LINE",
"122 0 LINE"
);
},
{
closed = 1;
nodes = (
"192 485 LINE",
"5 485 LINE",
"5 426 LINE",
"192 426 LINE"
);
}
);
width = 197;
}
);
unicode = 0066;
},
{
glyphname = g;
layers = (
{
layerId = "DEF7E4D1-2777-4333-B76D-D32E6812EDA5";
paths = (
{
closed = 1;
nodes = (
"30 259 LINE",
"30 154 LINE SMOOTH",
"30 79 OFFCURVE",
"68 30 OFFCURVE",
"163 30 CURVE SMOOTH",
"181 30 LINE SMOOTH",
"244 30 OFFCURVE",
"275 66 OFFCURVE",
"275 122 CURVE SMOOTH",
"275 212 LINE",
"269 212 LINE",
"269 185 LINE SMOOTH",
"269 164 OFFCURVE",
"260 155 OFFCURVE",
"242 155 CURVE SMOOTH",
"225 155 LINE SMOOTH",
"208 155 OFFCURVE",
"200 162 OFFCURVE",
"200 177 CURVE SMOOTH",
"200 259 LINE"
);
},
{
closed = 1;
nodes = (
"200 240 LINE",
"200 352 LINE SMOOTH",
"200 367 OFFCURVE",
"208 374 OFFCURVE",
"225 374 CURVE SMOOTH",
"242 374 LINE SMOOTH",
"260 374 OFFCURVE",
"269 365 OFFCURVE",
"269 344 CURVE SMOOTH",
"269 317 LINE",
"275 317 LINE",
"275 407 LINE SMOOTH",
"275 463 OFFCURVE",
"244 499 OFFCURVE",
"181 499 CURVE SMOOTH",
"163 499 LINE SMOOTH",
"68 499 OFFCURVE",
"30 450 OFFCURVE",
"30 375 CURVE SMOOTH",
"30 240 LINE"
);
},
{
closed = 1;
nodes = (
"269 13 LINE SMOOTH",
"269 -2 OFFCURVE",
"261 -9 OFFCURVE",
"244 -9 CURVE SMOOTH",
"53 -9 LINE",
"53 -129 LINE",
"292 -129 LINE SMOOTH",
"399 -129 OFFCURVE",
"439 -80 OFFCURVE",
"439 -5 CURVE SMOOTH",
"439 41 LINE",
"269 41 LINE"
);
},
{
closed = 1;
nodes = (
"439 30 LINE",
"439 499 LINE",
"272 499 LINE",
"272 404 LINE",
"269 404 LINE",
"269 30 LINE"
);
}
);
width = 479;
},
{
layerId = "D7ED940C-AEED-448E-AD50-67D9ABA5AFA7";
paths = (
{
closed = 1;
nodes = (
"40 262 LINE",
"40 79 LINE SMOOTH",
"40 26 OFFCURVE",
"66 0 OFFCURVE",
"119 0 CURVE SMOOTH",
"159 0 LINE SMOOTH",
"194 0 OFFCURVE",
"218 16 OFFCURVE",
"218 61 CURVE SMOOTH",
"218 117 LINE",
"214 118 LINE",
"214 95 LINE SMOOTH",
"214 68 OFFCURVE",
"204 59 OFFCURVE",
"180 59 CURVE SMOOTH",
"140 59 LINE SMOOTH",
"114 59 OFFCURVE",
"109 64 OFFCURVE",
"109 90 CURVE SMOOTH",
"109 262 LINE"
);
},
{
closed = 1;
nodes = (
"109 224 LINE",
"109 395 LINE SMOOTH",
"109 421 OFFCURVE",
"114 426 OFFCURVE",
"140 426 CURVE SMOOTH",
"180 426 LINE SMOOTH",
"204 426 OFFCURVE",
"214 417 OFFCURVE",
"214 390 CURVE SMOOTH",
"214 356 LINE",
"218 356 LINE",
"218 424 LINE SMOOTH",
"218 469 OFFCURVE",
"194 485 OFFCURVE",
"159 485 CURVE SMOOTH",
"119 485 LINE SMOOTH",
"66 485 OFFCURVE",
"40 459 OFFCURVE",
"40 406 CURVE SMOOTH",
"40 224 LINE"
);
},
{
closed = 1;
nodes = (
"214 -51 LINE",
"214 -77 OFFCURVE",
"209 -82 OFFCURVE",
"183 -82 CURVE SMOOTH",
"55 -82 LINE",
"55 -141 LINE",
"204 -141 LINE SMOOTH",
"257 -141 OFFCURVE",
"283 -115 OFFCURVE",
"283 -62 CURVE SMOOTH",
"283 10 LINE",
"214 10 LINE"
);
},
{
closed = 1;
nodes = (
"283 -2 LINE",
"283 485 LINE",
"214 485 LINE",
"214 435 LINE",
"214 432 LINE",
"214 -2 LINE"
);
}
);
width = 328;
}
);
unicode = 0067;
},
{
glyphname = h;
layers = (
{
layerId = "DEF7E4D1-2777-4333-B76D-D32E6812EDA5";
paths = (
{
closed = 1;
nodes = (
"449 0 LINE",
"449 375 LINE SMOOTH",
"449 450 OFFCURVE",
"411 499 OFFCURVE",
"316 499 CURVE SMOOTH",
"298 499 LINE SMOOTH",
"235 499 OFFCURVE",
"204 463 OFFCURVE",
"204 407 CURVE SMOOTH",
"204 317 LINE",
"210 317 LINE",
"210 344 LINE SMOOTH",
"210 365 OFFCURVE",
"219 374 OFFCURVE",
"237 374 CURVE SMOOTH",
"254 374 LINE SMOOTH",
"271 374 OFFCURVE",
"279 367 OFFCURVE",
"279 352 CURVE SMOOTH",
"279 0 LINE"
);
},
{
closed = 1;
nodes = (
"210 0 LINE",
"210 669 LINE",
"40 669 LINE",
"40 0 LINE"
);
}
);
width = 484;
},
{
layerId = "D7ED940C-AEED-448E-AD50-67D9ABA5AFA7";
paths = (
{
closed = 1;
nodes = (
"288 0 LINE",
"288 406 LINE SMOOTH",
"288 459 OFFCURVE",
"262 485 OFFCURVE",
"209 485 CURVE SMOOTH",
"169 485 LINE SMOOTH",
"134 485 OFFCURVE",
"110 469 OFFCURVE",
"110 424 CURVE SMOOTH",
"110 359 LINE",
"114 359 LINE",
"114 390 LINE SMOOTH",
"114 417 OFFCURVE",
"124 426 OFFCURVE",
"148 426 CURVE SMOOTH",
"188 426 LINE SMOOTH",
"214 426 OFFCURVE",
"219 421 OFFCURVE",
"219 395 CURVE SMOOTH",
"219 0 LINE"
);
},
{
closed = 1;
nodes = (
"114 0 LINE",
"114 669 LINE",
"45 669 LINE",
"45 0 LINE"
);
}
);
width = 333;
}
);
unicode = 0068;
},
{
glyphname = i;
layers = (
{
layerId = "DEF7E4D1-2777-4333-B76D-D32E6812EDA5";
paths = (
{
closed = 1;
nodes = (
"210 0 LINE",
"210 499 LINE",
"40 499 LINE",
"40 0 LINE"
);
},
{
closed = 1;
nodes = (
"37 549 LINE",
"213 549 LINE",
"213 669 LINE",
"37 669 LINE"
);
}
);
width = 250;
},
{
layerId = "D7ED940C-AEED-448E-AD50-67D9ABA5AFA7";
paths = (
{
closed = 1;
nodes = (
"114 0 LINE",
"114 485 LINE",
"45 485 LINE",
"45 0 LINE"
);
},
{
closed = 1;
nodes = (
"43 589 LINE",
"116 589 LINE",
"116 670 LINE",
"43 670 LINE"
);
}
);
width = 159;
}
);
unicode = 0069;
},
{
glyphname = j;
layers = (
{
layerId = "DEF7E4D1-2777-4333-B76D-D32E6812EDA5";
paths = (
{
closed = 1;
nodes = (
"40 13 LINE SMOOTH",
"40 -2 OFFCURVE",
"32 -9 OFFCURVE",
"15 -9 CURVE SMOOTH",
"-18 -9 LINE",
"-18 -129 LINE",
"63 -129 LINE SMOOTH",
"170 -129 OFFCURVE",
"210 -80 OFFCURVE",
"210 -5 CURVE SMOOTH",
"210 499 LINE",
"40 499 LINE"
);
},
{
closed = 1;
nodes = (
"37 549 LINE",
"213 549 LINE",
"213 669 LINE",
"37 669 LINE"
);
}
);
width = 250;
},
{
layerId = "D7ED940C-AEED-448E-AD50-67D9ABA5AFA7";
paths = (
{
closed = 1;
nodes = (
"45 -51 LINE",
"45 -77 OFFCURVE",
"40 -82 OFFCURVE",
"14 -82 CURVE SMOOTH",
"0 -82 LINE",
"0 -141 LINE",
"35 -141 LINE SMOOTH",
"88 -141 OFFCURVE",
"114 -115 OFFCURVE",
"114 -62 CURVE SMOOTH",
"114 485 LINE",
"45 485 LINE"
);
},
{
closed = 1;
nodes = (
"43 589 LINE",
"116 589 LINE",
"116 670 LINE",
"43 670 LINE"
);
}
);
width = 159;
}
);
unicode = 006A;
},
{
glyphname = k;
layers = (
{
layerId = "DEF7E4D1-2777-4333-B76D-D32E6812EDA5";
paths = (
{
closed = 1;
nodes = (
"210 0 LINE",
"210 669 LINE",
"40 669 LINE",
"40 0 LINE"
);
},
{
closed = 1;
nodes = (
"202 253 LINE",
"303 0 LINE",
"480 0 LINE",
"373 253 LINE"
);
},
{
closed = 1;
nodes = (
"373 253 LINE",
"480 499 LINE",
"304 499 LINE",
"202 253 LINE"
);
}
);
width = 475;
},
{
layerId = "D7ED940C-AEED-448E-AD50-67D9ABA5AFA7";
paths = (
{
closed = 1;
nodes = (
"114 0 LINE",
"114 669 LINE",
"45 669 LINE",
"45 0 LINE"
);
},
{
closed = 1;
nodes = (
"136 256 LINE",
"246 0 LINE",
"320 0 LINE",
"207 256 LINE"
);
},
{
closed = 1;
nodes = (
"207 256 LINE",
"320 485 LINE",
"246 485 LINE",
"136 256 LINE"
);
}
);
width = 325;
}
);
unicode = 006B;
},
{
glyphname = l;
layers = (
{
layerId = "DEF7E4D1-2777-4333-B76D-D32E6812EDA5";
paths = (
{
closed = 1;
nodes = (
"210 0 LINE",
"210 669 LINE",
"40 669 LINE",
"40 0 LINE"
);
}
);
width = 250;
},
{
layerId = "D7ED940C-AEED-448E-AD50-67D9ABA5AFA7";
paths = (
{
closed = 1;
nodes = (
"114 0 LINE",
"114 669 LINE",
"45 669 LINE",
"45 0 LINE"
);
}
);
width = 159;
}
);
unicode = 006C;
},
{
glyphname = m;
layers = (
{
layerId = "DEF7E4D1-2777-4333-B76D-D32E6812EDA5";
paths = (
{
closed = 1;
nodes = (
"449 0 LINE",
"449 375 LINE SMOOTH",
"449 450 OFFCURVE",
"411 499 OFFCURVE",
"316 499 CURVE SMOOTH",
"298 499 LINE SMOOTH",
"235 499 OFFCURVE",
"204 463 OFFCURVE",
"204 407 CURVE SMOOTH",
"204 317 LINE",
"210 317 LINE",
"210 344 LINE SMOOTH",
"210 365 OFFCURVE",
"219 374 OFFCURVE",
"237 374 CURVE SMOOTH",
"254 374 LINE SMOOTH",
"271 374 OFFCURVE",
"279 367 OFFCURVE",
"279 352 CURVE SMOOTH",
"279 0 LINE"
);
},
{
closed = 1;
nodes = (
"210 0 LINE",
"210 404 LINE",
"207 404 LINE",
"207 499 LINE",
"40 499 LINE",
"40 0 LINE"
);
},
{
closed = 1;
nodes = (
"688 0 LINE",
"688 375 LINE SMOOTH",
"688 450 OFFCURVE",
"650 499 OFFCURVE",
"555 499 CURVE SMOOTH",
"537 499 LINE SMOOTH",
"474 499 OFFCURVE",
"430 460 OFFCURVE",
"435 404 CURVE SMOOTH",
"443 317 LINE",
"449 317 LINE",
"449 344 LINE SMOOTH",
"449 365 OFFCURVE",
"458 374 OFFCURVE",
"476 374 CURVE SMOOTH",
"493 374 LINE SMOOTH",
"510 374 OFFCURVE",
"518 367 OFFCURVE",
"518 352 CURVE SMOOTH",
"518 0 LINE"
);
}
);
width = 723;
},
{
layerId = "D7ED940C-AEED-448E-AD50-67D9ABA5AFA7";
paths = (
{
closed = 1;
nodes = (
"288 0 LINE",
"288 406 LINE SMOOTH",
"288 459 OFFCURVE",
"262 485 OFFCURVE",
"209 485 CURVE SMOOTH",
"169 485 LINE SMOOTH",
"134 485 OFFCURVE",
"110 469 OFFCURVE",
"110 424 CURVE SMOOTH",
"110 356 LINE",
"114 356 LINE",
"114 390 LINE SMOOTH",
"114 417 OFFCURVE",
"124 426 OFFCURVE",
"148 426 CURVE SMOOTH",
"188 426 LINE SMOOTH",
"214 426 OFFCURVE",
"219 421 OFFCURVE",
"219 395 CURVE SMOOTH",
"219 0 LINE"
);
},
{
closed = 1;
nodes = (
"114 0 LINE",
"114 426 LINE",
"114 433 LINE",
"114 485 LINE",
"45 485 LINE",
"45 0 LINE"
);
},
{
closed = 1;
nodes = (
"462 0 LINE",
"462 406 LINE SMOOTH",
"462 459 OFFCURVE",
"436 485 OFFCURVE",
"383 485 CURVE SMOOTH",
"343 485 LINE SMOOTH",
"305 485 OFFCURVE",
"279 468 OFFCURVE",
"279 423 CURVE SMOOTH",
"279 356 LINE",
"288 356 LINE",
"288 390 LINE SMOOTH",
"288 417 OFFCURVE",
"298 426 OFFCURVE",
"322 426 CURVE SMOOTH",
"362 426 LINE SMOOTH",
"388 426 OFFCURVE",
"393 421 OFFCURVE",
"393 395 CURVE SMOOTH",
"393 0 LINE"
);
}
);
width = 502;
}
);
unicode = 006D;
},
{
glyphname = n;
layers = (
{
layerId = "DEF7E4D1-2777-4333-B76D-D32E6812EDA5";
paths = (
{
closed = 1;
nodes = (
"210 0 LINE",
"210 404 LINE",
"207 404 LINE",
"207 499 LINE",
"40 499 LINE",
"40 0 LINE"
);
},
{
closed = 1;
nodes = (
"449 0 LINE",
"449 375 LINE SMOOTH",
"449 450 OFFCURVE",
"411 499 OFFCURVE",
"316 499 CURVE SMOOTH",
"298 499 LINE SMOOTH",
"235 499 OFFCURVE",
"204 463 OFFCURVE",
"204 407 CURVE SMOOTH",
"204 317 LINE",
"210 317 LINE",
"210 344 LINE SMOOTH",
"210 365 OFFCURVE",
"219 374 OFFCURVE",
"237 374 CURVE SMOOTH",
"254 374 LINE SMOOTH",
"271 374 OFFCURVE",
"279 367 OFFCURVE",
"279 352 CURVE SMOOTH",
"279 0 LINE"
);
}
);
width = 484;
},
{
layerId = "D7ED940C-AEED-448E-AD50-67D9ABA5AFA7";
paths = (
{
closed = 1;
nodes = (
"114 0 LINE",
"114 426 LINE",
"114 433 LINE",
"114 485 LINE",
"45 485 LINE",
"45 0 LINE"
);
},
{
closed = 1;
nodes = (
"288 0 LINE",
"288 406 LINE SMOOTH",
"288 459 OFFCURVE",
"262 485 OFFCURVE",
"209 485 CURVE SMOOTH",
"169 485 LINE SMOOTH",
"134 485 OFFCURVE",
"110 469 OFFCURVE",
"110 424 CURVE",
"110 356 LINE",
"114 356 LINE",
"114 390 LINE",
"114 417 OFFCURVE",
"124 426 OFFCURVE",
"148 426 CURVE SMOOTH",
"188 426 LINE SMOOTH",
"214 426 OFFCURVE",
"219 421 OFFCURVE",
"219 395 CURVE SMOOTH",
"219 0 LINE"
);
}
);
width = 333;
}
);
unicode = 006E;
},
{
glyphname = o;
layers = (
{
layerId = "DEF7E4D1-2777-4333-B76D-D32E6812EDA5";
paths = (
{
closed = 1;
nodes = (
"279 231 LINE",
"446 231 LINE",
"446 375 LINE SMOOTH",
"446 450 OFFCURVE",
"411 499 OFFCURVE",
"304 499 CURVE SMOOTH",
"239 499 LINE",
"239 381 LINE",
"254 381 LINE SMOOTH",
"271 381 OFFCURVE",
"279 374 OFFCURVE",
"279 359 CURVE SMOOTH"
);
},
{
closed = 1;
nodes = (
"279 140 LINE SMOOTH",
"279 125 OFFCURVE",
"271 118 OFFCURVE",
"254 118 CURVE SMOOTH",
"239 118 LINE",
"239 0 LINE",
"304 0 LINE SMOOTH",
"411 0 OFFCURVE",
"446 49 OFFCURVE",
"446 124 CURVE SMOOTH",
"446 244 LINE",
"279 244 LINE"
);
},
{
closed = 1;
nodes = (
"202 359 LINE SMOOTH",
"202 374 OFFCURVE",
"210 381 OFFCURVE",
"227 381 CURVE SMOOTH",
"242 381 LINE",
"242 499 LINE",
"177 499 LINE SMOOTH",
"70 499 OFFCURVE",
"35 450 OFFCURVE",
"35 375 CURVE SMOOTH",
"35 231 LINE",
"202 231 LINE"
);
},
{
closed = 1;
nodes = (
"202 244 LINE",
"35 244 LINE",
"35 124 LINE SMOOTH",
"35 49 OFFCURVE",
"70 0 OFFCURVE",
"177 0 CURVE SMOOTH",
"242 0 LINE",
"242 118 LINE",
"227 118 LINE SMOOTH",
"210 118 OFFCURVE",
"202 125 OFFCURVE",
"202 140 CURVE SMOOTH"
);
}
);
width = 481;
},
{
layerId = "D7ED940C-AEED-448E-AD50-67D9ABA5AFA7";
paths = (
{
closed = 1;
nodes = (
"232 141 LINE",
"300 141 LINE",
"300 406 LINE SMOOTH",
"300 459 OFFCURVE",
"274 485 OFFCURVE",
"221 485 CURVE SMOOTH",
"167 485 LINE",
"167 426 LINE",
"201 426 LINE SMOOTH",
"227 426 OFFCURVE",
"232 421 OFFCURVE",
"232 395 CURVE SMOOTH"
);
},
{
closed = 1;
nodes = (
"232 90 LINE",
"232 64 OFFCURVE",
"227 59 OFFCURVE",
"201 59 CURVE SMOOTH",
"160 59 LINE",
"160 0 LINE",
"221 0 LINE SMOOTH",
"274 0 OFFCURVE",
"300 26 OFFCURVE",
"300 79 CURVE SMOOTH",
"300 191 LINE",
"232 191 LINE"
);
},
{
closed = 1;
nodes = (
"108 395 LINE",
"108 421 OFFCURVE",
"113 426 OFFCURVE",
"139 426 CURVE SMOOTH",
"173 426 LINE",
"173 485 LINE",
"119 485 LINE SMOOTH",
"66 485 OFFCURVE",
"40 459 OFFCURVE",
"40 406 CURVE SMOOTH",
"40 140 LINE",
"108 140 LINE"
);
},
{
closed = 1;
nodes = (
"108 199 LINE",
"40 199 LINE",
"40 79 LINE SMOOTH",
"40 26 OFFCURVE",
"66 0 OFFCURVE",
"119 0 CURVE SMOOTH",
"170 0 LINE",
"170 59 LINE",
"139 59 LINE SMOOTH",
"113 59 OFFCURVE",
"108 64 OFFCURVE",
"108 90 CURVE SMOOTH"
);
}
);
width = 340;
}
);
unicode = 006F;
},
{
glyphname = p;
layers = (
{
layerId = "DEF7E4D1-2777-4333-B76D-D32E6812EDA5";
paths = (
{
closed = 1;
nodes = (
"449 240 LINE",
"449 375 LINE SMOOTH",
"449 450 OFFCURVE",
"411 499 OFFCURVE",
"316 499 CURVE SMOOTH",
"298 499 LINE SMOOTH",
"235 499 OFFCURVE",
"204 463 OFFCURVE",
"204 407 CURVE SMOOTH",
"204 317 LINE",
"210 317 LINE",
"210 344 LINE SMOOTH",
"210 365 OFFCURVE",
"219 374 OFFCURVE",
"237 374 CURVE SMOOTH",
"254 374 LINE SMOOTH",
"271 374 OFFCURVE",
"279 367 OFFCURVE",
"279 352 CURVE SMOOTH",
"279 240 LINE"
);
},
{
closed = 1;
nodes = (
"210 -129 LINE",
"210 404 LINE",
"207 404 LINE",
"207 499 LINE",
"40 499 LINE",
"40 -129 LINE"
);
},
{
closed = 1;
nodes = (
"279 259 LINE",
"279 147 LINE SMOOTH",
"279 132 OFFCURVE",
"271 125 OFFCURVE",
"254 125 CURVE SMOOTH",
"237 125 LINE SMOOTH",
"219 125 OFFCURVE",
"210 134 OFFCURVE",
"210 155 CURVE SMOOTH",
"210 182 LINE",
"204 182 LINE",
"204 92 LINE SMOOTH",
"204 36 OFFCURVE",
"235 0 OFFCURVE",
"298 0 CURVE SMOOTH",
"316 0 LINE SMOOTH",
"411 0 OFFCURVE",
"449 49 OFFCURVE",
"449 124 CURVE SMOOTH",
"449 259 LINE"
);
}
);
width = 479;
},
{
layerId = "D7ED940C-AEED-448E-AD50-67D9ABA5AFA7";
paths = (
{
closed = 1;
nodes = (
"288 224 LINE",
"288 406 LINE SMOOTH",
"288 459 OFFCURVE",
"262 485 OFFCURVE",
"209 485 CURVE SMOOTH",
"169 485 LINE SMOOTH",
"134 485 OFFCURVE",
"110 469 OFFCURVE",
"110 424 CURVE SMOOTH",
"110 356 LINE",
"114 356 LINE",
"114 390 LINE SMOOTH",
"114 417 OFFCURVE",
"124 426 OFFCURVE",
"148 426 CURVE SMOOTH",
"188 426 LINE SMOOTH",
"214 426 OFFCURVE",
"219 421 OFFCURVE",
"219 395 CURVE SMOOTH",
"219 224 LINE"
);
},
{
closed = 1;
nodes = (
"114 -141 LINE",
"114 424 LINE",
"114 437 LINE",
"114 485 LINE",
"45 485 LINE",
"45 -141 LINE"
);
},
{
closed = 1;
nodes = (
"219 262 LINE",
"219 90 LINE SMOOTH",
"219 64 OFFCURVE",
"214 59 OFFCURVE",
"188 59 CURVE SMOOTH",
"148 59 LINE SMOOTH",
"124 59 OFFCURVE",
"114 68 OFFCURVE",
"114 95 CURVE SMOOTH",
"114 118 LINE",
"110 117 LINE",
"110 61 LINE SMOOTH",
"110 16 OFFCURVE",
"134 0 OFFCURVE",
"169 0 CURVE SMOOTH",
"209 0 LINE SMOOTH",
"262 0 OFFCURVE",
"288 26 OFFCURVE",
"288 79 CURVE SMOOTH",
"288 262 LINE"
);
}
);
width = 328;
}
);
unicode = 0070;
},
{
glyphname = q;
layers = (
{
layerId = "DEF7E4D1-2777-4333-B76D-D32E6812EDA5";
paths = (
{
closed = 1;
nodes = (
"200 240 LINE",
"200 352 LINE SMOOTH",
"200 367 OFFCURVE",
"208 374 OFFCURVE",
"225 374 CURVE SMOOTH",
"242 374 LINE SMOOTH",
"260 374 OFFCURVE",
"269 365 OFFCURVE",
"269 344 CURVE SMOOTH",
"269 317 LINE",
"275 317 LINE",
"275 407 LINE SMOOTH",
"275 463 OFFCURVE",
"244 499 OFFCURVE",
"181 499 CURVE SMOOTH",
"163 499 LINE SMOOTH",
"68 499 OFFCURVE",
"30 450 OFFCURVE",
"30 375 CURVE SMOOTH",
"30 240 LINE"
);
},
{
closed = 1;
nodes = (
"439 -129 LINE",
"439 499 LINE",
"272 499 LINE",
"272 404 LINE",
"269 404 LINE",
"269 -129 LINE"
);
},
{
closed = 1;
nodes = (
"30 259 LINE",
"30 124 LINE SMOOTH",
"30 49 OFFCURVE",
"68 0 OFFCURVE",
"163 0 CURVE SMOOTH",
"181 0 LINE SMOOTH",
"244 0 OFFCURVE",
"275 36 OFFCURVE",
"275 92 CURVE SMOOTH",
"275 182 LINE",
"269 182 LINE",
"269 155 LINE SMOOTH",
"269 134 OFFCURVE",
"260 125 OFFCURVE",
"242 125 CURVE SMOOTH",
"225 125 LINE SMOOTH",
"208 125 OFFCURVE",
"200 132 OFFCURVE",
"200 147 CURVE SMOOTH",
"200 259 LINE"
);
}
);
width = 479;
},
{
layerId = "D7ED940C-AEED-448E-AD50-67D9ABA5AFA7";
paths = (
{
closed = 1;
nodes = (
"109 224 LINE",
"109 395 LINE SMOOTH",
"109 421 OFFCURVE",
"114 426 OFFCURVE",
"140 426 CURVE SMOOTH",
"180 426 LINE SMOOTH",
"204 426 OFFCURVE",
"214 417 OFFCURVE",
"214 390 CURVE SMOOTH",
"214 356 LINE",
"218 356 LINE",
"218 424 LINE SMOOTH",
"218 469 OFFCURVE",
"194 485 OFFCURVE",
"159 485 CURVE SMOOTH",
"119 485 LINE SMOOTH",
"66 485 OFFCURVE",
"40 459 OFFCURVE",
"40 406 CURVE SMOOTH",
"40 224 LINE"
);
},
{
closed = 1;
nodes = (
"283 -141 LINE",
"283 485 LINE",
"214 485 LINE",
"214 437 LINE",
"214 424 LINE",
"214 -141 LINE"
);
},
{
closed = 1;
nodes = (
"40 262 LINE",
"40 79 LINE SMOOTH",
"40 26 OFFCURVE",
"66 0 OFFCURVE",
"119 0 CURVE SMOOTH",
"159 0 LINE SMOOTH",
"194 0 OFFCURVE",
"218 16 OFFCURVE",
"218 61 CURVE SMOOTH",
"218 117 LINE",
"214 118 LINE",
"214 95 LINE SMOOTH",
"214 68 OFFCURVE",
"204 59 OFFCURVE",
"180 59 CURVE SMOOTH",
"140 59 LINE SMOOTH",
"114 59 OFFCURVE",
"109 64 OFFCURVE",
"109 90 CURVE SMOOTH",
"109 262 LINE"
);
}
);
width = 328;
}
);
unicode = 0071;
},
{
glyphname = r;
layers = (
{
layerId = "DEF7E4D1-2777-4333-B76D-D32E6812EDA5";
paths = (
{
closed = 1;
nodes = (
"330 504 LINE",
"315 504 LINE SMOOTH",
"245 504 OFFCURVE",
"204 459 OFFCURVE",
"204 392 CURVE SMOOTH",
"204 261 LINE",
"210 261 LINE",
"210 288 LINE SMOOTH",
"210 332 OFFCURVE",
"232 356 OFFCURVE",
"273 356 CURVE SMOOTH",
"330 356 LINE"
);
},
{
closed = 1;
nodes = (
"210 0 LINE",
"210 404 LINE",
"207 384 LINE",
"207 499 LINE",
"40 499 LINE",
"40 0 LINE"
);
}
);
width = 335;
},
{
layerId = "D7ED940C-AEED-448E-AD50-67D9ABA5AFA7";
paths = (
{
closed = 1;
nodes = (
"207 485 LINE",
"186 485 LINE SMOOTH",
"135 485 OFFCURVE",
"110 438 OFFCURVE",
"110 404 CURVE",
"110 331 LINE",
"114 331 LINE",
"114 350 LINE",
"114 401 OFFCURVE",
"133 425 OFFCURVE",
"177 425 CURVE SMOOTH",
"207 425 LINE"
);
},
{
closed = 1;
nodes = (
"114 0 LINE",
"114 395 LINE",
"114 400 LINE",
"114 485 LINE",
"45 485 LINE",
"45 0 LINE"
);
}
);
width = 212;
}
);
unicode = 0072;
},
{
glyphname = s;
layers = (
{
layerId = "DEF7E4D1-2777-4333-B76D-D32E6812EDA5";
paths = (
{
closed = 1;
nodes = (
"255 132 LINE SMOOTH",
"255 117 OFFCURVE",
"247 110 OFFCURVE",
"230 110 CURVE SMOOTH",
"218 110 LINE SMOOTH",
"201 110 OFFCURVE",
"193 117 OFFCURVE",
"193 132 CURVE SMOOTH",
"193 165 LINE",
"28 165 LINE",
"28 124 LINE SMOOTH",
"28 49 OFFCURVE",
"68 0 OFFCURVE",
"175 0 CURVE SMOOTH",
"273 0 LINE SMOOTH",
"380 0 OFFCURVE",
"420 49 OFFCURVE",
"420 124 CURVE SMOOTH",
"420 179 LINE SMOOTH",
"420 254 OFFCURVE",
"383 301 OFFCURVE",
"276 301 CURVE SMOOTH",
"215 301 LINE SMOOTH",
"198 301 OFFCURVE",
"190 308 OFFCURVE",
"190 323 CURVE SMOOTH",
"190 367 LINE SMOOTH",
"190 382 OFFCURVE",
"198 389 OFFCURVE",
"215 389 CURVE SMOOTH",
"225 389 LINE SMOOTH",
"242 389 OFFCURVE",
"250 382 OFFCURVE",
"250 367 CURVE SMOOTH",
"250 333 LINE",
"412 333 LINE",
"412 375 LINE SMOOTH",
"412 450 OFFCURVE",
"372 499 OFFCURVE",
"265 499 CURVE SMOOTH",
"172 499 LINE SMOOTH",
"65 499 OFFCURVE",
"25 450 OFFCURVE",
"25 375 CURVE SMOOTH",
"25 317 LINE SMOOTH",
"25 242 OFFCURVE",
"62 194 OFFCURVE",
"169 194 CURVE SMOOTH",
"230 194 LINE SMOOTH",
"247 194 OFFCURVE",
"255 187 OFFCURVE",
"255 172 CURVE SMOOTH"
);
}
);
width = 445;
},
{
layerId = "D7ED940C-AEED-448E-AD50-67D9ABA5AFA7";
paths = (
{
closed = 1;
nodes = (
"194 89 LINE",
"194 63 OFFCURVE",
"189 58 OFFCURVE",
"163 58 CURVE",
"136 58 LINE SMOOTH",
"110 58 OFFCURVE",
"105 63 OFFCURVE",
"105 89 CURVE SMOOTH",
"105 128 LINE",
"37 128 LINE",
"37 79 LINE SMOOTH",
"37 26 OFFCURVE",
"63 0 OFFCURVE",
"116 0 CURVE SMOOTH",
"183 0 LINE SMOOTH",
"236 0 OFFCURVE",
"262 26 OFFCURVE",
"262 79 CURVE SMOOTH",
"262 191 LINE SMOOTH",
"262 244 OFFCURVE",
"236 270 OFFCURVE",
"183 270 CURVE SMOOTH",
"134 270 LINE SMOOTH",
"108 270 OFFCURVE",
"103 275 OFFCURVE",
"103 301 CURVE SMOOTH",
"103 396 LINE SMOOTH",
"103 422 OFFCURVE",
"108 427 OFFCURVE",
"134 427 CURVE SMOOTH",
"162 427 LINE SMOOTH",
"188 427 OFFCURVE",
"193 422 OFFCURVE",
"193 396 CURVE SMOOTH",
"193 357 LINE",
"261 357 LINE",
"261 406 LINE SMOOTH",
"261 459 OFFCURVE",
"235 485 OFFCURVE",
"182 485 CURVE SMOOTH",
"114 485 LINE SMOOTH",
"61 485 OFFCURVE",
"35 459 OFFCURVE",
"35 406 CURVE SMOOTH",
"35 291 LINE SMOOTH",
"35 238 OFFCURVE",
"61 212 OFFCURVE",
"114 212 CURVE SMOOTH",
"163 212 LINE SMOOTH",
"189 212 OFFCURVE",
"194 207 OFFCURVE",
"194 181 CURVE SMOOTH"
);
}
);
width = 297;
}
);
unicode = 0073;
},
{
glyphname = t;
layers = (
{
layerId = "DEF7E4D1-2777-4333-B76D-D32E6812EDA5";
paths = (
{
closed = 1;
nodes = (
"230 597 LINE",
"60 597 LINE",
"60 124 LINE SMOOTH",
"60 49 OFFCURVE",
"100 0 OFFCURVE",
"207 0 CURVE SMOOTH",
"292 0 LINE",
"292 125 LINE",
"255 125 LINE SMOOTH",
"238 125 OFFCURVE",
"230 132 OFFCURVE",
"230 147 CURVE SMOOTH"
);
},
{
closed = 1;
nodes = (
"293 499 LINE",
"5 499 LINE",
"5 374 LINE",
"293 374 LINE"
);
}
);
width = 303;
},
{
layerId = "D7ED940C-AEED-448E-AD50-67D9ABA5AFA7";
paths = (
{
closed = 1;
nodes = (
"118 564 LINE",
"49 564 LINE",
"49 79 LINE SMOOTH",
"49 26 OFFCURVE",
"75 0 OFFCURVE",
"128 0 CURVE SMOOTH",
"187 0 LINE",
"187 64 LINE",
"149 64 LINE SMOOTH",
"123 64 OFFCURVE",
"118 69 OFFCURVE",
"118 95 CURVE SMOOTH"
);
},
{
closed = 1;
nodes = (
"187 485 LINE",
"5 485 LINE",
"5 426 LINE",
"187 426 LINE"
);
}
);
width = 197;
}
);
unicode = 0074;
},
{
glyphname = u;
layers = (
{
layerId = "DEF7E4D1-2777-4333-B76D-D32E6812EDA5";
paths = (
{
closed = 1;
nodes = (
"35 499 LINE",
"35 124 LINE SMOOTH",
"35 49 OFFCURVE",
"73 0 OFFCURVE",
"168 0 CURVE SMOOTH",
"186 0 LINE SMOOTH",
"249 0 OFFCURVE",
"280 36 OFFCURVE",
"280 92 CURVE SMOOTH",
"280 182 LINE",
"274 182 LINE",
"274 155 LINE SMOOTH",
"274 134 OFFCURVE",
"265 125 OFFCURVE",
"247 125 CURVE SMOOTH",
"230 125 LINE SMOOTH",
"213 125 OFFCURVE",
"205 132 OFFCURVE",
"205 147 CURVE SMOOTH",
"205 499 LINE"
);
},
{
closed = 1;
nodes = (
"274 499 LINE",
"274 95 LINE",
"277 95 LINE",
"277 0 LINE",
"444 0 LINE",
"444 499 LINE"
);
}
);
width = 484;
},
{
layerId = "D7ED940C-AEED-448E-AD50-67D9ABA5AFA7";
paths = (
{
closed = 1;
nodes = (
"45 485 LINE",
"45 79 LINE SMOOTH",
"45 26 OFFCURVE",
"71 0 OFFCURVE",
"124 0 CURVE SMOOTH",
"164 0 LINE SMOOTH",
"199 0 OFFCURVE",
"223 16 OFFCURVE",
"223 61 CURVE SMOOTH",
"223 129 LINE",
"219 129 LINE",
"219 95 LINE SMOOTH",
"219 68 OFFCURVE",
"209 59 OFFCURVE",
"185 59 CURVE SMOOTH",
"145 59 LINE SMOOTH",
"119 59 OFFCURVE",
"114 64 OFFCURVE",
"114 90 CURVE SMOOTH",
"114 485 LINE"
);
},
{
closed = 1;
nodes = (
"219 485 LINE",
"219 59 LINE",
"219 52 LINE",
"219 0 LINE",
"288 0 LINE",
"288 485 LINE"
);
}
);
width = 333;
}
);
unicode = 0075;
},
{
glyphname = v;
layers = (
{
layerId = "DEF7E4D1-2777-4333-B76D-D32E6812EDA5";
paths = (
{
closed = 1;
nodes = (
"169 499 LINE",
"0 499 LINE",
"128 0 LINE",
"331 0 LINE",
"459 499 LINE",
"290 499 LINE",
"230 179 LINE"
);
}
);
width = 459;
},
{
layerId = "D7ED940C-AEED-448E-AD50-67D9ABA5AFA7";
paths = (
{
closed = 1;
nodes = (
"74 485 LINE",
"5 485 LINE",
"85 0 LINE",
"194 0 LINE",
"274 485 LINE",
"205 485 LINE",
"139 48 LINE"
);
}
);
width = 279;
}
);
unicode = 0076;
},
{
glyphname = w;
layers = (
{
layerId = "DEF7E4D1-2777-4333-B76D-D32E6812EDA5";
paths = (
{
closed = 1;
nodes = (
"518 499 LINE",
"472 186 LINE",
"414 499 LINE",
"265 499 LINE",
"200 184 LINE",
"163 499 LINE",
"5 499 LINE",
"106 0 LINE",
"275 0 LINE",
"337 294 LINE",
"398 0 LINE",
"567 0 LINE",
"674 499 LINE"
);
}
);
width = 679;
},
{
layerId = "D7ED940C-AEED-448E-AD50-67D9ABA5AFA7";
paths = (
{
closed = 1;
nodes = (
"436 485 LINE",
"363 48 LINE",
"301 485 LINE",
"206 485 LINE",
"143 48 LINE",
"71 485 LINE",
"5 485 LINE",
"91 0 LINE",
"196 0 LINE",
"253 389 LINE",
"311 0 LINE",
"416 0 LINE",
"502 485 LINE"
);
}
);
width = 507;
}
);
unicode = 0077;
},
{
glyphname = x;
layers = (
{
layerId = "DEF7E4D1-2777-4333-B76D-D32E6812EDA5";
paths = (
{
closed = 1;
nodes = (
"323 258 LINE",
"433 499 LINE",
"264 499 LINE",
"221 360 LINE",
"178 499 LINE",
"0 499 LINE",
"120 255 LINE",
"6 0 LINE",
"172 0 LINE",
"221 148 LINE",
"275 0 LINE",
"447 0 LINE"
);
}
);
width = 447;
},
{
layerId = "D7ED940C-AEED-448E-AD50-67D9ABA5AFA7";
paths = (
{
closed = 1;
nodes = (
"188 248 LINE",
"299 485 LINE",
"225 485 LINE",
"158 320 LINE",
"89 485 LINE",
"15 485 LINE",
"126 248 LINE",
"5 0 LINE",
"79 0 LINE",
"157 175 LINE",
"235 0 LINE",
"309 0 LINE"
);
}
);
width = 314;
}
);
unicode = 0078;
},
{
glyphname = y;
layers = (
{
layerId = "DEF7E4D1-2777-4333-B76D-D32E6812EDA5";
paths = (
{
closed = 1;
nodes = (
"0 499 LINE",
"137 40 LINE",
"202 40 LINE",
"200 34 LINE SMOOTH",
"189 0 OFFCURVE",
"169 -6 OFFCURVE",
"140 -6 CURVE SMOOTH",
"66 -6 LINE",
"66 -129 LINE",
"150 -129 LINE SMOOTH",
"264 -129 OFFCURVE",
"313 -77 OFFCURVE",
"339 10 CURVE",
"464 499 LINE",
"293 499 LINE",
"239 195 LINE",
"178 499 LINE"
);
}
);
width = 464;
},
{
layerId = "D7ED940C-AEED-448E-AD50-67D9ABA5AFA7";
paths = (
{
closed = 1;
nodes = (
"10 485 LINE",
"103 0 LINE",
"148 0 LINE",
"136 -51 LINE SMOOTH",
"130 -76 OFFCURVE",
"112 -82 OFFCURVE",
"86 -82 CURVE SMOOTH",
"53 -82 LINE",
"53 -141 LINE",
"107 -141 LINE SMOOTH",
"160 -141 OFFCURVE",
"192 -114 OFFCURVE",
"202 -62 CURVE SMOOTH",
"299 485 LINE",
"230 485 LINE",
"157 48 LINE",
"79 485 LINE"
);
}
);
width = 309;
}
);
unicode = 0079;
},
{
glyphname = z;
layers = (
{
layerId = "DEF7E4D1-2777-4333-B76D-D32E6812EDA5";
paths = (
{
closed = 1;
nodes = (
"371 499 LINE",
"23 499 LINE",
"23 380 LINE",
"371 380 LINE"
);
},
{
closed = 1;
nodes = (
"189 380 LINE",
"10 119 LINE",
"189 119 LINE",
"371 380 LINE"
);
},
{
closed = 1;
nodes = (
"381 119 LINE",
"10 119 LINE",
"10 0 LINE",
"381 0 LINE"
);
}
);
width = 391;
},
{
layerId = "D7ED940C-AEED-448E-AD50-67D9ABA5AFA7";
paths = (
{
closed = 1;
nodes = (
"251 485 LINE",
"25 485 LINE",
"25 426 LINE",
"251 426 LINE"
);
},
{
closed = 1;
nodes = (
"182 426 LINE",
"15 59 LINE",
"84 59 LINE",
"251 426 LINE"
);
},
{
closed = 1;
nodes = (
"251 59 LINE",
"15 59 LINE",
"15 0 LINE",
"251 0 LINE"
);
}
);
width = 266;
}
);
unicode = 007A;
},
{
glyphname = braceleft;
layers = (
{
layerId = "DEF7E4D1-2777-4333-B76D-D32E6812EDA5";
paths = (
{
closed = 1;
nodes = (
"265 654 LINE SMOOTH",
"265 669 OFFCURVE",
"273 676 OFFCURVE",
"290 676 CURVE SMOOTH",
"316 676 LINE",
"316 791 LINE",
"237 791 LINE SMOOTH",
"130 791 OFFCURVE",
"90 732 OFFCURVE",
"90 657 CURVE SMOOTH",
"90 457 LINE SMOOTH",
"90 400 OFFCURVE",
"72 375 OFFCURVE",
"23 375 CURVE SMOOTH",
"16 375 LINE",
"16 260 LINE",
"23 260 LINE SMOOTH",
"72 260 OFFCURVE",
"90 235 OFFCURVE",
"90 180 CURVE SMOOTH",
"90 -22 LINE SMOOTH",
"90 -97 OFFCURVE",
"130 -156 OFFCURVE",
"237 -156 CURVE SMOOTH",
"316 -156 LINE",
"316 -41 LINE",
"290 -41 LINE SMOOTH",
"273 -41 OFFCURVE",
"265 -34 OFFCURVE",
"265 -19 CURVE SMOOTH",
"265 204 LINE SMOOTH",
"265 275 OFFCURVE",
"233 315 OFFCURVE",
"187 318 CURVE",
"229 328 OFFCURVE",
"265 361 OFFCURVE",
"265 443 CURVE SMOOTH"
);
}
);
width = 326;
},
{
layerId = "D7ED940C-AEED-448E-AD50-67D9ABA5AFA7";
paths = (
{
closed = 1;
nodes = (
"180 689 LINE",
"180 713 OFFCURVE",
"188 722 OFFCURVE",
"214 722 CURVE SMOOTH",
"264 722 LINE",
"264 781 LINE",
"181 781 LINE SMOOTH",
"125 781 OFFCURVE",
"112 750 OFFCURVE",
"112 703 CURVE SMOOTH",
"112 454 LINE SMOOTH",
"112 373 OFFCURVE",
"85 337 OFFCURVE",
"24 337 CURVE SMOOTH",
"5 337 LINE",
"5 279 LINE",
"24 279 LINE SMOOTH",
"85 279 OFFCURVE",
"112 243 OFFCURVE",
"112 163 CURVE",
"112 -88 LINE SMOOTH",
"112 -136 OFFCURVE",
"125 -166 OFFCURVE",
"181 -166 CURVE SMOOTH",
"264 -166 LINE",
"264 -107 LINE",
"214 -107 LINE SMOOTH",
"188 -107 OFFCURVE",
"180 -98 OFFCURVE",
"180 -74 CURVE SMOOTH",
"180 189 LINE SMOOTH",
"180 257 OFFCURVE",
"156 301 OFFCURVE",
"105 308 CURVE",
"156 314 OFFCURVE",
"180 358 OFFCURVE",
"180 428 CURVE SMOOTH"
);
}
);
width = 271;
}
);
unicode = 007B;
},
{
glyphname = bar;
layers = (
{
layerId = "DEF7E4D1-2777-4333-B76D-D32E6812EDA5";
paths = (
{
closed = 1;
nodes = (
"50 833 LINE",
"50 -193 LINE",
"205 -193 LINE",
"205 833 LINE"
);
}
);
width = 266;
},
{
layerId = "D7ED940C-AEED-448E-AD50-67D9ABA5AFA7";
paths = (
{
closed = 1;
nodes = (
"55 719 LINE",
"55 -98 LINE",
"124 -98 LINE",
"124 719 LINE"
);
}
);
width = 179;
}
);
unicode = 007C;
},
{
glyphname = braceright;
layers = (
{
layerId = "DEF7E4D1-2777-4333-B76D-D32E6812EDA5";
paths = (
{
closed = 1;
nodes = (
"61 443 LINE SMOOTH",
"61 361 OFFCURVE",
"97 328 OFFCURVE",
"139 318 CURVE",
"93 315 OFFCURVE",
"61 275 OFFCURVE",
"61 204 CURVE SMOOTH",
"61 -19 LINE SMOOTH",
"61 -34 OFFCURVE",
"53 -41 OFFCURVE",
"36 -41 CURVE SMOOTH",
"10 -41 LINE",
"10 -156 LINE",
"89 -156 LINE SMOOTH",
"196 -156 OFFCURVE",
"236 -97 OFFCURVE",
"236 -22 CURVE SMOOTH",
"236 180 LINE SMOOTH",
"236 235 OFFCURVE",
"254 260 OFFCURVE",
"303 260 CURVE SMOOTH",
"310 260 LINE",
"310 375 LINE",
"303 375 LINE SMOOTH",
"254 375 OFFCURVE",
"236 400 OFFCURVE",
"236 457 CURVE SMOOTH",
"236 657 LINE SMOOTH",
"236 732 OFFCURVE",
"196 791 OFFCURVE",
"89 791 CURVE SMOOTH",
"10 791 LINE",
"10 676 LINE",
"36 676 LINE SMOOTH",
"53 676 OFFCURVE",
"61 669 OFFCURVE",
"61 654 CURVE SMOOTH"
);
}
);
width = 326;
},
{
layerId = "D7ED940C-AEED-448E-AD50-67D9ABA5AFA7";
paths = (
{
closed = 1;
nodes = (
"90 428 LINE",
"90 358 OFFCURVE",
"114 314 OFFCURVE",
"165 308 CURVE",
"114 301 OFFCURVE",
"90 257 OFFCURVE",
"90 189 CURVE SMOOTH",
"90 -74 LINE SMOOTH",
"90 -98 OFFCURVE",
"82 -107 OFFCURVE",
"56 -107 CURVE SMOOTH",
"6 -107 LINE",
"6 -166 LINE",
"89 -166 LINE SMOOTH",
"145 -166 OFFCURVE",
"158 -136 OFFCURVE",
"158 -88 CURVE SMOOTH",
"158 163 LINE",
"158 243 OFFCURVE",
"185 279 OFFCURVE",
"246 279 CURVE SMOOTH",
"265 279 LINE",
"265 337 LINE",
"246 337 LINE SMOOTH",
"185 337 OFFCURVE",
"158 373 OFFCURVE",
"158 454 CURVE SMOOTH",
"158 703 LINE SMOOTH",
"158 750 OFFCURVE",
"145 781 OFFCURVE",
"89 781 CURVE SMOOTH",
"6 781 LINE",
"6 722 LINE",
"56 722 LINE SMOOTH",
"82 722 OFFCURVE",
"90 713 OFFCURVE",
"90 689 CURVE"
);
}
);
width = 271;
}
);
unicode = 007D;
},
{
glyphname = asciitilde;
layers = (
{
layerId = "DEF7E4D1-2777-4333-B76D-D32E6812EDA5";
paths = (
{
closed = 1;
nodes = (
"508 204 LINE SMOOTH",
"588 204 OFFCURVE",
"619 235 OFFCURVE",
"619 304 CURVE SMOOTH",
"619 389 LINE",
"464 389 LINE",
"464 344 LINE SMOOTH",
"464 321 OFFCURVE",
"459 312 OFFCURVE",
"436 312 CURVE SMOOTH",
"400 312 OFFCURVE",
"362 389 OFFCURVE",
"274 389 CURVE SMOOTH",
"207 389 LINE SMOOTH",
"127 389 OFFCURVE",
"96 358 OFFCURVE",
"96 289 CURVE SMOOTH",
"96 204 LINE",
"251 204 LINE",
"251 249 LINE SMOOTH",
"251 272 OFFCURVE",
"256 281 OFFCURVE",
"279 281 CURVE SMOOTH",
"328 281 OFFCURVE",
"369 204 OFFCURVE",
"441 204 CURVE SMOOTH"
);
}
);
width = 719;
},
{
layerId = "D7ED940C-AEED-448E-AD50-67D9ABA5AFA7";
paths = (
{
closed = 1;
nodes = (
"344 216 LINE",
"400 216 OFFCURVE",
"422 246 OFFCURVE",
"422 292 CURVE SMOOTH",
"422 352 LINE",
"358 352 LINE",
"358 306 LINE SMOOTH",
"358 283 OFFCURVE",
"355 271 OFFCURVE",
"331 271 CURVE SMOOTH",
"252 271 OFFCURVE",
"239 353 OFFCURVE",
"158 353 CURVE SMOOTH",
"129 353 LINE SMOOTH",
"74 353 OFFCURVE",
"52 324 OFFCURVE",
"52 277 CURVE SMOOTH",
"52 217 LINE",
"116 217 LINE",
"116 264 LINE SMOOTH",
"116 285 OFFCURVE",
"121 298 OFFCURVE",
"146 298 CURVE SMOOTH",
"216 298 OFFCURVE",
"223 216 OFFCURVE",
"318 216 CURVE"
);
}
);
width = 472;
}
);
unicode = 007E;
},
{
glyphname = exclamdown;
layers = (
{
layerId = "DEF7E4D1-2777-4333-B76D-D32E6812EDA5";
paths = (
{
closed = 1;
nodes = (
"50 -143 LINE",
"80 266 LINE",
"217 266 LINE",
"247 -143 LINE"
);
},
{
closed = 1;
nodes = (
"62 499 LINE",
"234 499 LINE",
"234 335 LINE",
"62 335 LINE"
);
}
);
width = 297;
},
{
layerId = "D7ED940C-AEED-448E-AD50-67D9ABA5AFA7";
paths = (
{
closed = 1;
nodes = (
"50 -137 LINE",
"63 289 LINE",
"122 289 LINE",
"135 -137 LINE"
);
},
{
closed = 1;
nodes = (
"51 485 LINE",
"133 485 LINE",
"133 373 LINE",
"51 373 LINE"
);
}
);
width = 185;
}
);
unicode = 00A1;
},
{
glyphname = cent;
layers = (
{
layerId = "DEF7E4D1-2777-4333-B76D-D32E6812EDA5";
paths = (
{
closed = 1;
nodes = (
"200 352 LINE SMOOTH",
"200 367 OFFCURVE",
"208 374 OFFCURVE",
"225 374 CURVE SMOOTH",
"244 374 LINE",
"244 499 LINE",
"177 499 LINE SMOOTH",
"70 499 OFFCURVE",
"30 450 OFFCURVE",
"30 375 CURVE SMOOTH",
"30 124 LINE SMOOTH",
"30 49 OFFCURVE",
"70 0 OFFCURVE",
"177 0 CURVE SMOOTH",
"245 0 LINE",
"245 125 LINE",
"225 125 LINE SMOOTH",
"208 125 OFFCURVE",
"200 132 OFFCURVE",
"200 147 CURVE SMOOTH"
);
},
{
closed = 1;
nodes = (
"267 306 LINE",
"431 306 LINE",
"431 375 LINE SMOOTH",
"431 450 OFFCURVE",
"391 499 OFFCURVE",
"284 499 CURVE SMOOTH",
"230 499 LINE",
"230 374 LINE",
"242 374 LINE SMOOTH",
"259 374 OFFCURVE",
"267 367 OFFCURVE",
"267 352 CURVE SMOOTH"
);
},
{
closed = 1;
nodes = (
"267 147 LINE SMOOTH",
"267 132 OFFCURVE",
"259 125 OFFCURVE",
"242 125 CURVE SMOOTH",
"230 125 LINE",
"230 0 LINE",
"284 0 LINE SMOOTH",
"391 0 OFFCURVE",
"431 49 OFFCURVE",
"431 124 CURVE SMOOTH",
"431 193 LINE",
"267 193 LINE"
);
},
{
closed = 1;
nodes = (
"315 434 LINE",
"315 579 LINE",
"150 579 LINE",
"150 434 LINE"
);
},
{
closed = 1;
nodes = (
"315 -80 LINE",
"315 71 LINE",
"150 71 LINE",
"150 -80 LINE"
);
}
);
width = 451;
},
{
layerId = "D7ED940C-AEED-448E-AD50-67D9ABA5AFA7";
paths = (
{
closed = 1;
nodes = (
"109 395 LINE",
"109 421 OFFCURVE",
"114 426 OFFCURVE",
"140 426 CURVE SMOOTH",
"171 426 LINE",
"171 485 LINE",
"119 485 LINE SMOOTH",
"66 485 OFFCURVE",
"40 459 OFFCURVE",
"40 406 CURVE SMOOTH",
"40 79 LINE SMOOTH",
"40 26 OFFCURVE",
"66 0 OFFCURVE",
"119 0 CURVE",
"164 0 LINE",
"164 59 LINE",
"140 59 LINE SMOOTH",
"114 59 OFFCURVE",
"109 64 OFFCURVE",
"109 90 CURVE SMOOTH"
);
},
{
closed = 1;
nodes = (
"221 341 LINE",
"290 341 LINE",
"290 406 LINE SMOOTH",
"290 459 OFFCURVE",
"264 485 OFFCURVE",
"211 485 CURVE SMOOTH",
"156 485 LINE",
"156 426 LINE",
"190 426 LINE SMOOTH",
"216 426 OFFCURVE",
"221 421 OFFCURVE",
"221 395 CURVE SMOOTH"
);
},
{
closed = 1;
nodes = (
"221 90 LINE",
"221 64 OFFCURVE",
"216 59 OFFCURVE",
"190 59 CURVE SMOOTH",
"156 59 LINE",
"156 0 LINE",
"211 0 LINE SMOOTH",
"264 0 OFFCURVE",
"290 26 OFFCURVE",
"290 79 CURVE SMOOTH",
"290 144 LINE",
"221 144 LINE"
);
},
{
closed = 1;
nodes = (
"201 475 LINE",
"201 561 LINE",
"136 561 LINE",
"136 475 LINE"
);
},
{
closed = 1;
nodes = (
"201 -75 LINE",
"201 10 LINE",
"136 10 LINE",
"136 -75 LINE"
);
}
);
width = 325;
}
);
unicode = 00A2;
},
{
glyphname = sterling;
layers = (
{
layerId = "DEF7E4D1-2777-4333-B76D-D32E6812EDA5";
paths = (
{
closed = 1;
nodes = (
"239 495 LINE SMOOTH",
"239 510 OFFCURVE",
"247 517 OFFCURVE",
"264 517 CURVE SMOOTH",
"287 517 LINE SMOOTH",
"304 517 OFFCURVE",
"312 510 OFFCURVE",
"312 495 CURVE SMOOTH",
"312 425 LINE",
"487 425 LINE",
"487 518 LINE SMOOTH",
"487 593 OFFCURVE",
"447 642 OFFCURVE",
"340 642 CURVE SMOOTH",
"211 642 LINE SMOOTH",
"104 642 OFFCURVE",
"64 593 OFFCURVE",
"64 518 CURVE SMOOTH",
"64 198 LINE SMOOTH",
"64 148 OFFCURVE",
"63 122 OFFCURVE",
"20 116 CURVE",
"20 0 LINE",
"491 0 LINE",
"491 125 LINE",
"212 125 LINE",
"232 140 OFFCURVE",
"239 165 OFFCURVE",
"239 197 CURVE SMOOTH"
);
},
{
closed = 1;
nodes = (
"20 244 LINE",
"387 244 LINE",
"387 359 LINE",
"20 359 LINE"
);
}
);
width = 506;
},
{
layerId = "D7ED940C-AEED-448E-AD50-67D9ABA5AFA7";
paths = (
{
closed = 1;
nodes = (
"153 532 LINE",
"153 558 OFFCURVE",
"158 563 OFFCURVE",
"184 563 CURVE",
"227 563 LINE SMOOTH",
"253 563 OFFCURVE",
"258 558 OFFCURVE",
"258 532 CURVE SMOOTH",
"258 452 LINE",
"326 452 LINE",
"326 543 LINE SMOOTH",
"326 596 OFFCURVE",
"300 622 OFFCURVE",
"247 622 CURVE SMOOTH",
"163 622 LINE SMOOTH",
"110 622 OFFCURVE",
"84 596 OFFCURVE",
"84 543 CURVE SMOOTH",
"84 157 LINE SMOOTH",
"84 89 OFFCURVE",
"70 59 OFFCURVE",
"35 59 CURVE",
"35 0 LINE",
"330 0 LINE",
"330 59 LINE",
"127 59 LINE",
"151 74 OFFCURVE",
"153 104 OFFCURVE",
"153 142 CURVE SMOOTH"
);
},
{
closed = 1;
nodes = (
"35 273 LINE",
"280 273 LINE",
"280 332 LINE",
"35 332 LINE"
);
}
);
width = 355;
}
);
unicode = 00A3;
},
{
glyphname = currency;
layers = (
{
layerId = "DEF7E4D1-2777-4333-B76D-D32E6812EDA5";
paths = (
{
closed = 1;
nodes = (
"508 326 LINE SMOOTH",
"508 440 OFFCURVE",
"470 512 OFFCURVE",
"326 512 CURVE SMOOTH",
"251 512 LINE SMOOTH",
"106 512 OFFCURVE",
"69 440 OFFCURVE",
"69 326 CURVE SMOOTH",
"69 274 LINE SMOOTH",
"69 161 OFFCURVE",
"106 89 OFFCURVE",
"251 89 CURVE SMOOTH",
"326 89 LINE SMOOTH",
"470 89 OFFCURVE",
"508 161 OFFCURVE",
"508 274 CURVE SMOOTH"
);
},
{
closed = 1;
nodes = (
"280 198 LINE SMOOTH",
"228 198 OFFCURVE",
"203 207 OFFCURVE",
"203 274 CURVE SMOOTH",
"203 325 LINE SMOOTH",
"203 392 OFFCURVE",
"228 402 OFFCURVE",
"280 402 CURVE SMOOTH",
"295 402 LINE SMOOTH",
"346 402 OFFCURVE",
"372 392 OFFCURVE",
"372 325 CURVE SMOOTH",
"372 274 LINE SMOOTH",
"372 207 OFFCURVE",
"346 198 OFFCURVE",
"295 198 CURVE SMOOTH"
);
},
{
closed = 1;
nodes = (
"241 480 LINE",
"133 587 LINE",
"32 485 LINE",
"138 379 LINE"
);
},
{
closed = 1;
nodes = (
"434 379 LINE",
"540 485 LINE",
"439 587 LINE",
"331 480 LINE"
);
},
{
closed = 1;
nodes = (
"138 241 LINE",
"32 135 LINE",
"133 33 LINE",
"241 140 LINE"
);
},
{
closed = 1;
nodes = (
"331 140 LINE",
"439 33 LINE",
"540 135 LINE",
"434 241 LINE"
);
}
);
width = 595;
},
{
layerId = "D7ED940C-AEED-448E-AD50-67D9ABA5AFA7";
paths = (
{
closed = 1;
nodes = (
"368 407 LINE",
"368 460 OFFCURVE",
"342 486 OFFCURVE",
"289 486 CURVE SMOOTH",
"187 486 LINE SMOOTH",
"134 486 OFFCURVE",
"108 460 OFFCURVE",
"108 407 CURVE SMOOTH",
"108 190 LINE SMOOTH",
"108 137 OFFCURVE",
"134 111 OFFCURVE",
"187 111 CURVE SMOOTH",
"289 111 LINE SMOOTH",
"342 111 OFFCURVE",
"368 137 OFFCURVE",
"368 190 CURVE SMOOTH"
);
},
{
closed = 1;
nodes = (
"207 170 LINE",
"181 170 OFFCURVE",
"176 175 OFFCURVE",
"176 201 CURVE SMOOTH",
"176 396 LINE SMOOTH",
"176 422 OFFCURVE",
"181 427 OFFCURVE",
"207 427 CURVE SMOOTH",
"269 427 LINE SMOOTH",
"295 427 OFFCURVE",
"300 422 OFFCURVE",
"300 396 CURVE SMOOTH",
"300 201 LINE SMOOTH",
"300 175 OFFCURVE",
"295 170 OFFCURVE",
"269 170 CURVE SMOOTH"
);
},
{
closed = 1;
nodes = (
"192 452 LINE",
"111 532 LINE",
"65 486 LINE",
"146 406 LINE"
);
},
{
closed = 1;
nodes = (
"322 406 LINE",
"403 486 LINE",
"357 532 LINE",
"276 452 LINE"
);
},
{
closed = 1;
nodes = (
"146 193 LINE",
"65 113 LINE",
"111 67 LINE",
"192 147 LINE"
);
},
{
closed = 1;
nodes = (
"276 147 LINE",
"357 67 LINE",
"403 113 LINE",
"322 193 LINE"
);
}
);
width = 454;
}
);
unicode = 00A4;
},
{
glyphname = yen;
layers = (
{
layerId = "DEF7E4D1-2777-4333-B76D-D32E6812EDA5";
paths = (
{
closed = 1;
nodes = (
"180 369 LINE",
"43 369 LINE",
"43 264 LINE",
"180 264 LINE"
);
},
{
closed = 1;
nodes = (
"492 369 LINE",
"355 369 LINE",
"355 264 LINE",
"492 264 LINE"
);
},
{
closed = 1;
nodes = (
"493 230 LINE",
"43 230 LINE",
"43 125 LINE",
"493 125 LINE"
);
},
{
closed = 1;
nodes = (
"345 179 LINE",
"524 642 LINE",
"346 642 LINE",
"268 371 LINE",
"184 642 LINE",
"5 642 LINE",
"194 179 LINE"
);
},
{
closed = 1;
nodes = (
"182 272 LINE",
"182 0 LINE",
"357 0 LINE",
"357 272 LINE"
);
}
);
width = 529;
},
{
layerId = "D7ED940C-AEED-448E-AD50-67D9ABA5AFA7";
paths = (
{
closed = 1;
nodes = (
"142 340 LINE",
"17 340 LINE",
"17 281 LINE",
"142 281 LINE"
);
},
{
closed = 1;
nodes = (
"327 340 LINE",
"213 340 LINE",
"213 281 LINE",
"327 281 LINE"
);
},
{
closed = 1;
nodes = (
"327 215 LINE",
"17 215 LINE",
"17 159 LINE",
"327 159 LINE"
);
},
{
closed = 1;
nodes = (
"206 190 LINE",
"329 622 LINE",
"261 622 LINE",
"172 275 LINE",
"83 622 LINE",
"15 622 LINE",
"138 190 LINE"
);
},
{
closed = 1;
nodes = (
"138 229 LINE",
"138 0 LINE",
"206 0 LINE",
"206 229 LINE"
);
}
);
width = 344;
}
);
unicode = 00A5;
},
{
glyphname = brokenbar;
layers = (
{
layerId = "DEF7E4D1-2777-4333-B76D-D32E6812EDA5";
paths = (
{
closed = 1;
nodes = (
"40 262 LINE",
"40 -93 LINE",
"215 -93 LINE",
"215 262 LINE"
);
},
{
closed = 1;
nodes = (
"215 378 LINE",
"215 733 LINE",
"40 733 LINE",
"40 378 LINE"
);
}
);
width = 266;
},
{
layerId = "D7ED940C-AEED-448E-AD50-67D9ABA5AFA7";
paths = (
{
closed = 1;
nodes = (
"55 247 LINE",
"55 -98 LINE",
"124 -98 LINE",
"124 247 LINE"
);
},
{
closed = 1;
nodes = (
"124 374 LINE",
"124 719 LINE",
"55 719 LINE",
"55 374 LINE"
);
}
);
width = 179;
}
);
unicode = 00A6;
},
{
glyphname = section;
layers = (
{
layerId = "DEF7E4D1-2777-4333-B76D-D32E6812EDA5";
paths = (
{
closed = 1;
nodes = (
"256 153 LINE",
"333 153 LINE SMOOTH",
"441 153 OFFCURVE",
"472 199 OFFCURVE",
"472 280 CURVE SMOOTH",
"472 351 LINE SMOOTH",
"472 426 OFFCURVE",
"432 475 OFFCURVE",
"325 475 CURVE SMOOTH",
"264 475 LINE SMOOTH",
"247 475 OFFCURVE",
"239 482 OFFCURVE",
"239 497 CURVE SMOOTH",
"239 537 LINE SMOOTH",
"239 552 OFFCURVE",
"247 559 OFFCURVE",
"264 559 CURVE SMOOTH",
"285 559 LINE SMOOTH",
"302 559 OFFCURVE",
"310 552 OFFCURVE",
"310 537 CURVE SMOOTH",
"310 512 LINE",
"480 512 LINE",
"480 545 LINE SMOOTH",
"480 620 OFFCURVE",
"440 669 OFFCURVE",
"333 669 CURVE SMOOTH",
"216 669 LINE SMOOTH",
"109 669 OFFCURVE",
"69 620 OFFCURVE",
"69 545 CURVE SMOOTH",
"69 484 LINE SMOOTH",
"69 409 OFFCURVE",
"109 360 OFFCURVE",
"216 360 CURVE SMOOTH",
"287 360 LINE SMOOTH",
"304 360 OFFCURVE",
"312 353 OFFCURVE",
"312 338 CURVE SMOOTH",
"312 254 LINE SMOOTH",
"312 239 OFFCURVE",
"304 232 OFFCURVE",
"287 232 CURVE SMOOTH",
"256 232 LINE"
);
},
{
closed = 1;
nodes = (
"284 424 LINE",
"206 424 LINE SMOOTH",
"99 424 OFFCURVE",
"68 379 OFFCURVE",
"68 298 CURVE SMOOTH",
"68 241 LINE SMOOTH",
"68 166 OFFCURVE",
"108 117 OFFCURVE",
"215 117 CURVE SMOOTH",
"276 117 LINE SMOOTH",
"293 117 OFFCURVE",
"301 110 OFFCURVE",
"301 95 CURVE SMOOTH",
"301 55 LINE SMOOTH",
"301 40 OFFCURVE",
"293 33 OFFCURVE",
"276 33 CURVE SMOOTH",
"255 33 LINE SMOOTH",
"238 33 OFFCURVE",
"230 40 OFFCURVE",
"230 55 CURVE SMOOTH",
"230 80 LINE",
"60 80 LINE",
"60 47 LINE SMOOTH",
"60 -28 OFFCURVE",
"100 -77 OFFCURVE",
"207 -77 CURVE SMOOTH",
"324 -77 LINE SMOOTH",
"431 -77 OFFCURVE",
"471 -28 OFFCURVE",
"471 47 CURVE SMOOTH",
"471 108 LINE SMOOTH",
"471 183 OFFCURVE",
"431 232 OFFCURVE",
"324 232 CURVE SMOOTH",
"253 232 LINE SMOOTH",
"236 232 OFFCURVE",
"228 239 OFFCURVE",
"228 254 CURVE SMOOTH",
"228 338 LINE SMOOTH",
"228 353 OFFCURVE",
"236 360 OFFCURVE",
"253 360 CURVE SMOOTH",
"284 360 LINE"
);
}
);
width = 540;
},
{
layerId = "D7ED940C-AEED-448E-AD50-67D9ABA5AFA7";
paths = (
{
closed = 1;
nodes = (
"213 203 LINE",
"268 203 LINE SMOOTH",
"321 203 OFFCURVE",
"337 239 OFFCURVE",
"337 292 CURVE SMOOTH",
"337 375 LINE SMOOTH",
"337 428 OFFCURVE",
"311 454 OFFCURVE",
"258 454 CURVE SMOOTH",
"190 454 LINE SMOOTH",
"164 454 OFFCURVE",
"159 459 OFFCURVE",
"159 485 CURVE SMOOTH",
"159 578 LINE SMOOTH",
"159 604 OFFCURVE",
"164 609 OFFCURVE",
"190 609 CURVE SMOOTH",
"236 609 LINE SMOOTH",
"262 609 OFFCURVE",
"267 604 OFFCURVE",
"267 578 CURVE SMOOTH",
"267 540 LINE",
"336 540 LINE",
"336 589 LINE SMOOTH",
"336 642 OFFCURVE",
"310 668 OFFCURVE",
"257 668 CURVE SMOOTH",
"169 668 LINE SMOOTH",
"116 668 OFFCURVE",
"90 642 OFFCURVE",
"90 589 CURVE SMOOTH",
"90 474 LINE SMOOTH",
"90 421 OFFCURVE",
"116 395 OFFCURVE",
"169 395 CURVE SMOOTH",
"237 395 LINE SMOOTH",
"263 395 OFFCURVE",
"268 390 OFFCURVE",
"268 364 CURVE SMOOTH",
"268 273 LINE SMOOTH",
"268 247 OFFCURVE",
"263 242 OFFCURVE",
"237 242 CURVE SMOOTH",
"213 242 LINE"
);
},
{
closed = 1;
nodes = (
"174 434 LINE",
"119 434 LINE SMOOTH",
"66 434 OFFCURVE",
"50 398 OFFCURVE",
"50 345 CURVE SMOOTH",
"50 262 LINE SMOOTH",
"50 209 OFFCURVE",
"76 183 OFFCURVE",
"129 183 CURVE SMOOTH",
"197 183 LINE SMOOTH",
"223 183 OFFCURVE",
"228 178 OFFCURVE",
"228 152 CURVE SMOOTH",
"228 59 LINE SMOOTH",
"228 33 OFFCURVE",
"223 28 OFFCURVE",
"197 28 CURVE SMOOTH",
"151 28 LINE SMOOTH",
"125 28 OFFCURVE",
"120 33 OFFCURVE",
"120 59 CURVE SMOOTH",
"120 97 LINE",
"51 97 LINE",
"51 48 LINE SMOOTH",
"51 -5 OFFCURVE",
"77 -31 OFFCURVE",
"130 -31 CURVE SMOOTH",
"218 -31 LINE SMOOTH",
"271 -31 OFFCURVE",
"297 -5 OFFCURVE",
"297 48 CURVE SMOOTH",
"297 163 LINE SMOOTH",
"297 216 OFFCURVE",
"271 242 OFFCURVE",
"218 242 CURVE SMOOTH",
"150 242 LINE SMOOTH",
"124 242 OFFCURVE",
"119 247 OFFCURVE",
"119 273 CURVE SMOOTH",
"119 364 LINE SMOOTH",
"119 390 OFFCURVE",
"124 395 OFFCURVE",
"150 395 CURVE SMOOTH",
"174 395 LINE"
);
}
);
width = 387;
}
);
unicode = 00A7;
},
{
glyphname = dieresis;
layers = (
{
layerId = "DEF7E4D1-2777-4333-B76D-D32E6812EDA5";
paths = (
{
closed = 1;
nodes = (
"54 542 LINE",
"206 542 LINE",
"206 672 LINE",
"54 672 LINE"
);
},
{
closed = 1;
nodes = (
"294 542 LINE",
"446 542 LINE",
"446 672 LINE",
"294 672 LINE"
);
}
);
width = 500;
},
{
layerId = "D7ED940C-AEED-448E-AD50-67D9ABA5AFA7";
paths = (
{
closed = 1;
nodes = (
"68 541 LINE",
"156 541 LINE",
"156 625 LINE",
"68 625 LINE"
);
},
{
closed = 1;
nodes = (
"244 541 LINE",
"332 541 LINE",
"332 625 LINE",
"244 625 LINE"
);
}
);
width = 400;
}
);
unicode = 00A8;
},
{
glyphname = copyright;
layers = (
{
layerId = "DEF7E4D1-2777-4333-B76D-D32E6812EDA5";
paths = (
{
closed = 1;
nodes = (
"742 338 LINE SMOOTH",
"742 519 OFFCURVE",
"689 642 OFFCURVE",
"484 642 CURVE SMOOTH",
"288 642 LINE SMOOTH",
"83 642 OFFCURVE",
"30 519 OFFCURVE",
"30 338 CURVE SMOOTH",
"30 304 LINE SMOOTH",
"30 123 OFFCURVE",
"83 0 OFFCURVE",
"288 0 CURVE SMOOTH",
"484 0 LINE SMOOTH",
"689 0 OFFCURVE",
"742 123 OFFCURVE",
"742 304 CURVE SMOOTH"
);
},
{
closed = 1;
nodes = (
"321 99 LINE SMOOTH",
"212 99 OFFCURVE",
"160 127 OFFCURVE",
"160 286 CURVE SMOOTH",
"160 356 LINE SMOOTH",
"160 515 OFFCURVE",
"212 543 OFFCURVE",
"321 543 CURVE SMOOTH",
"451 543 LINE SMOOTH",
"560 543 OFFCURVE",
"612 515 OFFCURVE",
"612 356 CURVE SMOOTH",
"612 286 LINE SMOOTH",
"612 127 OFFCURVE",
"560 99 OFFCURVE",
"451 99 CURVE SMOOTH"
);
},
{
closed = 1;
nodes = (
"413 260 LINE SMOOTH",
"413 250 OFFCURVE",
"407 245 OFFCURVE",
"396 245 CURVE SMOOTH",
"378 245 LINE SMOOTH",
"366 245 OFFCURVE",
"361 250 OFFCURVE",
"361 260 CURVE SMOOTH",
"361 383 LINE SMOOTH",
"361 393 OFFCURVE",
"366 398 OFFCURVE",
"378 398 CURVE SMOOTH",
"396 398 LINE SMOOTH",
"407 398 OFFCURVE",
"413 393 OFFCURVE",
"413 383 CURVE SMOOTH",
"413 350 LINE",
"530 350 LINE",
"530 403 LINE SMOOTH",
"530 454 OFFCURVE",
"502 488 OFFCURVE",
"429 488 CURVE SMOOTH",
"345 488 LINE SMOOTH",
"271 488 OFFCURVE",
"244 454 OFFCURVE",
"244 403 CURVE SMOOTH",
"244 240 LINE SMOOTH",
"244 189 OFFCURVE",
"271 155 OFFCURVE",
"345 155 CURVE SMOOTH",
"429 155 LINE SMOOTH",
"502 155 OFFCURVE",
"530 189 OFFCURVE",
"530 240 CURVE SMOOTH",
"530 294 LINE",
"413 294 LINE"
);
}
);
width = 772;
},
{
layerId = "D7ED940C-AEED-448E-AD50-67D9ABA5AFA7";
paths = (
{
closed = 1;
nodes = (
"651 342 LINE",
"651 527 OFFCURVE",
"588 622 OFFCURVE",
"445 622 CURVE SMOOTH",
"255 622 LINE SMOOTH",
"112 622 OFFCURVE",
"49 527 OFFCURVE",
"49 342 CURVE SMOOTH",
"49 271 LINE SMOOTH",
"49 86 OFFCURVE",
"112 0 OFFCURVE",
"255 0 CURVE SMOOTH",
"445 0 LINE SMOOTH",
"588 0 OFFCURVE",
"651 86 OFFCURVE",
"651 271 CURVE SMOOTH"
);
},
{
closed = 1;
nodes = (
"257 60 LINE",
"146 60 OFFCURVE",
"116 152 OFFCURVE",
"116 270 CURVE SMOOTH",
"116 343 LINE SMOOTH",
"116 461 OFFCURVE",
"146 564 OFFCURVE",
"257 564 CURVE SMOOTH",
"443 564 LINE SMOOTH",
"554 564 OFFCURVE",
"584 461 OFFCURVE",
"584 343 CURVE SMOOTH",
"584 270 LINE SMOOTH",
"584 152 OFFCURVE",
"554 60 OFFCURVE",
"443 60 CURVE SMOOTH"
);
},
{
closed = 1;
nodes = (
"406 240 LINE",
"406 214 OFFCURVE",
"401 209 OFFCURVE",
"375 209 CURVE SMOOTH",
"325 209 LINE SMOOTH",
"299 209 OFFCURVE",
"294 214 OFFCURVE",
"294 240 CURVE SMOOTH",
"294 395 LINE SMOOTH",
"294 421 OFFCURVE",
"299 426 OFFCURVE",
"325 426 CURVE SMOOTH",
"375 426 LINE SMOOTH",
"401 426 OFFCURVE",
"406 421 OFFCURVE",
"406 395 CURVE SMOOTH",
"406 371 LINE",
"475 371 LINE",
"475 406 LINE SMOOTH",
"475 459 OFFCURVE",
"449 485 OFFCURVE",
"396 485 CURVE SMOOTH",
"304 485 LINE SMOOTH",
"251 485 OFFCURVE",
"225 459 OFFCURVE",
"225 406 CURVE SMOOTH",
"225 229 LINE SMOOTH",
"225 176 OFFCURVE",
"251 150 OFFCURVE",
"304 150 CURVE SMOOTH",
"396 150 LINE SMOOTH",
"449 150 OFFCURVE",
"475 176 OFFCURVE",
"475 229 CURVE SMOOTH",
"475 264 LINE",
"406 264 LINE"
);
}
);
width = 682;
}
);
unicode = 00A9;
},
{
glyphname = ordfeminine;
layers = (
{
layerId = "DEF7E4D1-2777-4333-B76D-D32E6812EDA5";
paths = (
{
closed = 1;
nodes = (
"130 459 LINE",
"130 542 LINE SMOOTH",
"130 553 OFFCURVE",
"135 558 OFFCURVE",
"147 558 CURVE SMOOTH",
"183 558 LINE SMOOTH",
"196 558 OFFCURVE",
"202 551 OFFCURVE",
"202 537 CURVE SMOOTH",
"202 517 LINE",
"207 517 LINE",
"207 577 LINE SMOOTH",
"207 617 OFFCURVE",
"191 642 OFFCURVE",
"146 642 CURVE SMOOTH",
"119 642 LINE SMOOTH",
"52 642 OFFCURVE",
"25 608 OFFCURVE",
"25 554 CURVE SMOOTH",
"25 459 LINE"
);
},
{
closed = 1;
nodes = (
"307 289 LINE",
"307 642 LINE",
"205 642 LINE",
"205 575 LINE",
"202 575 LINE",
"202 289 LINE"
);
},
{
closed = 1;
nodes = (
"25 472 LINE",
"25 377 LINE SMOOTH",
"25 324 OFFCURVE",
"52 289 OFFCURVE",
"119 289 CURVE SMOOTH",
"150 289 LINE SMOOTH",
"195 289 OFFCURVE",
"207 314 OFFCURVE",
"207 354 CURVE SMOOTH",
"207 416 LINE",
"202 416 LINE",
"202 397 LINE SMOOTH",
"202 382 OFFCURVE",
"196 375 OFFCURVE",
"183 375 CURVE SMOOTH",
"147 375 LINE SMOOTH",
"135 375 OFFCURVE",
"130 380 OFFCURVE",
"130 391 CURVE SMOOTH",
"130 472 LINE"
);
}
);
width = 337;
},
{
layerId = "D7ED940C-AEED-448E-AD50-67D9ABA5AFA7";
paths = (
{
closed = 1;
nodes = (
"73 438 LINE",
"73 558 LINE SMOOTH",
"73 577 OFFCURVE",
"77 580 OFFCURVE",
"96 580 CURVE SMOOTH",
"133 580 LINE SMOOTH",
"150 580 OFFCURVE",
"157 573 OFFCURVE",
"157 554 CURVE SMOOTH",
"157 534 LINE",
"160 534 LINE",
"160 578 LINE SMOOTH",
"160 610 OFFCURVE",
"143 622 OFFCURVE",
"118 622 CURVE SMOOTH",
"81 622 LINE SMOOTH",
"43 622 OFFCURVE",
"25 604 OFFCURVE",
"25 566 CURVE SMOOTH",
"25 438 LINE"
);
},
{
closed = 1;
nodes = (
"206 280 LINE",
"206 622 LINE",
"157 622 LINE",
"157 582 LINE",
"157 577 LINE",
"157 280 LINE"
);
},
{
closed = 1;
nodes = (
"25 465 LINE",
"25 336 LINE SMOOTH",
"25 298 OFFCURVE",
"43 280 OFFCURVE",
"81 280 CURVE SMOOTH",
"118 280 LINE SMOOTH",
"143 280 OFFCURVE",
"160 292 OFFCURVE",
"160 324 CURVE SMOOTH",
"160 366 LINE",
"157 366 LINE",
"157 348 LINE SMOOTH",
"157 329 OFFCURVE",
"150 323 OFFCURVE",
"133 323 CURVE SMOOTH",
"96 323 LINE SMOOTH",
"77 323 OFFCURVE",
"73 327 OFFCURVE",
"73 345 CURVE SMOOTH",
"73 465 LINE"
);
}
);
width = 236;
}
);
unicode = 00AA;
},
{
glyphname = guillemotleft;
layers = (
{
layerId = "DEF7E4D1-2777-4333-B76D-D32E6812EDA5";
paths = (
{
closed = 1;
nodes = (
"125 96 LINE",
"284 96 LINE",
"177 249 LINE",
"284 400 LINE",
"125 400 LINE",
"15 249 LINE"
);
},
{
closed = 1;
nodes = (
"337 96 LINE",
"496 96 LINE",
"389 249 LINE",
"496 400 LINE",
"337 400 LINE",
"227 249 LINE"
);
}
);
width = 501;
},
{
layerId = "D7ED940C-AEED-448E-AD50-67D9ABA5AFA7";
paths = (
{
closed = 1;
nodes = (
"164 106 LINE",
"241 106 LINE",
"117 261 LINE",
"241 418 LINE",
"164 418 LINE",
"43 262 LINE"
);
},
{
closed = 1;
nodes = (
"364 106 LINE",
"441 106 LINE",
"317 261 LINE",
"441 418 LINE",
"364 418 LINE",
"243 262 LINE"
);
}
);
width = 487;
}
);
unicode = 00AB;
},
{
glyphname = logicalnot;
layers = (
{
layerId = "DEF7E4D1-2777-4333-B76D-D32E6812EDA5";
paths = (
{
closed = 1;
nodes = (
"442 417 LINE",
"50 417 LINE",
"50 242 LINE",
"442 242 LINE"
);
},
{
closed = 1;
nodes = (
"507 101 LINE",
"507 417 LINE",
"392 417 LINE",
"392 101 LINE"
);
}
);
width = 567;
},
{
layerId = "D7ED940C-AEED-448E-AD50-67D9ABA5AFA7";
paths = (
{
closed = 1;
nodes = (
"392 395 LINE",
"30 395 LINE",
"30 327 LINE",
"392 327 LINE"
);
},
{
closed = 1;
nodes = (
"392 177 LINE",
"392 395 LINE",
"333 395 LINE",
"333 177 LINE"
);
}
);
width = 432;
}
);
unicode = 00AC;
},
{
glyphname = softhyphen;
layers = (
{
layerId = "DEF7E4D1-2777-4333-B76D-D32E6812EDA5";
paths = (
{
closed = 1;
nodes = (
"20 245 LINE",
"323 245 LINE",
"323 360 LINE",
"20 360 LINE"
);
}
);
width = 343;
},
{
layerId = "D7ED940C-AEED-448E-AD50-67D9ABA5AFA7";
paths = (
{
closed = 1;
nodes = (
"55 263 LINE",
"251 263 LINE",
"251 321 LINE",
"55 321 LINE"
);
}
);
width = 307;
}
);
unicode = 00AD;
},
{
glyphname = registered;
layers = (
{
layerId = "DEF7E4D1-2777-4333-B76D-D32E6812EDA5";
paths = (
{
closed = 1;
nodes = (
"448 556 LINE SMOOTH",
"448 663 OFFCURVE",
"416 735 OFFCURVE",
"296 735 CURVE SMOOTH",
"181 735 LINE SMOOTH",
"61 735 OFFCURVE",
"30 663 OFFCURVE",
"30 556 CURVE SMOOTH",
"30 537 LINE SMOOTH",
"30 431 OFFCURVE",
"61 358 OFFCURVE",
"181 358 CURVE SMOOTH",
"296 358 LINE SMOOTH",
"416 358 OFFCURVE",
"448 431 OFFCURVE",
"448 537 CURVE SMOOTH"
);
},
{
closed = 1;
nodes = (
"201 420 LINE SMOOTH",
"137 420 OFFCURVE",
"106 433 OFFCURVE",
"106 526 CURVE SMOOTH",
"106 568 LINE SMOOTH",
"106 660 OFFCURVE",
"137 673 OFFCURVE",
"201 673 CURVE SMOOTH",
"277 673 LINE SMOOTH",
"341 673 OFFCURVE",
"371 660 OFFCURVE",
"371 568 CURVE SMOOTH",
"371 526 LINE SMOOTH",
"371 433 OFFCURVE",
"341 420 OFFCURVE",
"277 420 CURVE SMOOTH"
);
},
{
closed = 1;
nodes = (
"169 642 LINE",
"169 453 LINE",
"226 453 LINE",
"226 519 LINE",
"230 519 LINE",
"263 453 LINE",
"325 453 LINE",
"286 521 LINE",
"305 527 OFFCURVE",
"313 541 OFFCURVE",
"313 560 CURVE SMOOTH",
"313 602 LINE SMOOTH",
"313 626 OFFCURVE",
"300 642 OFFCURVE",
"265 642 CURVE SMOOTH"
);
},
{
closed = 1;
nodes = (
"256 567 LINE SMOOTH",
"256 562 OFFCURVE",
"253 560 OFFCURVE",
"248 560 CURVE SMOOTH",
"226 560 LINE",
"226 602 LINE",
"248 602 LINE SMOOTH",
"253 602 OFFCURVE",
"256 600 OFFCURVE",
"256 595 CURVE SMOOTH"
);
}
);
width = 478;
},
{
layerId = "D7ED940C-AEED-448E-AD50-67D9ABA5AFA7";
paths = (
{
closed = 1;
nodes = (
"362 529 LINE",
"362 629 OFFCURVE",
"328 681 OFFCURVE",
"250 681 CURVE SMOOTH",
"147 681 LINE SMOOTH",
"69 681 OFFCURVE",
"35 629 OFFCURVE",
"35 529 CURVE SMOOTH",
"35 490 LINE SMOOTH",
"35 390 OFFCURVE",
"69 343 OFFCURVE",
"147 343 CURVE SMOOTH",
"250 343 LINE SMOOTH",
"328 343 OFFCURVE",
"362 390 OFFCURVE",
"362 490 CURVE SMOOTH"
);
},
{
closed = 1;
nodes = (
"148 376 LINE",
"88 376 OFFCURVE",
"72 426 OFFCURVE",
"72 489 CURVE SMOOTH",
"72 529 LINE SMOOTH",
"72 593 OFFCURVE",
"88 650 OFFCURVE",
"148 650 CURVE SMOOTH",
"250 650 LINE SMOOTH",
"310 650 OFFCURVE",
"326 593 OFFCURVE",
"326 529 CURVE SMOOTH",
"326 489 LINE SMOOTH",
"326 426 OFFCURVE",
"310 376 OFFCURVE",
"250 376 CURVE SMOOTH"
);
},
{
closed = 1;
nodes = (
"152 620 LINE",
"152 407 LINE",
"183 407 LINE",
"183 493 LINE",
"195 493 LINE",
"226 407 LINE",
"258 407 LINE",
"226 494 LINE",
"240 497 OFFCURVE",
"247 507 OFFCURVE",
"247 524 CURVE",
"247 590 LINE SMOOTH",
"247 611 OFFCURVE",
"237 620 OFFCURVE",
"216 620 CURVE SMOOTH"
);
},
{
closed = 1;
nodes = (
"216 527 LINE",
"216 522 OFFCURVE",
"215 521 OFFCURVE",
"210 521 CURVE SMOOTH",
"183 521 LINE",
"183 594 LINE",
"210 594 LINE SMOOTH",
"215 594 OFFCURVE",
"216 593 OFFCURVE",
"216 587 CURVE SMOOTH"
);
}
);
width = 397;
}
);
unicode = 00AE;
},
{
glyphname = macron;
layers = (
{
layerId = "DEF7E4D1-2777-4333-B76D-D32E6812EDA5";
paths = (
{
closed = 1;
nodes = (
"55 555 LINE",
"444 555 LINE",
"444 661 LINE",
"55 661 LINE"
);
}
);
width = 500;
},
{
layerId = "D7ED940C-AEED-448E-AD50-67D9ABA5AFA7";
paths = (
{
closed = 1;
nodes = (
"82 550 LINE",
"318 550 LINE",
"318 608 LINE",
"82 608 LINE"
);
}
);
width = 400;
}
);
unicode = 00AF;
},
{
glyphname = degree;
layers = (
{
layerId = "DEF7E4D1-2777-4333-B76D-D32E6812EDA5";
paths = (
{
closed = 1;
nodes = (
"444 518 LINE SMOOTH",
"444 593 OFFCURVE",
"409 642 OFFCURVE",
"302 642 CURVE SMOOTH",
"182 642 LINE SMOOTH",
"75 642 OFFCURVE",
"40 593 OFFCURVE",
"40 518 CURVE SMOOTH",
"40 427 LINE SMOOTH",
"40 352 OFFCURVE",
"75 303 OFFCURVE",
"182 303 CURVE SMOOTH",
"302 303 LINE SMOOTH",
"409 303 OFFCURVE",
"444 352 OFFCURVE",
"444 427 CURVE SMOOTH"
);
},
{
closed = 1;
nodes = (
"286 430 LINE SMOOTH",
"286 415 OFFCURVE",
"278 408 OFFCURVE",
"261 408 CURVE SMOOTH",
"223 408 LINE SMOOTH",
"206 408 OFFCURVE",
"198 415 OFFCURVE",
"198 430 CURVE SMOOTH",
"198 515 LINE SMOOTH",
"198 530 OFFCURVE",
"206 537 OFFCURVE",
"223 537 CURVE SMOOTH",
"261 537 LINE SMOOTH",
"278 537 OFFCURVE",
"286 530 OFFCURVE",
"286 515 CURVE SMOOTH"
);
}
);
width = 484;
},
{
layerId = "D7ED940C-AEED-448E-AD50-67D9ABA5AFA7";
paths = (
{
closed = 1;
nodes = (
"292 545 LINE",
"292 597 OFFCURVE",
"267 622 OFFCURVE",
"215 622 CURVE SMOOTH",
"135 622 LINE SMOOTH",
"83 622 OFFCURVE",
"58 597 OFFCURVE",
"58 545 CURVE SMOOTH",
"58 430 LINE SMOOTH",
"58 378 OFFCURVE",
"83 353 OFFCURVE",
"135 353 CURVE SMOOTH",
"215 353 LINE SMOOTH",
"267 353 OFFCURVE",
"292 378 OFFCURVE",
"292 430 CURVE"
);
},
{
closed = 1;
nodes = (
"228 439 LINE",
"228 414 OFFCURVE",
"223 409 OFFCURVE",
"197 409 CURVE SMOOTH",
"153 409 LINE SMOOTH",
"127 409 OFFCURVE",
"122 414 OFFCURVE",
"122 439 CURVE SMOOTH",
"122 536 LINE SMOOTH",
"122 561 OFFCURVE",
"127 566 OFFCURVE",
"153 566 CURVE SMOOTH",
"197 566 LINE SMOOTH",
"223 566 OFFCURVE",
"228 561 OFFCURVE",
"228 536 CURVE"
);
}
);
width = 356;
}
);
unicode = 00B0;
},
{
glyphname = plusminus;
layers = (
{
layerId = "DEF7E4D1-2777-4333-B76D-D32E6812EDA5";
paths = (
{
closed = 1;
nodes = (
"25 371 LINE",
"508 371 LINE",
"508 492 LINE",
"25 492 LINE"
);
},
{
closed = 1;
nodes = (
"185 567 LINE",
"185 296 LINE",
"348 296 LINE",
"348 567 LINE"
);
},
{
closed = 1;
nodes = (
"25 139 LINE",
"508 139 LINE",
"508 264 LINE",
"25 264 LINE"
);
}
);
width = 533;
},
{
layerId = "D7ED940C-AEED-448E-AD50-67D9ABA5AFA7";
paths = (
{
closed = 1;
nodes = (
"30 349 LINE",
"360 349 LINE",
"360 409 LINE",
"30 409 LINE"
);
},
{
closed = 1;
nodes = (
"160 489 LINE",
"160 269 LINE",
"230 269 LINE",
"230 489 LINE"
);
},
{
closed = 1;
nodes = (
"30 179 LINE",
"360 179 LINE",
"360 239 LINE",
"30 239 LINE"
);
}
);
width = 390;
}
);
unicode = 00B1;
},
{
glyphname = twosuperior;
layers = (
{
layerId = "DEF7E4D1-2777-4333-B76D-D32E6812EDA5";
paths = (
{
closed = 1;
nodes = (
"119 561 LINE SMOOTH",
"119 569 OFFCURVE",
"123 573 OFFCURVE",
"133 573 CURVE SMOOTH",
"144 573 LINE SMOOTH",
"153 573 OFFCURVE",
"157 569 OFFCURVE",
"157 561 CURVE SMOOTH",
"157 524 LINE SMOOTH",
"157 492 OFFCURVE",
"155 482 OFFCURVE",
"135 464 CURVE SMOOTH",
"15 353 LINE",
"15 289 LINE",
"262 289 LINE",
"262 362 LINE",
"145 362 LINE",
"218 427 LINE SMOOTH",
"246 452 OFFCURVE",
"262 483 OFFCURVE",
"262 532 CURVE SMOOTH",
"262 574 LINE SMOOTH",
"262 615 OFFCURVE",
"241 642 OFFCURVE",
"182 642 CURVE SMOOTH",
"94 642 LINE SMOOTH",
"35 642 OFFCURVE",
"13 615 OFFCURVE",
"13 574 CURVE SMOOTH",
"13 511 LINE",
"119 511 LINE"
);
}
);
width = 287;
},
{
layerId = "D7ED940C-AEED-448E-AD50-67D9ABA5AFA7";
paths = (
{
closed = 1;
nodes = (
"61 563 LINE",
"61 577 OFFCURVE",
"64 580 OFFCURVE",
"78 580 CURVE",
"98 580 LINE SMOOTH",
"112 580 OFFCURVE",
"115 577 OFFCURVE",
"115 563 CURVE SMOOTH",
"115 551 LINE SMOOTH",
"115 524 OFFCURVE",
"112 504 OFFCURVE",
"100 482 CURVE",
"14 324 LINE",
"14 280 LINE",
"166 280 LINE",
"166 325 LINE",
"68 325 LINE",
"147 471 LINE SMOOTH",
"160 496 OFFCURVE",
"163 521 OFFCURVE",
"163 548 CURVE SMOOTH",
"163 579 LINE SMOOTH",
"163 608 OFFCURVE",
"149 622 OFFCURVE",
"120 622 CURVE SMOOTH",
"57 622 LINE SMOOTH",
"28 622 OFFCURVE",
"14 608 OFFCURVE",
"14 579 CURVE SMOOTH",
"14 512 LINE",
"61 512 LINE"
);
}
);
width = 179;
}
);
unicode = 00B2;
},
{
glyphname = threesuperior;
layers = (
{
layerId = "DEF7E4D1-2777-4333-B76D-D32E6812EDA5";
paths = (
{
closed = 1;
nodes = (
"119 561 LINE SMOOTH",
"119 569 OFFCURVE",
"123 573 OFFCURVE",
"133 573 CURVE SMOOTH",
"144 573 LINE SMOOTH",
"153 573 OFFCURVE",
"157 569 OFFCURVE",
"157 561 CURVE SMOOTH",
"157 508 LINE SMOOTH",
"157 500 OFFCURVE",
"153 496 OFFCURVE",
"144 496 CURVE SMOOTH",
"107 496 LINE",
"107 432 LINE",
"144 432 LINE SMOOTH",
"153 432 OFFCURVE",
"157 429 OFFCURVE",
"157 420 CURVE SMOOTH",
"157 370 LINE SMOOTH",
"157 362 OFFCURVE",
"153 358 OFFCURVE",
"144 358 CURVE SMOOTH",
"133 358 LINE SMOOTH",
"123 358 OFFCURVE",
"119 362 OFFCURVE",
"119 370 CURVE SMOOTH",
"119 405 LINE",
"13 405 LINE",
"13 357 LINE SMOOTH",
"13 316 OFFCURVE",
"35 289 OFFCURVE",
"94 289 CURVE SMOOTH",
"181 289 LINE SMOOTH",
"240 289 OFFCURVE",
"262 316 OFFCURVE",
"262 357 CURVE SMOOTH",
"262 408 LINE SMOOTH",
"262 436 OFFCURVE",
"257 455 OFFCURVE",
"236 465 CURVE",
"257 476 OFFCURVE",
"262 498 OFFCURVE",
"262 527 CURVE SMOOTH",
"262 574 LINE SMOOTH",
"262 615 OFFCURVE",
"240 642 OFFCURVE",
"181 642 CURVE SMOOTH",
"94 642 LINE SMOOTH",
"35 642 OFFCURVE",
"13 615 OFFCURVE",
"13 574 CURVE SMOOTH",
"13 527 LINE",
"119 527 LINE"
);
}
);
width = 283;
},
{
layerId = "D7ED940C-AEED-448E-AD50-67D9ABA5AFA7";
paths = (
{
closed = 1;
nodes = (
"64 563 LINE",
"64 577 OFFCURVE",
"67 580 OFFCURVE",
"81 580 CURVE SMOOTH",
"105 580 LINE SMOOTH",
"119 580 OFFCURVE",
"122 577 OFFCURVE",
"122 563 CURVE SMOOTH",
"122 492 LINE SMOOTH",
"122 478 OFFCURVE",
"119 475 OFFCURVE",
"105 475 CURVE SMOOTH",
"75 475 LINE",
"75 432 LINE",
"105 432 LINE SMOOTH",
"119 432 OFFCURVE",
"122 429 OFFCURVE",
"122 415 CURVE SMOOTH",
"122 340 LINE SMOOTH",
"122 325 OFFCURVE",
"119 322 OFFCURVE",
"105 322 CURVE SMOOTH",
"81 322 LINE SMOOTH",
"67 322 OFFCURVE",
"64 325 OFFCURVE",
"64 340 CURVE SMOOTH",
"64 385 LINE",
"16 385 LINE",
"16 323 LINE SMOOTH",
"16 294 OFFCURVE",
"31 280 OFFCURVE",
"60 280 CURVE SMOOTH",
"126 280 LINE SMOOTH",
"155 280 OFFCURVE",
"170 294 OFFCURVE",
"170 323 CURVE SMOOTH",
"170 428 LINE SMOOTH",
"170 444 OFFCURVE",
"162 452 OFFCURVE",
"149 454 CURVE",
"162 455 OFFCURVE",
"170 464 OFFCURVE",
"170 480 CURVE SMOOTH",
"170 579 LINE SMOOTH",
"170 608 OFFCURVE",
"155 622 OFFCURVE",
"126 622 CURVE",
"60 622 LINE SMOOTH",
"31 622 OFFCURVE",
"16 608 OFFCURVE",
"16 579 CURVE SMOOTH",
"16 517 LINE",
"64 517 LINE"
);
}
);
width = 196;
}
);
unicode = 00B3;
},
{
glyphname = acute;
layers = (
{
layerId = "DEF7E4D1-2777-4333-B76D-D32E6812EDA5";
paths = (
{
closed = 1;
nodes = (
"116 532 LINE",
"250 532 LINE",
"383 682 LINE",
"213 682 LINE"
);
}
);
width = 500;
},
{
layerId = "D7ED940C-AEED-448E-AD50-67D9ABA5AFA7";
paths = (
{
closed = 1;
nodes = (
"118 516 LINE",
"180 516 LINE",
"278 643 LINE",
"196 643 LINE"
);
}
);
width = 400;
}
);
unicode = 00B4;
},
{
glyphname = micro;
layers = (
{
layerId = "DEF7E4D1-2777-4333-B76D-D32E6812EDA5";
paths = (
{
closed = 1;
nodes = (
"40 499 LINE",
"40 124 LINE SMOOTH",
"40 49 OFFCURVE",
"78 0 OFFCURVE",
"173 0 CURVE SMOOTH",
"191 0 LINE SMOOTH",
"254 0 OFFCURVE",
"285 36 OFFCURVE",
"285 92 CURVE SMOOTH",
"285 182 LINE",
"279 182 LINE",
"279 155 LINE SMOOTH",
"279 134 OFFCURVE",
"270 125 OFFCURVE",
"252 125 CURVE SMOOTH",
"235 125 LINE SMOOTH",
"218 125 OFFCURVE",
"210 132 OFFCURVE",
"210 147 CURVE SMOOTH",
"210 499 LINE"
);
},
{
closed = 1;
nodes = (
"279 499 LINE",
"279 95 LINE",
"282 95 LINE",
"282 0 LINE",
"449 0 LINE",
"449 499 LINE"
);
},
{
closed = 1;
nodes = (
"40 449 LINE",
"40 -129 LINE",
"210 -129 LINE",
"210 449 LINE"
);
}
);
width = 489;
},
{
layerId = "D7ED940C-AEED-448E-AD50-67D9ABA5AFA7";
paths = (
{
closed = 1;
nodes = (
"40 485 LINE",
"40 79 LINE SMOOTH",
"40 26 OFFCURVE",
"66 0 OFFCURVE",
"119 0 CURVE SMOOTH",
"159 0 LINE SMOOTH",
"194 0 OFFCURVE",
"218 16 OFFCURVE",
"218 61 CURVE SMOOTH",
"218 129 LINE",
"214 129 LINE",
"214 95 LINE SMOOTH",
"214 68 OFFCURVE",
"204 59 OFFCURVE",
"180 59 CURVE SMOOTH",
"140 59 LINE SMOOTH",
"114 59 OFFCURVE",
"109 64 OFFCURVE",
"109 90 CURVE SMOOTH",
"109 485 LINE"
);
},
{
closed = 1;
nodes = (
"214 485 LINE",
"214 59 LINE",
"214 52 LINE",
"214 0 LINE",
"283 0 LINE",
"283 485 LINE"
);
},
{
closed = 1;
nodes = (
"40 435 LINE",
"40 -141 LINE",
"109 -141 LINE",
"109 435 LINE"
);
}
);
width = 339;
}
);
unicode = 00B5;
},
{
glyphname = paragraph;
layers = (
{
layerId = "DEF7E4D1-2777-4333-B76D-D32E6812EDA5";
paths = (
{
closed = 1;
nodes = (
"293 642 LINE",
"174 642 LINE SMOOTH",
"67 642 OFFCURVE",
"27 593 OFFCURVE",
"27 518 CURVE SMOOTH",
"27 334 LINE SMOOTH",
"27 259 OFFCURVE",
"67 210 OFFCURVE",
"174 210 CURVE SMOOTH",
"293 210 LINE"
);
},
{
closed = 1;
nodes = (
"196 642 LINE",
"196 -129 LINE",
"331 -129 LINE",
"331 642 LINE"
);
},
{
closed = 1;
nodes = (
"384 642 LINE",
"384 -129 LINE",
"519 -129 LINE",
"519 642 LINE"
);
}
);
width = 569;
},
{
layerId = "D7ED940C-AEED-448E-AD50-67D9ABA5AFA7";
paths = (
{
closed = 1;
nodes = (
"243 622 LINE",
"134 622 LINE SMOOTH",
"81 622 OFFCURVE",
"55 596 OFFCURVE",
"55 543 CURVE SMOOTH",
"55 309 LINE SMOOTH",
"55 256 OFFCURVE",
"81 230 OFFCURVE",
"134 230 CURVE SMOOTH",
"243 230 LINE"
);
},
{
closed = 1;
nodes = (
"207 622 LINE",
"207 -141 LINE",
"275 -141 LINE",
"275 622 LINE"
);
},
{
closed = 1;
nodes = (
"357 622 LINE",
"357 -141 LINE",
"425 -141 LINE",
"425 622 LINE"
);
}
);
width = 490;
}
);
unicode = 00B6;
},
{
glyphname = periodcentered;
layers = (
{
layerId = "DEF7E4D1-2777-4333-B76D-D32E6812EDA5";
paths = (
{
closed = 1;
nodes = (
"49 258 LINE",
"221 258 LINE",
"221 412 LINE",
"49 412 LINE"
);
}
);
width = 272;
},
{
layerId = "D7ED940C-AEED-448E-AD50-67D9ABA5AFA7";
paths = (
{
closed = 1;
nodes = (
"30 259 LINE",
"112 259 LINE",
"112 371 LINE",
"30 371 LINE"
);
}
);
width = 202;
}
);
unicode = 00B7;
},
{
glyphname = cedilla;
layers = (
{
layerId = "DEF7E4D1-2777-4333-B76D-D32E6812EDA5";
paths = (
{
closed = 1;
nodes = (
"199 -123 LINE SMOOTH",
"199 -138 OFFCURVE",
"191 -145 OFFCURVE",
"174 -145 CURVE SMOOTH",
"121 -145 LINE",
"121 -260 LINE",
"212 -260 LINE SMOOTH",
"319 -260 OFFCURVE",
"359 -211 OFFCURVE",
"359 -136 CURVE SMOOTH",
"359 -46 LINE",
"199 -46 LINE"
);
}
);
width = 500;
},
{
layerId = "D7ED940C-AEED-448E-AD50-67D9ABA5AFA7";
paths = (
{
closed = 1;
nodes = (
"208 -73 LINE",
"208 -99 OFFCURVE",
"199 -110 OFFCURVE",
"173 -110 CURVE SMOOTH",
"136 -110 LINE",
"136 -168 LINE",
"184 -168 LINE SMOOTH",
"238 -168 OFFCURVE",
"273 -140 OFFCURVE",
"273 -79 CURVE SMOOTH",
"273 -51 LINE",
"208 -51 LINE"
);
}
);
width = 400;
}
);
unicode = 00B8;
},
{
glyphname = onesuperior;
layers = (
{
layerId = "DEF7E4D1-2777-4333-B76D-D32E6812EDA5";
paths = (
{
closed = 1;
nodes = (
"123 642 LINE",
"10 642 LINE",
"10 573 LINE",
"123 573 LINE"
);
},
{
closed = 1;
nodes = (
"59 642 LINE",
"59 289 LINE",
"169 289 LINE",
"169 642 LINE"
);
}
);
width = 218;
},
{
layerId = "D7ED940C-AEED-448E-AD50-67D9ABA5AFA7";
paths = (
{
closed = 1;
nodes = (
"63 622 LINE",
"11 622 LINE",
"11 580 LINE",
"63 580 LINE"
);
},
{
closed = 1;
nodes = (
"48 622 LINE",
"48 280 LINE",
"96 280 LINE",
"96 622 LINE"
);
}
);
width = 126;
}
);
unicode = 00B9;
},
{
glyphname = ordmasculine;
layers = (
{
layerId = "DEF7E4D1-2777-4333-B76D-D32E6812EDA5";
paths = (
{
closed = 1;
nodes = (
"201 453 LINE",
"306 453 LINE",
"306 554 LINE SMOOTH",
"306 608 OFFCURVE",
"281 642 OFFCURVE",
"205 642 CURVE SMOOTH",
"169 642 LINE",
"169 573 LINE",
"183 573 LINE SMOOTH",
"195 573 OFFCURVE",
"201 568 OFFCURVE",
"201 557 CURVE SMOOTH"
);
},
{
closed = 1;
nodes = (
"201 373 LINE SMOOTH",
"201 362 OFFCURVE",
"195 358 OFFCURVE",
"183 358 CURVE SMOOTH",
"169 358 LINE",
"169 289 LINE",
"205 289 LINE SMOOTH",
"281 289 OFFCURVE",
"306 324 OFFCURVE",
"306 377 CURVE SMOOTH",
"306 462 LINE",
"201 462 LINE"
);
},
{
closed = 1;
nodes = (
"130 557 LINE SMOOTH",
"130 568 OFFCURVE",
"136 573 OFFCURVE",
"148 573 CURVE SMOOTH",
"171 573 LINE",
"171 642 LINE",
"125 642 LINE SMOOTH",
"50 642 OFFCURVE",
"25 608 OFFCURVE",
"25 554 CURVE SMOOTH",
"25 453 LINE",
"130 453 LINE"
);
},
{
closed = 1;
nodes = (
"130 462 LINE",
"25 462 LINE",
"25 377 LINE SMOOTH",
"25 324 OFFCURVE",
"50 289 OFFCURVE",
"125 289 CURVE SMOOTH",
"171 289 LINE",
"171 358 LINE",
"148 358 LINE SMOOTH",
"136 358 OFFCURVE",
"130 362 OFFCURVE",
"130 373 CURVE SMOOTH"
);
}
);
width = 331;
},
{
layerId = "D7ED940C-AEED-448E-AD50-67D9ABA5AFA7";
paths = (
{
closed = 1;
nodes = (
"152 379 LINE",
"200 379 LINE",
"200 566 LINE SMOOTH",
"200 604 OFFCURVE",
"181 622 OFFCURVE",
"144 622 CURVE SMOOTH",
"115 622 LINE",
"115 580 LINE",
"129 580 LINE SMOOTH",
"148 580 OFFCURVE",
"152 577 OFFCURVE",
"152 558 CURVE SMOOTH"
);
},
{
closed = 1;
nodes = (
"152 344 LINE",
"152 326 OFFCURVE",
"148 322 OFFCURVE",
"129 322 CURVE SMOOTH",
"110 322 LINE",
"110 280 LINE",
"144 280 LINE SMOOTH",
"181 280 OFFCURVE",
"200 298 OFFCURVE",
"200 336 CURVE SMOOTH",
"200 415 LINE",
"152 415 LINE"
);
},
{
closed = 1;
nodes = (
"74 558 LINE",
"74 577 OFFCURVE",
"77 580 OFFCURVE",
"96 580 CURVE SMOOTH",
"129 580 LINE",
"129 622 LINE",
"82 622 LINE SMOOTH",
"44 622 OFFCURVE",
"26 604 OFFCURVE",
"26 566 CURVE SMOOTH",
"26 379 LINE",
"74 379 LINE"
);
},
{
closed = 1;
nodes = (
"74 420 LINE",
"26 420 LINE",
"26 336 LINE SMOOTH",
"26 298 OFFCURVE",
"44 280 OFFCURVE",
"82 280 CURVE SMOOTH",
"127 280 LINE",
"127 322 LINE",
"96 322 LINE SMOOTH",
"77 322 OFFCURVE",
"74 326 OFFCURVE",
"74 344 CURVE SMOOTH"
);
}
);
width = 226;
}
);
unicode = 00BA;
},
{
glyphname = guillemotright;
layers = (
{
layerId = "DEF7E4D1-2777-4333-B76D-D32E6812EDA5";
paths = (
{
closed = 1;
nodes = (
"284 249 LINE",
"174 400 LINE",
"15 400 LINE",
"122 249 LINE",
"15 96 LINE",
"174 96 LINE"
);
},
{
closed = 1;
nodes = (
"496 249 LINE",
"386 400 LINE",
"227 400 LINE",
"334 249 LINE",
"227 96 LINE",
"386 96 LINE"
);
}
);
width = 501;
},
{
layerId = "D7ED940C-AEED-448E-AD50-67D9ABA5AFA7";
paths = (
{
closed = 1;
nodes = (
"241 262 LINE",
"120 418 LINE",
"43 418 LINE",
"167 261 LINE",
"43 106 LINE",
"120 106 LINE"
);
},
{
closed = 1;
nodes = (
"441 262 LINE",
"320 418 LINE",
"243 418 LINE",
"367 261 LINE",
"243 106 LINE",
"320 106 LINE"
);
}
);
width = 487;
}
);
unicode = 00BB;
},
{
glyphname = questiondown;
layers = (
{
layerId = "DEF7E4D1-2777-4333-B76D-D32E6812EDA5";
paths = (
{
closed = 1;
nodes = (
"195 91 LINE SMOOTH",
"195 106 OFFCURVE",
"203 113 OFFCURVE",
"220 113 CURVE SMOOTH",
"275 113 LINE",
"275 205 LINE",
"167 205 LINE SMOOTH",
"60 205 OFFCURVE",
"20 156 OFFCURVE",
"20 81 CURVE SMOOTH",
"20 -19 LINE SMOOTH",
"20 -94 OFFCURVE",
"60 -143 OFFCURVE",
"167 -143 CURVE SMOOTH",
"242 -143 LINE",
"242 -28 LINE",
"220 -28 LINE SMOOTH",
"203 -28 OFFCURVE",
"195 -21 OFFCURVE",
"195 -6 CURVE SMOOTH"
);
},
{
closed = 1;
nodes = (
"330 113 LINE",
"315 266 LINE",
"169 266 LINE",
"153 113 LINE"
);
},
{
closed = 1;
nodes = (
"330 499 LINE",
"158 499 LINE",
"158 335 LINE",
"330 335 LINE"
);
},
{
closed = 1;
nodes = (
"274 -6 LINE SMOOTH",
"274 -21 OFFCURVE",
"266 -28 OFFCURVE",
"249 -28 CURVE SMOOTH",
"239 -28 LINE",
"239 -143 LINE",
"302 -143 LINE SMOOTH",
"409 -143 OFFCURVE",
"449 -94 OFFCURVE",
"449 -19 CURVE SMOOTH",
"449 62 LINE",
"274 62 LINE"
);
}
);
width = 469;
},
{
layerId = "D7ED940C-AEED-448E-AD50-67D9ABA5AFA7";
paths = (
{
closed = 1;
nodes = (
"89 131 LINE",
"89 155 OFFCURVE",
"92 163 OFFCURVE",
"117 163 CURVE SMOOTH",
"148 163 LINE",
"148 222 LINE",
"99 222 LINE SMOOTH",
"43 222 OFFCURVE",
"20 191 OFFCURVE",
"20 144 CURVE SMOOTH",
"20 -60 LINE SMOOTH",
"20 -107 OFFCURVE",
"43 -137 OFFCURVE",
"99 -137 CURVE SMOOTH",
"157 -137 LINE",
"157 -79 LINE",
"117 -79 LINE SMOOTH",
"92 -79 OFFCURVE",
"89 -70 OFFCURVE",
"89 -46 CURVE SMOOTH"
);
},
{
closed = 1;
nodes = (
"183 163 LINE",
"177 289 LINE",
"120 289 LINE",
"114 163 LINE"
);
},
{
closed = 1;
nodes = (
"190 485 LINE",
"108 485 LINE",
"108 373 LINE",
"190 373 LINE"
);
},
{
closed = 1;
nodes = (
"194 -46 LINE",
"194 -70 OFFCURVE",
"191 -79 OFFCURVE",
"165 -79 CURVE SMOOTH",
"126 -79 LINE",
"126 -137 LINE",
"184 -137 LINE SMOOTH",
"240 -137 OFFCURVE",
"263 -107 OFFCURVE",
"263 -60 CURVE SMOOTH",
"263 26 LINE",
"194 26 LINE"
);
}
);
width = 308;
}
);
unicode = 00BF;
},
{
glyphname = Agrave;
layers = (
{
layerId = "DEF7E4D1-2777-4333-B76D-D32E6812EDA5";
paths = (
{
closed = 1;
nodes = (
"433 220 LINE",
"112 220 LINE",
"112 96 LINE",
"433 96 LINE"
);
},
{
closed = 1;
nodes = (
"543 0 LINE",
"378 642 LINE",
"165 642 LINE",
"0 0 LINE",
"172 0 LINE",
"271 451 LINE",
"367 0 LINE"
);
},
{
closed = 1;
nodes = (
"234 825 LINE",
"64 825 LINE",
"197 675 LINE",
"331 675 LINE"
);
}
);
width = 543;
},
{
layerId = "D7ED940C-AEED-448E-AD50-67D9ABA5AFA7";
paths = (
{
closed = 1;
nodes = (
"257 217 LINE",
"83 217 LINE",
"83 158 LINE",
"257 158 LINE"
);
},
{
closed = 1;
nodes = (
"328 0 LINE",
"221 622 LINE",
"112 622 LINE",
"15 0 LINE",
"84 0 LINE",
"166 574 LINE",
"259 0 LINE"
);
},
{
closed = 1;
nodes = (
"113 780 LINE",
"31 780 LINE",
"129 653 LINE",
"191 653 LINE"
);
}
);
width = 343;
}
);
unicode = 00C0;
},
{
glyphname = Aacute;
layers = (
{
layerId = "DEF7E4D1-2777-4333-B76D-D32E6812EDA5";
paths = (
{
closed = 1;
nodes = (
"433 220 LINE",
"112 220 LINE",
"112 96 LINE",
"433 96 LINE"
);
},
{
closed = 1;
nodes = (
"543 0 LINE",
"378 642 LINE",
"165 642 LINE",
"0 0 LINE",
"172 0 LINE",
"271 451 LINE",
"367 0 LINE"
);
},
{
closed = 1;
nodes = (
"207 675 LINE",
"341 675 LINE",
"474 825 LINE",
"304 825 LINE"
);
}
);
width = 543;
},
{
layerId = "D7ED940C-AEED-448E-AD50-67D9ABA5AFA7";
paths = (
{
closed = 1;
nodes = (
"257 217 LINE",
"83 217 LINE",
"83 158 LINE",
"257 158 LINE"
);
},
{
closed = 1;
nodes = (
"328 0 LINE",
"221 622 LINE",
"112 622 LINE",
"15 0 LINE",
"84 0 LINE",
"166 574 LINE",
"259 0 LINE"
);
},
{
closed = 1;
nodes = (
"135 653 LINE",
"197 653 LINE",
"295 780 LINE",
"213 780 LINE"
);
}
);
width = 343;
}
);
unicode = 00C1;
},
{
glyphname = Acircumflex;
layers = (
{
layerId = "DEF7E4D1-2777-4333-B76D-D32E6812EDA5";
paths = (
{
closed = 1;
nodes = (
"433 220 LINE",
"112 220 LINE",
"112 96 LINE",
"433 96 LINE"
);
},
{
closed = 1;
nodes = (
"543 0 LINE",
"378 642 LINE",
"165 642 LINE",
"0 0 LINE",
"172 0 LINE",
"271 451 LINE",
"367 0 LINE"
);
},
{
closed = 1;
nodes = (
"61 675 LINE",
"218 675 LINE",
"271 744 LINE",
"324 675 LINE",
"481 675 LINE",
"348 825 LINE",
"194 825 LINE"
);
}
);
width = 543;
},
{
layerId = "D7ED940C-AEED-448E-AD50-67D9ABA5AFA7";
paths = (
{
closed = 1;
nodes = (
"257 217 LINE",
"83 217 LINE",
"83 158 LINE",
"257 158 LINE"
);
},
{
closed = 1;
nodes = (
"328 0 LINE",
"221 622 LINE",
"112 622 LINE",
"15 0 LINE",
"84 0 LINE",
"166 574 LINE",
"259 0 LINE"
);
},
{
closed = 1;
nodes = (
"38 653 LINE",
"114 653 LINE",
"166 737 LINE",
"219 653 LINE",
"295 653 LINE",
"210 780 LINE",
"123 780 LINE"
);
}
);
width = 343;
}
);
unicode = 00C2;
},
{
glyphname = circumflex;
layers = (
{
layerId = "DEF7E4D1-2777-4333-B76D-D32E6812EDA5";
paths = (
{
closed = 1;
nodes = (
"40 532 LINE",
"197 532 LINE",
"250 601 LINE",
"303 532 LINE",
"460 532 LINE",
"327 682 LINE",
"173 682 LINE"
);
}
);
width = 500;
},
{
layerId = "D7ED940C-AEED-448E-AD50-67D9ABA5AFA7";
paths = (
{
closed = 1;
nodes = (
"71 516 LINE",
"147 516 LINE",
"199 600 LINE",
"252 516 LINE",
"328 516 LINE",
"243 643 LINE",
"156 643 LINE"
);
}
);
width = 400;
}
);
unicode = 02C6;
},
{
glyphname = Atilde;
layers = (
{
layerId = "DEF7E4D1-2777-4333-B76D-D32E6812EDA5";
paths = (
{
closed = 1;
nodes = (
"433 220 LINE",
"112 220 LINE",
"112 96 LINE",
"433 96 LINE"
);
},
{
closed = 1;
nodes = (
"543 0 LINE",
"378 642 LINE",
"165 642 LINE",
"0 0 LINE",
"172 0 LINE",
"271 451 LINE",
"367 0 LINE"
);
},
{
closed = 1;
nodes = (
"355 675 LINE SMOOTH",
"431 675 OFFCURVE",
"456 706 OFFCURVE",
"456 765 CURVE SMOOTH",
"456 825 LINE",
"321 825 LINE",
"321 794 LINE SMOOTH",
"321 780 OFFCURVE",
"315 773 OFFCURVE",
"303 773 CURVE SMOOTH",
"282 773 OFFCURVE",
"239 825 OFFCURVE",
"181 825 CURVE SMOOTH",
"162 825 LINE SMOOTH",
"87 825 OFFCURVE",
"63 789 OFFCURVE",
"63 730 CURVE SMOOTH",
"63 675 LINE",
"198 675 LINE",
"198 706 LINE SMOOTH",
"198 720 OFFCURVE",
"204 727 OFFCURVE",
"216 727 CURVE SMOOTH",
"237 727 OFFCURVE",
"280 675 OFFCURVE",
"338 675 CURVE SMOOTH"
);
}
);
width = 543;
},
{
layerId = "D7ED940C-AEED-448E-AD50-67D9ABA5AFA7";
paths = (
{
closed = 1;
nodes = (
"257 217 LINE",
"83 217 LINE",
"83 158 LINE",
"257 158 LINE"
);
},
{
closed = 1;
nodes = (
"328 0 LINE",
"221 622 LINE",
"112 622 LINE",
"15 0 LINE",
"84 0 LINE",
"166 574 LINE",
"259 0 LINE"
);
},
{
closed = 1;
nodes = (
"220 653 LINE SMOOTH",
"276 653 OFFCURVE",
"291 683 OFFCURVE",
"291 729 CURVE SMOOTH",
"291 743 LINE",
"229 743 LINE",
"229 733 LINE SMOOTH",
"229 712 OFFCURVE",
"224 708 OFFCURVE",
"210 708 CURVE SMOOTH",
"186 708 OFFCURVE",
"161 743 OFFCURVE",
"119 743 CURVE SMOOTH",
"113 743 LINE SMOOTH",
"58 743 OFFCURVE",
"41 714 OFFCURVE",
"41 667 CURVE SMOOTH",
"41 653 LINE",
"103 653 LINE",
"103 664 LINE SMOOTH",
"103 680 OFFCURVE",
"108 688 OFFCURVE",
"120 688 CURVE SMOOTH",
"145 688 OFFCURVE",
"172 653 OFFCURVE",
"215 653 CURVE"
);
}
);
width = 343;
}
);
unicode = 00C3;
},
{
glyphname = tilde;
layers = (
{
layerId = "DEF7E4D1-2777-4333-B76D-D32E6812EDA5";
paths = (
{
closed = 1;
nodes = (
"345 532 LINE SMOOTH",
"421 532 OFFCURVE",
"446 563 OFFCURVE",
"446 622 CURVE SMOOTH",
"446 682 LINE",
"311 682 LINE",
"311 651 LINE SMOOTH",
"311 637 OFFCURVE",
"305 630 OFFCURVE",
"293 630 CURVE SMOOTH",
"272 630 OFFCURVE",
"229 682 OFFCURVE",
"171 682 CURVE SMOOTH",
"152 682 LINE SMOOTH",
"77 682 OFFCURVE",
"53 646 OFFCURVE",
"53 587 CURVE SMOOTH",
"53 532 LINE",
"188 532 LINE",
"188 563 LINE SMOOTH",
"188 577 OFFCURVE",
"194 584 OFFCURVE",
"206 584 CURVE SMOOTH",
"227 584 OFFCURVE",
"270 532 OFFCURVE",
"328 532 CURVE SMOOTH"
);
}
);
width = 500;
},
{
layerId = "D7ED940C-AEED-448E-AD50-67D9ABA5AFA7";
paths = (
{
closed = 1;
nodes = (
"254 534 LINE SMOOTH",
"310 534 OFFCURVE",
"325 564 OFFCURVE",
"325 610 CURVE SMOOTH",
"325 624 LINE",
"263 624 LINE",
"263 614 LINE SMOOTH",
"263 593 OFFCURVE",
"258 589 OFFCURVE",
"244 589 CURVE SMOOTH",
"220 589 OFFCURVE",
"195 624 OFFCURVE",
"153 624 CURVE SMOOTH",
"147 624 LINE SMOOTH",
"92 624 OFFCURVE",
"75 595 OFFCURVE",
"75 548 CURVE SMOOTH",
"75 534 LINE",
"137 534 LINE",
"137 545 LINE SMOOTH",
"137 561 OFFCURVE",
"142 569 OFFCURVE",
"154 569 CURVE SMOOTH",
"179 569 OFFCURVE",
"206 534 OFFCURVE",
"249 534 CURVE"
);
}
);
width = 400;
}
);
unicode = 02DC;
},
{
glyphname = Adieresis;
layers = (
{
layerId = "DEF7E4D1-2777-4333-B76D-D32E6812EDA5";
paths = (
{
closed = 1;
nodes = (
"75 675 LINE",
"227 675 LINE",
"227 805 LINE",
"75 805 LINE"
);
},
{
closed = 1;
nodes = (
"315 675 LINE",
"467 675 LINE",
"467 805 LINE",
"315 805 LINE"
);
},
{
closed = 1;
nodes = (
"433 220 LINE",
"112 220 LINE",
"112 96 LINE",
"433 96 LINE"
);
},
{
closed = 1;
nodes = (
"543 0 LINE",
"378 642 LINE",
"165 642 LINE",
"0 0 LINE",
"172 0 LINE",
"271 451 LINE",
"367 0 LINE"
);
}
);
width = 543;
},
{
layerId = "D7ED940C-AEED-448E-AD50-67D9ABA5AFA7";
paths = (
{
closed = 1;
nodes = (
"34 653 LINE",
"122 653 LINE",
"122 737 LINE",
"34 737 LINE"
);
},
{
closed = 1;
nodes = (
"210 653 LINE",
"298 653 LINE",
"298 737 LINE",
"210 737 LINE"
);
},
{
closed = 1;
nodes = (
"257 217 LINE",
"83 217 LINE",
"83 158 LINE",
"257 158 LINE"
);
},
{
closed = 1;
nodes = (
"328 0 LINE",
"221 622 LINE",
"112 622 LINE",
"15 0 LINE",
"84 0 LINE",
"166 574 LINE",
"259 0 LINE"
);
}
);
width = 343;
}
);
unicode = 00C4;
},
{
glyphname = Aring;
layers = (
{
layerId = "DEF7E4D1-2777-4333-B76D-D32E6812EDA5";
paths = (
{
closed = 1;
nodes = (
"433 220 LINE",
"112 220 LINE",
"112 96 LINE",
"433 96 LINE"
);
},
{
closed = 1;
nodes = (
"543 0 LINE",
"378 642 LINE",
"165 642 LINE",
"0 0 LINE",
"172 0 LINE",
"271 451 LINE",
"367 0 LINE"
);
},
{
closed = 1;
nodes = (
"417 779 LINE SMOOTH",
"417 833 OFFCURVE",
"392 869 OFFCURVE",
"315 869 CURVE SMOOTH",
"229 869 LINE SMOOTH",
"152 869 OFFCURVE",
"127 833 OFFCURVE",
"127 779 CURVE SMOOTH",
"127 763 LINE SMOOTH",
"127 709 OFFCURVE",
"152 674 OFFCURVE",
"229 674 CURVE SMOOTH",
"315 674 LINE SMOOTH",
"392 674 OFFCURVE",
"417 709 OFFCURVE",
"417 763 CURVE SMOOTH"
);
},
{
closed = 1;
nodes = (
"311 764 LINE SMOOTH",
"311 751 OFFCURVE",
"306 745 OFFCURVE",
"291 745 CURVE SMOOTH",
"253 745 LINE SMOOTH",
"238 745 OFFCURVE",
"233 751 OFFCURVE",
"233 764 CURVE SMOOTH",
"233 778 LINE SMOOTH",
"233 791 OFFCURVE",
"238 797 OFFCURVE",
"253 797 CURVE SMOOTH",
"291 797 LINE SMOOTH",
"306 797 OFFCURVE",
"311 791 OFFCURVE",
"311 778 CURVE SMOOTH"
);
}
);
width = 543;
},
{
layerId = "D7ED940C-AEED-448E-AD50-67D9ABA5AFA7";
paths = (
{
closed = 1;
nodes = (
"257 217 LINE",
"83 217 LINE",
"83 158 LINE",
"257 158 LINE"
);
},
{
closed = 1;
nodes = (
"328 0 LINE",
"221 622 LINE",
"112 622 LINE",
"15 0 LINE",
"84 0 LINE",
"166 574 LINE",
"259 0 LINE"
);
},
{
closed = 1;
nodes = (
"261 735 LINE",
"261 780 OFFCURVE",
"240 800 OFFCURVE",
"196 800 CURVE SMOOTH",
"136 800 LINE SMOOTH",
"92 800 OFFCURVE",
"71 780 OFFCURVE",
"71 735 CURVE SMOOTH",
"71 718 LINE SMOOTH",
"71 673 OFFCURVE",
"92 653 OFFCURVE",
"136 653 CURVE SMOOTH",
"196 653 LINE SMOOTH",
"240 653 OFFCURVE",
"261 673 OFFCURVE",
"261 718 CURVE"
);
},
{
closed = 1;
nodes = (
"210 724 LINE",
"210 702 OFFCURVE",
"207 697 OFFCURVE",
"182 697 CURVE SMOOTH",
"150 697 LINE SMOOTH",
"125 697 OFFCURVE",
"122 702 OFFCURVE",
"122 724 CURVE SMOOTH",
"122 729 LINE SMOOTH",
"122 751 OFFCURVE",
"125 756 OFFCURVE",
"150 756 CURVE SMOOTH",
"182 756 LINE SMOOTH",
"207 756 OFFCURVE",
"210 751 OFFCURVE",
"210 729 CURVE"
);
}
);
width = 343;
}
);
unicode = 00C5;
},
{
glyphname = ring;
layers = (
{
layerId = "DEF7E4D1-2777-4333-B76D-D32E6812EDA5";
paths = (
{
closed = 1;
nodes = (
"395 615 LINE SMOOTH",
"395 669 OFFCURVE",
"370 705 OFFCURVE",
"293 705 CURVE SMOOTH",
"207 705 LINE SMOOTH",
"130 705 OFFCURVE",
"105 669 OFFCURVE",
"105 615 CURVE SMOOTH",
"105 599 LINE SMOOTH",
"105 545 OFFCURVE",
"130 510 OFFCURVE",
"207 510 CURVE SMOOTH",
"293 510 LINE SMOOTH",
"370 510 OFFCURVE",
"395 545 OFFCURVE",
"395 599 CURVE SMOOTH"
);
},
{
closed = 1;
nodes = (
"289 600 LINE SMOOTH",
"289 587 OFFCURVE",
"284 581 OFFCURVE",
"269 581 CURVE SMOOTH",
"231 581 LINE SMOOTH",
"216 581 OFFCURVE",
"211 587 OFFCURVE",
"211 600 CURVE SMOOTH",
"211 614 LINE SMOOTH",
"211 627 OFFCURVE",
"216 633 OFFCURVE",
"231 633 CURVE SMOOTH",
"269 633 LINE SMOOTH",
"284 633 OFFCURVE",
"289 627 OFFCURVE",
"289 614 CURVE SMOOTH"
);
}
);
width = 500;
},
{
layerId = "D7ED940C-AEED-448E-AD50-67D9ABA5AFA7";
paths = (
{
closed = 1;
nodes = (
"295 588 LINE",
"295 633 OFFCURVE",
"274 653 OFFCURVE",
"230 653 CURVE SMOOTH",
"170 653 LINE SMOOTH",
"126 653 OFFCURVE",
"105 633 OFFCURVE",
"105 588 CURVE SMOOTH",
"105 571 LINE SMOOTH",
"105 526 OFFCURVE",
"126 506 OFFCURVE",
"170 506 CURVE SMOOTH",
"230 506 LINE SMOOTH",
"274 506 OFFCURVE",
"295 526 OFFCURVE",
"295 571 CURVE"
);
},
{
closed = 1;
nodes = (
"244 577 LINE",
"244 555 OFFCURVE",
"241 550 OFFCURVE",
"216 550 CURVE SMOOTH",
"184 550 LINE SMOOTH",
"159 550 OFFCURVE",
"156 555 OFFCURVE",
"156 577 CURVE SMOOTH",
"156 582 LINE SMOOTH",
"156 604 OFFCURVE",
"159 609 OFFCURVE",
"184 609 CURVE SMOOTH",
"216 609 LINE SMOOTH",
"241 609 OFFCURVE",
"244 604 OFFCURVE",
"244 582 CURVE"
);
}
);
width = 400;
}
);
unicode = 02DA;
},
{
glyphname = AE;
layers = (
{
layerId = "DEF7E4D1-2777-4333-B76D-D32E6812EDA5";
paths = (
{
closed = 1;
nodes = (
"410 642 LINE",
"255 642 LINE",
"0 0 LINE",
"172 0 LINE"
);
},
{
closed = 1;
nodes = (
"433 235 LINE",
"112 235 LINE",
"112 115 LINE",
"433 115 LINE"
);
},
{
closed = 1;
nodes = (
"369 642 LINE",
"369 0 LINE",
"534 0 LINE",
"534 642 LINE"
);
},
{
closed = 1;
nodes = (
"753 125 LINE",
"423 125 LINE",
"423 0 LINE",
"753 0 LINE"
);
},
{
closed = 1;
nodes = (
"715 386 LINE",
"436 386 LINE",
"436 261 LINE",
"715 261 LINE"
);
},
{
closed = 1;
nodes = (
"744 642 LINE",
"423 642 LINE",
"423 517 LINE",
"744 517 LINE"
);
}
);
width = 770;
},
{
layerId = "D7ED940C-AEED-448E-AD50-67D9ABA5AFA7";
paths = (
{
closed = 1;
nodes = (
"304 622 LINE",
"240 622 LINE",
"14 0 LINE",
"83 0 LINE"
);
},
{
closed = 1;
nodes = (
"279 217 LINE",
"105 217 LINE",
"105 158 LINE",
"279 158 LINE"
);
},
{
closed = 1;
nodes = (
"264 622 LINE",
"264 0 LINE",
"333 0 LINE",
"333 622 LINE"
);
},
{
closed = 1;
nodes = (
"504 59 LINE",
"308 59 LINE",
"308 0 LINE",
"504 0 LINE"
);
},
{
closed = 1;
nodes = (
"467 353 LINE",
"308 353 LINE",
"308 294 LINE",
"467 294 LINE"
);
},
{
closed = 1;
nodes = (
"497 622 LINE",
"308 622 LINE",
"308 563 LINE",
"497 563 LINE"
);
}
);
width = 528;
}
);
unicode = 00C6;
},
{
glyphname = Ccedilla;
layers = (
{
layerId = "DEF7E4D1-2777-4333-B76D-D32E6812EDA5";
paths = (
{
closed = 1;
nodes = (
"210 505 LINE SMOOTH",
"210 520 OFFCURVE",
"218 527 OFFCURVE",
"235 527 CURVE SMOOTH",
"261 527 LINE",
"261 642 LINE",
"182 642 LINE SMOOTH",
"75 642 OFFCURVE",
"35 593 OFFCURVE",
"35 518 CURVE SMOOTH",
"35 124 LINE SMOOTH",
"35 49 OFFCURVE",
"75 0 OFFCURVE",
"182 0 CURVE SMOOTH",
"261 0 LINE",
"261 115 LINE",
"235 115 LINE SMOOTH",
"218 115 OFFCURVE",
"210 122 OFFCURVE",
"210 137 CURVE SMOOTH"
);
},
{
closed = 1;
nodes = (
"295 402 LINE",
"470 402 LINE",
"470 518 LINE SMOOTH",
"470 593 OFFCURVE",
"430 642 OFFCURVE",
"323 642 CURVE SMOOTH",
"244 642 LINE",
"244 527 LINE",
"270 527 LINE SMOOTH",
"287 527 OFFCURVE",
"295 520 OFFCURVE",
"295 505 CURVE SMOOTH"
);
},
{
closed = 1;
nodes = (
"295 137 LINE SMOOTH",
"295 122 OFFCURVE",
"287 115 OFFCURVE",
"270 115 CURVE SMOOTH",
"244 115 LINE",
"244 0 LINE",
"323 0 LINE SMOOTH",
"430 0 OFFCURVE",
"470 49 OFFCURVE",
"470 124 CURVE SMOOTH",
"470 236 LINE",
"295 236 LINE"
);
},
{
closed = 1;
nodes = (
"170 -123 LINE SMOOTH",
"170 -138 OFFCURVE",
"162 -145 OFFCURVE",
"145 -145 CURVE SMOOTH",
"92 -145 LINE",
"92 -260 LINE",
"183 -260 LINE SMOOTH",
"290 -260 OFFCURVE",
"330 -211 OFFCURVE",
"330 -136 CURVE SMOOTH",
"330 -46 LINE",
"170 -46 LINE"
);
}
);
width = 495;
},
{
layerId = "D7ED940C-AEED-448E-AD50-67D9ABA5AFA7";
paths = (
{
closed = 1;
nodes = (
"119 532 LINE",
"119 558 OFFCURVE",
"124 563 OFFCURVE",
"150 563 CURVE SMOOTH",
"186 563 LINE",
"186 622 LINE",
"129 622 LINE SMOOTH",
"76 622 OFFCURVE",
"50 596 OFFCURVE",
"50 543 CURVE SMOOTH",
"50 78 LINE SMOOTH",
"50 25 OFFCURVE",
"76 -1 OFFCURVE",
"129 -1 CURVE",
"179 -1 LINE",
"179 58 LINE",
"150 58 LINE SMOOTH",
"124 58 OFFCURVE",
"119 63 OFFCURVE",
"119 89 CURVE SMOOTH"
);
},
{
closed = 1;
nodes = (
"236 438 LINE",
"305 438 LINE",
"305 543 LINE SMOOTH",
"305 596 OFFCURVE",
"279 622 OFFCURVE",
"226 622 CURVE SMOOTH",
"171 622 LINE",
"171 563 LINE",
"205 563 LINE SMOOTH",
"231 563 OFFCURVE",
"236 558 OFFCURVE",
"236 532 CURVE SMOOTH"
);
},
{
closed = 1;
nodes = (
"236 89 LINE",
"236 63 OFFCURVE",
"231 58 OFFCURVE",
"205 58 CURVE SMOOTH",
"171 58 LINE",
"171 -1 LINE",
"226 -1 LINE SMOOTH",
"279 -1 OFFCURVE",
"305 25 OFFCURVE",
"305 78 CURVE SMOOTH",
"305 183 LINE",
"236 183 LINE"
);
},
{
closed = 1;
nodes = (
"149 -73 LINE",
"149 -99 OFFCURVE",
"140 -110 OFFCURVE",
"114 -110 CURVE SMOOTH",
"77 -110 LINE",
"77 -168 LINE",
"125 -168 LINE SMOOTH",
"179 -168 OFFCURVE",
"214 -140 OFFCURVE",
"214 -79 CURVE SMOOTH",
"214 -51 LINE",
"149 -51 LINE"
);
}
);
width = 345;
}
);
unicode = 00C7;
},
{
glyphname = Egrave;
layers = (
{
layerId = "DEF7E4D1-2777-4333-B76D-D32E6812EDA5";
paths = (
{
closed = 1;
nodes = (
"40 642 LINE",
"40 0 LINE",
"215 0 LINE",
"215 642 LINE"
);
},
{
closed = 1;
nodes = (
"396 386 LINE",
"115 386 LINE",
"115 261 LINE",
"396 261 LINE"
);
},
{
closed = 1;
nodes = (
"425 642 LINE",
"102 642 LINE",
"102 517 LINE",
"425 517 LINE"
);
},
{
closed = 1;
nodes = (
"434 125 LINE",
"102 125 LINE",
"102 0 LINE",
"434 0 LINE"
);
},
{
closed = 1;
nodes = (
"205 825 LINE",
"35 825 LINE",
"168 675 LINE",
"302 675 LINE"
);
}
);
width = 449;
},
{
layerId = "D7ED940C-AEED-448E-AD50-67D9ABA5AFA7";
paths = (
{
closed = 1;
nodes = (
"55 622 LINE",
"55 0 LINE",
"124 0 LINE",
"124 622 LINE"
);
},
{
closed = 1;
nodes = (
"258 353 LINE",
"99 353 LINE",
"99 294 LINE",
"258 294 LINE"
);
},
{
closed = 1;
nodes = (
"288 622 LINE",
"99 622 LINE",
"99 563 LINE",
"288 563 LINE"
);
},
{
closed = 1;
nodes = (
"295 59 LINE",
"99 59 LINE",
"99 0 LINE",
"295 0 LINE"
);
},
{
closed = 1;
nodes = (
"124 780 LINE",
"42 780 LINE",
"140 653 LINE",
"202 653 LINE"
);
}
);
width = 315;
}
);
unicode = 00C8;
},
{
glyphname = Eacute;
layers = (
{
layerId = "DEF7E4D1-2777-4333-B76D-D32E6812EDA5";
paths = (
{
closed = 1;
nodes = (
"40 642 LINE",
"40 0 LINE",
"215 0 LINE",
"215 642 LINE"
);
},
{
closed = 1;
nodes = (
"396 386 LINE",
"115 386 LINE",
"115 261 LINE",
"396 261 LINE"
);
},
{
closed = 1;
nodes = (
"425 642 LINE",
"102 642 LINE",
"102 517 LINE",
"425 517 LINE"
);
},
{
closed = 1;
nodes = (
"434 125 LINE",
"102 125 LINE",
"102 0 LINE",
"434 0 LINE"
);
},
{
closed = 1;
nodes = (
"165 675 LINE",
"299 675 LINE",
"432 825 LINE",
"262 825 LINE"
);
}
);
width = 449;
},
{
layerId = "D7ED940C-AEED-448E-AD50-67D9ABA5AFA7";
paths = (
{
closed = 1;
nodes = (
"55 622 LINE",
"55 0 LINE",
"124 0 LINE",
"124 622 LINE"
);
},
{
closed = 1;
nodes = (
"258 353 LINE",
"99 353 LINE",
"99 294 LINE",
"258 294 LINE"
);
},
{
closed = 1;
nodes = (
"288 622 LINE",
"99 622 LINE",
"99 563 LINE",
"288 563 LINE"
);
},
{
closed = 1;
nodes = (
"295 59 LINE",
"99 59 LINE",
"99 0 LINE",
"295 0 LINE"
);
},
{
closed = 1;
nodes = (
"136 653 LINE",
"198 653 LINE",
"296 780 LINE",
"214 780 LINE"
);
}
);
width = 315;
}
);
unicode = 00C9;
},
{
glyphname = Ecircumflex;
layers = (
{
layerId = "DEF7E4D1-2777-4333-B76D-D32E6812EDA5";
paths = (
{
closed = 1;
nodes = (
"40 642 LINE",
"40 0 LINE",
"215 0 LINE",
"215 642 LINE"
);
},
{
closed = 1;
nodes = (
"396 386 LINE",
"115 386 LINE",
"115 261 LINE",
"396 261 LINE"
);
},
{
closed = 1;
nodes = (
"425 642 LINE",
"102 642 LINE",
"102 517 LINE",
"425 517 LINE"
);
},
{
closed = 1;
nodes = (
"434 125 LINE",
"102 125 LINE",
"102 0 LINE",
"434 0 LINE"
);
},
{
closed = 1;
nodes = (
"26 675 LINE",
"183 675 LINE",
"236 744 LINE",
"289 675 LINE",
"446 675 LINE",
"313 825 LINE",
"159 825 LINE"
);
}
);
width = 449;
},
{
layerId = "D7ED940C-AEED-448E-AD50-67D9ABA5AFA7";
paths = (
{
closed = 1;
nodes = (
"55 622 LINE",
"55 0 LINE",
"124 0 LINE",
"124 622 LINE"
);
},
{
closed = 1;
nodes = (
"258 353 LINE",
"99 353 LINE",
"99 294 LINE",
"258 294 LINE"
);
},
{
closed = 1;
nodes = (
"288 622 LINE",
"99 622 LINE",
"99 563 LINE",
"288 563 LINE"
);
},
{
closed = 1;
nodes = (
"295 59 LINE",
"99 59 LINE",
"99 0 LINE",
"295 0 LINE"
);
},
{
closed = 1;
nodes = (
"44 653 LINE",
"120 653 LINE",
"172 737 LINE",
"225 653 LINE",
"301 653 LINE",
"216 780 LINE",
"129 780 LINE"
);
}
);
width = 315;
}
);
unicode = 00CA;
},
{
glyphname = Edieresis;
layers = (
{
layerId = "DEF7E4D1-2777-4333-B76D-D32E6812EDA5";
paths = (
{
closed = 1;
nodes = (
"38 675 LINE",
"190 675 LINE",
"190 805 LINE",
"38 805 LINE"
);
},
{
closed = 1;
nodes = (
"278 675 LINE",
"430 675 LINE",
"430 805 LINE",
"278 805 LINE"
);
},
{
closed = 1;
nodes = (
"40 642 LINE",
"40 0 LINE",
"215 0 LINE",
"215 642 LINE"
);
},
{
closed = 1;
nodes = (
"396 386 LINE",
"115 386 LINE",
"115 261 LINE",
"396 261 LINE"
);
},
{
closed = 1;
nodes = (
"425 642 LINE",
"102 642 LINE",
"102 517 LINE",
"425 517 LINE"
);
},
{
closed = 1;
nodes = (
"434 125 LINE",
"102 125 LINE",
"102 0 LINE",
"434 0 LINE"
);
}
);
width = 500;
},
{
layerId = "D7ED940C-AEED-448E-AD50-67D9ABA5AFA7";
paths = (
{
closed = 1;
nodes = (
"37 653 LINE",
"125 653 LINE",
"125 737 LINE",
"37 737 LINE"
);
},
{
closed = 1;
nodes = (
"213 653 LINE",
"301 653 LINE",
"301 737 LINE",
"213 737 LINE"
);
},
{
closed = 1;
nodes = (
"55 622 LINE",
"55 0 LINE",
"124 0 LINE",
"124 622 LINE"
);
},
{
closed = 1;
nodes = (
"258 353 LINE",
"99 353 LINE",
"99 294 LINE",
"258 294 LINE"
);
},
{
closed = 1;
nodes = (
"288 622 LINE",
"99 622 LINE",
"99 563 LINE",
"288 563 LINE"
);
},
{
closed = 1;
nodes = (
"295 59 LINE",
"99 59 LINE",
"99 0 LINE",
"295 0 LINE"
);
}
);
width = 315;
}
);
unicode = 00CB;
},
{
glyphname = Igrave;
layers = (
{
layerId = "DEF7E4D1-2777-4333-B76D-D32E6812EDA5";
paths = (
{
closed = 1;
nodes = (
"40 642 LINE",
"40 0 LINE",
"215 0 LINE",
"215 642 LINE"
);
},
{
closed = 1;
nodes = (
"97 825 LINE",
"-73 825 LINE",
"60 675 LINE",
"194 675 LINE"
);
}
);
width = 255;
},
{
layerId = "D7ED940C-AEED-448E-AD50-67D9ABA5AFA7";
paths = (
{
closed = 1;
nodes = (
"65 622 LINE",
"65 0 LINE",
"133 0 LINE",
"133 622 LINE"
);
},
{
closed = 1;
nodes = (
"52 780 LINE",
"-30 780 LINE",
"68 653 LINE",
"130 653 LINE"
);
}
);
width = 198;
}
);
unicode = 00CC;
},
{
glyphname = Iacute;
layers = (
{
layerId = "DEF7E4D1-2777-4333-B76D-D32E6812EDA5";
paths = (
{
closed = 1;
nodes = (
"40 642 LINE",
"40 0 LINE",
"215 0 LINE",
"215 642 LINE"
);
},
{
closed = 1;
nodes = (
"56 675 LINE",
"190 675 LINE",
"323 825 LINE",
"153 825 LINE"
);
}
);
width = 255;
},
{
layerId = "D7ED940C-AEED-448E-AD50-67D9ABA5AFA7";
paths = (
{
closed = 1;
nodes = (
"65 622 LINE",
"65 0 LINE",
"133 0 LINE",
"133 622 LINE"
);
},
{
closed = 1;
nodes = (
"72 653 LINE",
"134 653 LINE",
"232 780 LINE",
"150 780 LINE"
);
}
);
width = 198;
}
);
unicode = 00CD;
},
{
glyphname = Icircumflex;
layers = (
{
layerId = "DEF7E4D1-2777-4333-B76D-D32E6812EDA5";
paths = (
{
closed = 1;
nodes = (
"40 642 LINE",
"40 0 LINE",
"215 0 LINE",
"215 642 LINE"
);
},
{
closed = 1;
nodes = (
"-83 675 LINE",
"74 675 LINE",
"127 744 LINE",
"180 675 LINE",
"337 675 LINE",
"204 825 LINE",
"50 825 LINE"
);
}
);
width = 255;
},
{
layerId = "D7ED940C-AEED-448E-AD50-67D9ABA5AFA7";
paths = (
{
closed = 1;
nodes = (
"65 622 LINE",
"65 0 LINE",
"133 0 LINE",
"133 622 LINE"
);
},
{
closed = 1;
nodes = (
"-28 653 LINE",
"48 653 LINE",
"100 737 LINE",
"153 653 LINE",
"229 653 LINE",
"144 780 LINE",
"57 780 LINE"
);
}
);
width = 198;
}
);
unicode = 00CE;
},
{
glyphname = Idieresis;
layers = (
{
layerId = "DEF7E4D1-2777-4333-B76D-D32E6812EDA5";
paths = (
{
closed = 1;
nodes = (
"-68 675 LINE",
"84 675 LINE",
"84 805 LINE",
"-68 805 LINE"
);
},
{
closed = 1;
nodes = (
"172 675 LINE",
"324 675 LINE",
"324 805 LINE",
"172 805 LINE"
);
},
{
closed = 1;
nodes = (
"40 642 LINE",
"40 0 LINE",
"215 0 LINE",
"215 642 LINE"
);
}
);
width = 255;
},
{
layerId = "D7ED940C-AEED-448E-AD50-67D9ABA5AFA7";
paths = (
{
closed = 1;
nodes = (
"-35 653 LINE",
"53 653 LINE",
"53 737 LINE",
"-35 737 LINE"
);
},
{
closed = 1;
nodes = (
"141 653 LINE",
"229 653 LINE",
"229 737 LINE",
"141 737 LINE"
);
},
{
closed = 1;
nodes = (
"65 622 LINE",
"65 0 LINE",
"133 0 LINE",
"133 622 LINE"
);
}
);
width = 198;
}
);
unicode = 00CF;
},
{
glyphname = Eth;
layers = (
{
layerId = "DEF7E4D1-2777-4333-B76D-D32E6812EDA5";
paths = (
{
closed = 1;
nodes = (
"317 374 LINE",
"492 374 LINE",
"492 518 LINE SMOOTH",
"492 593 OFFCURVE",
"452 642 OFFCURVE",
"345 642 CURVE SMOOTH",
"108 642 LINE",
"108 527 LINE",
"292 527 LINE SMOOTH",
"309 527 OFFCURVE",
"317 520 OFFCURVE",
"317 505 CURVE SMOOTH"
);
},
{
closed = 1;
nodes = (
"317 137 LINE SMOOTH",
"317 122 OFFCURVE",
"309 115 OFFCURVE",
"292 115 CURVE SMOOTH",
"108 115 LINE",
"108 0 LINE",
"345 0 LINE SMOOTH",
"452 0 OFFCURVE",
"492 49 OFFCURVE",
"492 124 CURVE SMOOTH",
"492 387 LINE",
"317 387 LINE"
);
},
{
closed = 1;
nodes = (
"50 642 LINE",
"50 0 LINE",
"225 0 LINE",
"225 642 LINE"
);
},
{
closed = 1;
nodes = (
"280 384 LINE",
"-5 384 LINE",
"-5 269 LINE",
"280 269 LINE"
);
}
);
width = 527;
},
{
layerId = "D7ED940C-AEED-448E-AD50-67D9ABA5AFA7";
paths = (
{
closed = 1;
nodes = (
"262 397 LINE",
"331 397 LINE",
"331 543 LINE SMOOTH",
"331 596 OFFCURVE",
"305 622 OFFCURVE",
"252 622 CURVE SMOOTH",
"94 622 LINE",
"94 563 LINE",
"231 563 LINE SMOOTH",
"257 563 OFFCURVE",
"262 558 OFFCURVE",
"262 532 CURVE SMOOTH"
);
},
{
closed = 1;
nodes = (
"262 90 LINE",
"262 64 OFFCURVE",
"257 59 OFFCURVE",
"231 59 CURVE SMOOTH",
"94 59 LINE",
"94 0 LINE",
"252 0 LINE SMOOTH",
"305 0 OFFCURVE",
"331 26 OFFCURVE",
"331 79 CURVE SMOOTH",
"331 422 LINE",
"262 422 LINE"
);
},
{
closed = 1;
nodes = (
"55 622 LINE",
"55 0 LINE",
"124 0 LINE",
"124 622 LINE"
);
},
{
closed = 1;
nodes = (
"204 342 LINE",
"5 342 LINE",
"5 283 LINE",
"204 283 LINE"
);
}
);
width = 381;
}
);
unicode = 00D0;
},
{
glyphname = Ntilde;
layers = (
{
layerId = "DEF7E4D1-2777-4333-B76D-D32E6812EDA5";
paths = (
{
closed = 1;
nodes = (
"333 642 LINE",
"333 299 LINE",
"190 642 LINE",
"40 642 LINE",
"40 0 LINE",
"200 0 LINE",
"200 337 LINE",
"343 0 LINE",
"493 0 LINE",
"493 642 LINE"
);
},
{
closed = 1;
nodes = (
"364 675 LINE SMOOTH",
"440 675 OFFCURVE",
"465 706 OFFCURVE",
"465 765 CURVE SMOOTH",
"465 825 LINE",
"330 825 LINE",
"330 794 LINE SMOOTH",
"330 780 OFFCURVE",
"324 773 OFFCURVE",
"312 773 CURVE SMOOTH",
"291 773 OFFCURVE",
"248 825 OFFCURVE",
"190 825 CURVE SMOOTH",
"171 825 LINE SMOOTH",
"96 825 OFFCURVE",
"72 789 OFFCURVE",
"72 730 CURVE SMOOTH",
"72 675 LINE",
"207 675 LINE",
"207 706 LINE SMOOTH",
"207 720 OFFCURVE",
"213 727 OFFCURVE",
"225 727 CURVE SMOOTH",
"246 727 OFFCURVE",
"289 675 OFFCURVE",
"347 675 CURVE SMOOTH"
);
}
);
width = 533;
},
{
layerId = "D7ED940C-AEED-448E-AD50-67D9ABA5AFA7";
paths = (
{
closed = 1;
nodes = (
"259 622 LINE",
"259 157 LINE",
"135 622 LINE",
"55 622 LINE",
"55 0 LINE",
"118 0 LINE",
"118 482 LINE",
"247 0 LINE",
"322 0 LINE",
"322 622 LINE"
);
},
{
closed = 1;
nodes = (
"242 653 LINE SMOOTH",
"298 653 OFFCURVE",
"313 683 OFFCURVE",
"313 729 CURVE SMOOTH",
"313 743 LINE",
"251 743 LINE",
"251 733 LINE SMOOTH",
"251 712 OFFCURVE",
"246 708 OFFCURVE",
"232 708 CURVE SMOOTH",
"208 708 OFFCURVE",
"183 743 OFFCURVE",
"141 743 CURVE SMOOTH",
"135 743 LINE SMOOTH",
"80 743 OFFCURVE",
"63 714 OFFCURVE",
"63 667 CURVE SMOOTH",
"63 653 LINE",
"125 653 LINE",
"125 664 LINE SMOOTH",
"125 680 OFFCURVE",
"130 688 OFFCURVE",
"142 688 CURVE SMOOTH",
"167 688 OFFCURVE",
"194 653 OFFCURVE",
"237 653 CURVE"
);
}
);
width = 377;
}
);
unicode = 00D1;
},
{
glyphname = Ograve;
layers = (
{
layerId = "DEF7E4D1-2777-4333-B76D-D32E6812EDA5";
paths = (
{
closed = 1;
nodes = (
"304 374 LINE",
"479 374 LINE",
"479 518 LINE SMOOTH",
"479 593 OFFCURVE",
"439 642 OFFCURVE",
"332 642 CURVE SMOOTH",
"246 642 LINE",
"246 517 LINE",
"279 517 LINE SMOOTH",
"296 517 OFFCURVE",
"304 510 OFFCURVE",
"304 495 CURVE SMOOTH"
);
},
{
closed = 1;
nodes = (
"304 147 LINE SMOOTH",
"304 132 OFFCURVE",
"296 125 OFFCURVE",
"279 125 CURVE SMOOTH",
"246 125 LINE",
"246 0 LINE",
"332 0 LINE SMOOTH",
"439 0 OFFCURVE",
"479 49 OFFCURVE",
"479 124 CURVE SMOOTH",
"479 387 LINE",
"304 387 LINE"
);
},
{
closed = 1;
nodes = (
"212 495 LINE SMOOTH",
"212 510 OFFCURVE",
"220 517 OFFCURVE",
"237 517 CURVE SMOOTH",
"270 517 LINE",
"270 642 LINE",
"184 642 LINE SMOOTH",
"77 642 OFFCURVE",
"37 593 OFFCURVE",
"37 518 CURVE SMOOTH",
"37 374 LINE",
"212 374 LINE"
);
},
{
closed = 1;
nodes = (
"212 387 LINE",
"37 387 LINE",
"37 124 LINE SMOOTH",
"37 49 OFFCURVE",
"77 0 OFFCURVE",
"184 0 CURVE SMOOTH",
"270 0 LINE",
"270 125 LINE",
"237 125 LINE SMOOTH",
"220 125 OFFCURVE",
"212 132 OFFCURVE",
"212 147 CURVE SMOOTH"
);
},
{
closed = 1;
nodes = (
"225 825 LINE",
"55 825 LINE",
"188 675 LINE",
"322 675 LINE"
);
}
);
width = 516;
},
{
layerId = "D7ED940C-AEED-448E-AD50-67D9ABA5AFA7";
paths = (
{
closed = 1;
nodes = (
"242 141 LINE",
"310 141 LINE",
"310 543 LINE SMOOTH",
"310 596 OFFCURVE",
"284 622 OFFCURVE",
"231 622 CURVE SMOOTH",
"177 622 LINE",
"177 563 LINE",
"211 563 LINE SMOOTH",
"237 563 OFFCURVE",
"242 558 OFFCURVE",
"242 532 CURVE SMOOTH"
);
},
{
closed = 1;
nodes = (
"242 90 LINE",
"242 64 OFFCURVE",
"237 59 OFFCURVE",
"211 59 CURVE SMOOTH",
"170 59 LINE",
"170 0 LINE",
"231 0 LINE SMOOTH",
"284 0 OFFCURVE",
"310 26 OFFCURVE",
"310 79 CURVE SMOOTH",
"310 191 LINE",
"242 191 LINE"
);
},
{
closed = 1;
nodes = (
"118 532 LINE",
"118 558 OFFCURVE",
"123 563 OFFCURVE",
"149 563 CURVE SMOOTH",
"183 563 LINE",
"183 622 LINE",
"129 622 LINE SMOOTH",
"76 622 OFFCURVE",
"50 596 OFFCURVE",
"50 543 CURVE SMOOTH",
"50 140 LINE",
"118 140 LINE"
);
},
{
closed = 1;
nodes = (
"118 199 LINE",
"50 199 LINE",
"50 79 LINE SMOOTH",
"50 26 OFFCURVE",
"76 0 OFFCURVE",
"129 0 CURVE SMOOTH",
"180 0 LINE",
"180 59 LINE",
"149 59 LINE SMOOTH",
"123 59 OFFCURVE",
"118 64 OFFCURVE",
"118 90 CURVE SMOOTH"
);
},
{
closed = 1;
nodes = (
"122 780 LINE",
"40 780 LINE",
"138 653 LINE",
"200 653 LINE"
);
}
);
width = 360;
}
);
unicode = 00D2;
},
